<svg width="290" height="213" viewBox="0 0 290 213" fill="none" xmlns="http://www.w3.org/2000/svg">
<path d="M139.614 122.254C133.602 122.254 127.742 124.141 122.855 127.651C117.967 131.161 114.298 136.117 112.362 141.824C111.472 144.452 107.749 144.475 106.796 141.869C101.973 128.665 99.3373 105.064 133.61 103.634C149.49 102.972 148.871 122.254 139.614 122.254Z" fill="#0CBC8B"/>
<path d="M146.807 122.254C152.818 122.254 158.678 124.141 163.565 127.651C168.452 131.161 172.122 136.117 174.058 141.824C174.948 144.452 178.671 144.475 179.624 141.869C184.446 128.665 187.082 105.064 152.81 103.634C136.93 102.972 137.549 122.254 146.807 122.254Z" fill="#0CBC8B"/>
<path d="M42.2769 52.2331C42.2769 52.2331 44.4018 50.9648 43.622 45.0298L48.0891 43.969C48.0891 43.969 47.8449 49.3367 50.208 50.9203L42.2769 52.2331Z" fill="#E98862"/>
<g opacity="0.15">
<path d="M49.2305 49.849L45.344 47.1603L48.284 46.9844C48.4188 47.9901 48.7398 48.9616 49.2305 49.849Z" fill="black"/>
</g>
<path d="M40.9507 42.8456C41.3513 44.638 42.4198 46.3024 44.0382 46.807C45.9594 47.4072 47.3604 47.3851 49.537 47.2774C52.507 47.1309 52.2564 44.0291 52.186 40.8947C52.1154 37.7476 51.7007 34.3885 50.4731 33.3512C48.0224 31.2811 41.2137 33.0049 40.5563 36.7026C40.217 38.6152 40.569 41.1395 40.9507 42.8456Z" fill="#E98862"/>
<path d="M53.4933 35.0235C53.4933 35.0235 54.6963 34.6912 54.3036 33.4909C54.0434 32.6953 53.0215 32.9242 53.0215 32.9242C53.0215 32.9242 53.9886 32.6976 53.9465 31.8424C53.9202 31.3041 53.4631 30.4126 52.2442 30.9952C50.8144 31.6789 49.1455 31.6826 47.869 31.5316C47.145 31.4097 46.4129 31.3427 45.6788 31.3313H45.6751C44.8333 31.3583 44.0003 31.5121 43.2041 31.7877C40.9744 32.5785 37.6493 34.783 38.604 39.3607C39.6694 44.4695 42.1755 46.3197 43.2657 46.8977C43.3303 46.9326 43.4019 46.9522 43.4752 46.9552C43.5484 46.9581 43.6214 46.9444 43.6885 46.9149C43.7557 46.8855 43.8153 46.8411 43.8628 46.7852C43.9104 46.7292 43.9447 46.6632 43.963 46.592C44.2173 45.6122 44.6157 43.1584 44.2244 38.1588C51.1638 37.4728 53.1605 37.2702 53.1605 37.2702C53.1605 37.2702 54.8011 37.2506 54.7426 36.0518C54.6842 34.853 53.4933 35.0235 53.4933 35.0235Z" fill="#0F1011"/>
<path d="M47.9221 41.1046C48.1482 41.1046 48.3315 40.9208 48.3315 40.694C48.3315 40.4673 48.1482 40.2834 47.9221 40.2834C47.696 40.2834 47.5127 40.4673 47.5127 40.694C47.5127 40.9208 47.696 41.1046 47.9221 41.1046Z" fill="#0F1011"/>
<path d="M51.1347 40.6803C51.3608 40.6803 51.5441 40.4964 51.5441 40.2697C51.5441 40.0429 51.3608 39.8591 51.1347 39.8591C50.9086 39.8591 50.7253 40.0429 50.7253 40.2697C50.7253 40.4964 50.9086 40.6803 51.1347 40.6803Z" fill="#0F1011"/>
<path d="M50.7069 39.4009C50.657 39.4001 50.6094 39.3799 50.574 39.3446C50.5387 39.3093 50.5184 39.2615 50.5175 39.2115C50.5166 39.1614 50.5351 39.113 50.5691 39.0764C50.6031 39.0398 50.65 39.0179 50.6999 39.0152L51.7836 38.9753C51.8092 38.9731 51.8349 38.9762 51.8591 38.9846C51.8834 38.9929 51.9056 39.0063 51.9244 39.0238C51.9432 39.0412 51.9581 39.0625 51.9682 39.0861C51.9783 39.1097 51.9834 39.1352 51.9831 39.1609C51.985 39.212 51.9666 39.2618 51.9319 39.2993C51.8972 39.3369 51.849 39.359 51.798 39.3609L50.7143 39.4006L50.7069 39.4009Z" fill="#0F1011"/>
<path d="M46.9937 39.9952C46.9473 39.9953 46.9024 39.9787 46.8673 39.9482C46.8322 39.9178 46.8092 39.8757 46.8026 39.8297C46.796 39.7836 46.8062 39.7367 46.8314 39.6976C46.8565 39.6585 46.8949 39.6299 46.9394 39.6169L47.995 39.3066C48.0195 39.2984 48.0455 39.2952 48.0713 39.2972C48.0971 39.2993 48.1222 39.3065 48.1451 39.3185C48.1681 39.3305 48.1884 39.3471 48.2048 39.3671C48.2212 39.3872 48.2335 39.4104 48.2408 39.4353C48.248 39.4602 48.2502 39.4863 48.2472 39.5121C48.2442 39.5379 48.236 39.5628 48.2232 39.5853C48.2103 39.6079 48.1931 39.6276 48.1725 39.6433C48.1518 39.659 48.1283 39.6703 48.1032 39.6767L47.0476 39.9884C47.0301 39.9933 47.0119 39.9955 46.9937 39.9952Z" fill="#0F1011"/>
<path d="M45.8441 41.8026C45.8775 42.0309 45.8652 42.2636 45.8081 42.4872C45.751 42.7107 45.6501 42.9206 45.5113 43.1047C45.3726 43.2887 45.1987 43.4433 44.9998 43.5594C44.801 43.6754 44.5811 43.7507 44.3529 43.7807C44.1248 43.8108 43.893 43.7951 43.671 43.7344C43.449 43.6738 43.2412 43.5695 43.0597 43.4277C42.8783 43.2858 42.7267 43.1091 42.614 42.908C42.5012 42.7068 42.4295 42.4852 42.4029 42.256C42.3692 42.0288 42.3813 41.7972 42.4387 41.5748C42.4961 41.3525 42.5975 41.144 42.7369 40.9618C42.8763 40.7796 43.0509 40.6274 43.2502 40.5142C43.4495 40.401 43.6694 40.3293 43.8969 40.3032C45.1302 40.2031 45.719 40.8497 45.8441 41.8026Z" fill="#E98862"/>
<g opacity="0.15">
<path d="M49.8419 42.8792C49.8087 42.8792 49.7766 42.8674 49.7511 42.846C49.7257 42.8245 49.7087 42.7948 49.7029 42.762C49.6972 42.7292 49.7032 42.6954 49.7198 42.6666C49.7364 42.6378 49.7627 42.6157 49.7939 42.6044L50.6132 42.3071L49.9679 41.0366C49.9583 41.02 49.9523 41.0015 49.95 40.9824C49.9478 40.9633 49.9494 40.944 49.9549 40.9256C49.9603 40.9071 49.9695 40.89 49.9818 40.8752C49.994 40.8605 50.0092 40.8484 50.0262 40.8396C50.0433 40.8309 50.062 40.8258 50.0811 40.8245C50.1002 40.8233 50.1194 40.8259 50.1375 40.8324C50.1556 40.8388 50.1721 40.8488 50.1862 40.8619C50.2003 40.8749 50.2116 40.8907 50.2194 40.9083L50.9376 42.3216C50.9468 42.3395 50.9521 42.3592 50.9531 42.3794C50.9542 42.3995 50.9509 42.4197 50.9435 42.4384C50.9362 42.4572 50.9249 42.4742 50.9105 42.4882C50.896 42.5023 50.8788 42.5131 50.8599 42.5199L49.8905 42.8719C49.8748 42.8771 49.8584 42.8796 49.8419 42.8792Z" fill="black"/>
</g>
<path d="M48.2697 43.9144C48.2697 43.9144 49.7868 43.9994 50.8265 43.5767C50.8265 43.5767 50.8672 44.574 49.6778 44.731C48.4883 44.888 48.2697 43.9144 48.2697 43.9144Z" fill="white"/>
<path d="M59.7448 25.1787L62.747 23.6973C62.747 23.6973 62.6975 19.3567 58.8633 17.4561C57.592 16.8262 56.8599 18.2557 57.1235 18.6708C57.9948 20.0416 58.9882 21.2832 59.1148 22.6747C58.6091 22.2905 57.8866 21.8066 57.7112 22.0284C57.2495 22.611 59.7448 25.1787 59.7448 25.1787Z" fill="#E98862"/>
<path d="M9.95039 114.135C9.77748 114.092 9.25226 113.96 4.2998 112.073L6.40747 106.511C8.50695 107.311 11.0333 108.253 11.4543 108.381C11.426 108.373 11.4049 108.367 11.3871 108.363L9.95039 114.135Z" fill="#E98862"/>
<path d="M0.0463283 118.573C0.00187035 118.726 -0.0105128 118.888 0.00995237 119.046C0.0304175 119.205 0.0832913 119.358 0.165271 119.495C0.247251 119.632 0.356576 119.751 0.486418 119.844C0.61626 119.937 0.763829 120.002 0.919909 120.036C1.13628 120.082 1.36123 120.065 1.56833 119.987C1.77543 119.909 1.95607 119.773 2.08902 119.596L6.26169 113.61C6.34201 113.494 6.39637 113.362 6.42104 113.223C6.44572 113.083 6.44013 112.941 6.40465 112.804C6.04166 111.704 6.04007 110.516 6.40013 109.414C6.71592 108.567 7.26289 107.826 7.97862 107.275C8.04713 107.228 8.10098 107.163 8.13388 107.087C8.16677 107.01 8.17737 106.926 8.16443 106.844C8.15149 106.762 8.11554 106.685 8.06078 106.623C8.00602 106.56 7.93471 106.515 7.85516 106.492L4.61624 105.533C4.5207 105.505 4.42055 105.496 4.32151 105.507C4.22247 105.517 4.12651 105.548 4.03913 105.596C3.95174 105.643 3.87466 105.708 3.81229 105.786C3.74993 105.864 3.70351 105.953 3.6757 106.049L0.0463283 118.573Z" fill="#C1D8ED"/>
<path d="M34.2098 132.833L33.2001 126.967C35.4131 126.584 38.0658 126.105 38.4927 126C38.4644 126.006 38.4433 126.013 38.426 126.018L40.1192 131.722C39.9497 131.773 39.4293 131.928 34.2098 132.833Z" fill="#E98862"/>
<path d="M33.849 140.599C33.8888 140.754 33.96 140.899 34.0583 141.025C34.1565 141.151 34.2796 141.256 34.4199 141.332C34.5602 141.408 34.7146 141.455 34.8736 141.468C35.0326 141.482 35.1927 141.463 35.3439 141.411C35.5534 141.341 35.7385 141.211 35.8771 141.038C36.0158 140.866 36.1023 140.657 36.1265 140.436L36.678 133.154C36.6882 133.013 36.6679 132.872 36.6185 132.739C36.5691 132.607 36.4918 132.487 36.3918 132.387C35.5212 131.626 34.9172 130.604 34.6683 129.473C34.5099 128.583 34.6043 127.665 34.9407 126.826C34.9759 126.751 34.9891 126.667 34.9786 126.585C34.9682 126.502 34.9346 126.425 34.8818 126.361C34.829 126.297 34.7591 126.249 34.6802 126.223C34.6014 126.197 34.517 126.195 34.4367 126.215L31.1627 127.044C31.0661 127.069 30.9753 127.112 30.8955 127.172C30.8157 127.232 30.7484 127.307 30.6976 127.393C30.6467 127.479 30.6132 127.574 30.5991 127.673C30.585 127.771 30.5904 127.872 30.6152 127.969L33.849 140.599Z" fill="#C1D8ED"/>
<path d="M66.3226 122.05L66.2944 121.811C65.5516 115.619 61.4148 85.4354 60.9263 82.2446H39.5349C39.5349 82.2446 31.2116 109.527 30.8895 110.283L10.4411 105.91L7.87463 116.073L33.0508 123.499C34.3871 123.892 35.8187 123.803 37.0957 123.246C38.3727 122.688 39.4141 121.699 40.0381 120.45C40.0381 120.45 49.1782 97.0345 49.3615 96.6035L55.0042 118.97L35.916 124.419L38.7774 134.502L62.5689 127.711C63.7637 127.369 64.7979 126.612 65.4859 125.574C66.1739 124.537 66.4705 123.287 66.3226 122.05Z" fill="#262626"/>
<path d="M20.1653 30.3248L16.9648 31.3032C16.9648 31.3032 14.2598 27.5084 15.7609 23.4919C16.2584 22.1602 17.7669 22.7011 17.8584 23.1845C18.1576 24.7826 18.0604 26.9643 18.9173 28.066C19.0244 27.4387 19.2213 26.59 19.5007 26.6317C20.2353 26.7408 20.1653 30.3248 20.1653 30.3248Z" fill="#E98862"/>
<path d="M70.5194 38.133L63.6765 21.9766L58.0067 24.3924L64.1003 38.779L54.6355 49.7864C53.8299 49.636 53.0072 49.6005 52.1917 49.681C52.0165 49.6952 51.734 49.7264 51.3667 49.766C51.163 49.789 50.9273 49.8165 50.675 49.8462L50.3267 47.9931L41.0261 49.2501L41.2829 51.0286C39.2902 51.3267 37.6363 52.043 36.4909 53.0021L23.2293 45.8199L21.0727 29.0217L14.9628 29.8108L17.321 48.1799C17.3834 48.666 17.5603 49.1303 17.8371 49.5343C18.1138 49.9383 18.4824 50.2705 18.9125 50.5033L34.5118 58.9519C35.165 63.0156 38.3782 67.5551 38.8984 71.6404C39.6499 77.5453 37.3247 80.5318 37.9039 83.5353C38.8193 88.2587 61.7494 84.1813 62.58 81.3252C63.4361 78.3784 60.7605 76.9758 59.7067 67.835C59.2046 63.4857 59.8301 58.1038 58.8667 54.3257L70.0173 41.3583C70.393 40.9214 70.6392 40.3877 70.7279 39.8176C70.8167 39.2475 70.7444 38.664 70.5194 38.133Z" fill="#367CFF"/>
<path d="M285.521 110.437L261.534 114.821C260.824 114.951 260.091 114.876 259.422 114.604C258.752 114.332 258.174 113.875 257.754 113.285L257.574 113.03L246.967 98.1009L256.432 92.6216L263.041 107.148L284.645 104.553L285.521 110.437Z" fill="#E98862"/>
<path d="M289.967 117.007C290.005 117.163 290.01 117.324 289.982 117.482C289.954 117.64 289.895 117.79 289.807 117.923C289.719 118.057 289.604 118.17 289.47 118.257C289.336 118.345 289.186 118.403 289.028 118.429C288.81 118.465 288.586 118.438 288.383 118.351C288.179 118.264 288.005 118.12 287.88 117.937L283.982 111.768C283.907 111.648 283.858 111.513 283.84 111.373C283.821 111.233 283.833 111.091 283.875 110.956C284.287 109.873 284.343 108.686 284.032 107.57C283.755 106.71 283.242 105.945 282.552 105.362C282.486 105.312 282.435 105.245 282.405 105.167C282.376 105.089 282.369 105.005 282.386 104.923C282.402 104.842 282.442 104.767 282.499 104.707C282.557 104.647 282.63 104.605 282.711 104.585L285.99 103.775C286.086 103.751 286.187 103.747 286.285 103.762C286.384 103.777 286.478 103.811 286.563 103.863C286.648 103.915 286.723 103.983 286.781 104.064C286.84 104.144 286.883 104.236 286.906 104.333L289.967 117.007Z" fill="#C1D8ED"/>
<path d="M233.428 117.279L242.12 150.894L236.427 152.571L225.62 119.611L233.428 117.279Z" fill="#E98862"/>
<path d="M230.265 157.465C230.114 157.516 229.954 157.536 229.795 157.522C229.636 157.509 229.481 157.463 229.341 157.387C229.2 157.311 229.077 157.206 228.979 157.08C228.88 156.954 228.809 156.809 228.769 156.655C228.713 156.44 228.72 156.214 228.789 156.003C228.857 155.792 228.984 155.605 229.154 155.464L234.932 151.016C235.044 150.93 235.173 150.87 235.31 150.839C235.448 150.808 235.591 150.807 235.728 150.837C236.84 151.152 238.024 151.1 239.105 150.69C239.934 150.336 240.648 149.755 241.165 149.014C241.208 148.943 241.271 148.886 241.346 148.85C241.42 148.813 241.503 148.799 241.586 148.808C241.668 148.818 241.746 148.85 241.811 148.902C241.875 148.955 241.924 149.024 241.95 149.103L243.049 152.305C243.082 152.399 243.095 152.499 243.089 152.599C243.083 152.698 243.057 152.796 243.013 152.886C242.969 152.975 242.908 153.055 242.833 153.121C242.759 153.187 242.671 153.238 242.577 153.27L230.265 157.465Z" fill="#C1D8ED"/>
<path d="M231.115 73.999C231.115 73.999 223.651 98.1135 221.61 104.997C216.994 120.568 225.62 132.194 225.62 132.194C225.62 132.194 237.289 133.863 243.091 126.11C253.822 111.77 267.555 121.751 268.144 105.858C260.332 104.38 251.57 75.9748 251.57 75.9748L231.115 73.999Z" fill="#262626"/>
<path d="M233.793 16.1468L230.655 14.9828C230.655 14.9828 230.259 10.6601 233.879 8.37432C235.078 7.61665 235.953 8.96311 235.734 9.40315C235.007 10.8567 234.146 12.1941 234.163 13.5913C234.627 13.1569 235.296 12.601 235.493 12.8036C236.012 13.3366 233.793 16.1468 233.793 16.1468Z" fill="#E98862"/>
<path d="M271.869 24.7014L275.209 24.9079C275.209 24.9079 276.96 20.5869 274.571 17.0295C273.78 15.8507 272.436 16.7277 272.46 17.219C272.539 18.8432 273.138 20.9428 272.56 22.2136C272.311 21.6282 271.923 20.849 271.661 20.9544C270.971 21.2318 271.869 24.7014 271.869 24.7014Z" fill="#E98862"/>
<path d="M277.172 24.0242L273.705 42.266C273.622 42.7028 273.446 43.1165 273.189 43.4788C272.932 43.8411 272.6 44.1436 272.216 44.3656L259.058 51.9678C259.228 56.4957 254.744 61.6611 253.925 66.3788C252.908 72.2441 255.097 75.3326 254.383 78.3077C253.255 82.9858 230.532 77.8714 229.831 74.9784C229.107 72.0004 231.845 70.7169 233.309 61.6356C234.007 57.3117 233.625 51.9083 234.758 48.1767L224.203 34.7177C223.893 34.3214 223.684 33.8551 223.594 33.3593C223.504 32.8635 223.537 32.3532 223.689 31.8729L229.562 13.342L235.433 15.2121L230.054 32.1846L239.191 43.8358C240.002 43.7212 240.825 43.7232 241.635 43.8415C241.81 43.8641 242.092 43.9066 242.457 43.9633C242.265 45.5132 251.744 47.1623 252.218 45.6294C253.423 45.8265 254.586 46.2219 255.662 46.7996L267.919 39.7188L271.12 22.8681L277.172 24.0242Z" fill="#367CFF"/>
<path d="M252.219 45.6292C251.744 47.1621 248.628 49.3552 245.243 48.5307C242.706 47.9158 242.265 45.513 242.457 43.9631C244.426 44.2748 248.837 45.037 252.21 45.6264C252.211 45.6262 252.213 45.6263 252.215 45.6268C252.216 45.6273 252.218 45.6281 252.219 45.6292Z" fill="#E98862"/>
<path d="M160.148 195.659L124.66 192L132.539 59.895H152.107L160.148 195.659Z" fill="#F3F5FD"/>
<path d="M232.083 198.161C231.192 198.162 230.303 198.237 229.425 198.385C228.086 193.513 225.69 188.998 222.407 185.163C219.125 181.329 215.038 178.269 210.438 176.205C205.839 174.14 200.841 173.12 195.803 173.219C190.765 173.318 185.811 174.533 181.296 176.777C180.04 172.983 177.683 169.652 174.526 167.212C171.37 164.771 167.558 163.332 163.58 163.08C159.602 162.827 155.64 163.773 152.202 165.795C148.764 167.817 146.007 170.823 144.284 174.428C143.37 170.618 141.202 167.228 138.131 164.805C135.06 162.382 131.265 161.067 127.358 161.071C126.931 161.071 126.51 161.085 126.092 161.116C122.488 161.381 119.055 162.763 116.269 165.072C113.483 167.38 111.481 170.5 110.542 174C106.87 172.651 102.938 172.162 99.0488 172.57C95.1591 172.977 91.4137 174.271 88.0987 176.352C84.7836 178.433 81.9865 181.246 79.921 184.576C77.8555 187.907 76.5761 191.666 76.1807 195.568C73.4499 195.779 70.8241 196.715 68.5733 198.28C66.3226 199.845 64.5279 201.983 63.3736 204.474C61.4678 203.627 59.4106 203.176 57.3262 203.149C55.2419 203.122 53.1736 203.519 51.2465 204.316C49.3193 205.113 47.5732 206.293 46.1137 207.786C44.6542 209.278 43.5115 211.052 42.7546 213H247.961C247.679 208.971 245.883 205.199 242.936 202.445C239.989 199.691 236.111 198.16 232.083 198.161Z" fill="#F3F5FD"/>
<path d="M157.99 127.995H126.163V138.544H157.99V127.995Z" fill="#C1D8ED"/>
<path d="M168.54 75.8433C168.54 93.8245 163.55 118.841 159.937 131.841H124.708C121.095 118.841 116.105 93.8245 116.105 75.8433C116.105 33.9562 142.324 0 142.324 0C142.324 0 168.54 33.9562 168.54 75.8433Z" fill="#9EBCEA"/>
<path d="M142.322 77.9403C150.466 77.9403 157.068 71.319 157.068 63.1513C157.068 54.9836 150.466 48.3623 142.322 48.3623C134.178 48.3623 127.576 54.9836 127.576 63.1513C127.576 71.319 134.178 77.9403 142.322 77.9403Z" fill="white"/>
<path d="M142.322 74.0695C148.335 74.0695 153.209 69.1813 153.209 63.1513C153.209 57.1214 148.335 52.2332 142.322 52.2332C136.31 52.2332 131.435 57.1214 131.435 63.1513C131.435 69.1813 136.31 74.0695 142.322 74.0695Z" fill="#DEE8F5"/>
<path d="M160.264 33.4887H124.38C132.065 13.2861 142.324 0 142.324 0C142.324 0 152.582 13.2861 160.264 33.4887Z" fill="#0CBC8B"/>
<path d="M251.276 46.8217C251.276 46.8217 249.283 45.354 250.631 39.5221L246.287 38.0334C246.287 38.0334 246.013 43.3997 243.508 44.7471L251.276 46.8217Z" fill="#E98862"/>
<g opacity="0.15">
<path d="M244.586 43.7768L248.713 41.4772L245.803 41.0176C245.572 42.0053 245.159 42.9412 244.586 43.7768Z" fill="black"/>
</g>
<path d="M253.5 37.6066C252.928 39.3521 251.705 40.9042 250.046 41.2505C248.228 41.6811 246.334 41.6591 244.527 41.1864C239.696 40.0638 242.298 29.0592 244.936 27.2348C247.574 25.4103 254.185 27.7864 254.483 31.5306C254.637 33.467 254.044 35.9454 253.5 37.6066Z" fill="#E98862"/>
<path d="M241.413 30.8824C241.413 30.8824 243.532 23.1 251.924 26.325C253.273 26.9052 254.403 27.899 255.152 29.1636C255.6 28.51 256.234 28.006 256.97 27.7165C257.706 27.4271 258.512 27.3656 259.284 27.5398C260.056 27.714 260.758 28.1161 261.299 28.6941C261.841 29.2722 262.198 29.9997 262.323 30.7829C262.449 31.566 262.338 32.369 262.004 33.0882C261.67 33.8075 261.13 34.41 260.451 34.8181C259.773 35.2262 258.989 35.4212 258.199 35.378C257.409 35.3348 256.65 35.0553 256.02 34.5755C255.996 34.6889 255.971 34.8005 255.941 34.9155C254.691 39.744 250.261 41.5997 250.261 41.5997C250.261 41.5997 249.289 40.608 250.839 32.7397C248.933 32.6219 244.587 32.2192 241.413 30.8824Z" fill="#0F1011"/>
<path d="M246.768 35.2008C246.994 35.2008 247.178 35.017 247.178 34.7902C247.178 34.5635 246.994 34.3796 246.768 34.3796C246.542 34.3796 246.359 34.5635 246.359 34.7902C246.359 35.017 246.542 35.2008 246.768 35.2008Z" fill="#0F1011"/>
<path d="M243.612 34.4671C243.838 34.4671 244.021 34.2833 244.021 34.0566C244.021 33.8298 243.838 33.646 243.612 33.646C243.385 33.646 243.202 33.8298 243.202 34.0566C243.202 34.2833 243.385 34.4671 243.612 34.4671Z" fill="#0F1011"/>
<path d="M244.14 33.2341C244.131 33.2347 244.122 33.2347 244.114 33.2341L243.04 33.0893C242.989 33.0825 242.944 33.0558 242.913 33.0151C242.882 32.9744 242.868 32.923 242.875 32.8723C242.882 32.8216 242.908 32.7756 242.949 32.7446C242.99 32.7136 243.041 32.7 243.091 32.7068L244.166 32.8516C244.214 32.8585 244.258 32.8834 244.289 32.9212C244.319 32.9589 244.334 33.0069 244.331 33.0554C244.328 33.1039 244.306 33.1494 244.271 33.1828C244.236 33.2162 244.189 33.235 244.141 33.2355L244.14 33.2341Z" fill="#0F1011"/>
<path d="M247.778 34.1853C247.754 34.1853 247.729 34.1806 247.707 34.1715L246.686 33.76C246.639 33.7405 246.602 33.7034 246.583 33.6566C246.563 33.6098 246.562 33.5571 246.581 33.51C246.6 33.4629 246.637 33.4252 246.683 33.4049C246.73 33.3847 246.782 33.3836 246.829 33.4019L247.85 33.8133C247.892 33.83 247.926 33.8607 247.947 33.9C247.969 33.9394 247.976 33.985 247.967 34.029C247.959 34.073 247.935 34.1127 247.901 34.1412C247.866 34.1698 247.823 34.1854 247.778 34.1853Z" fill="#0F1011"/>
<path d="M246.111 37.9617C246.111 37.9617 244.593 37.8996 243.599 37.3777C243.599 37.3777 243.463 38.3666 244.632 38.6383C245.8 38.91 246.111 37.9617 246.111 37.9617Z" fill="white"/>
<path d="M248.73 36.0948C248.626 36.5445 248.704 37.0172 248.948 37.4089C249.191 37.8006 249.58 38.0793 250.028 38.1835C250.477 38.2877 250.948 38.209 251.339 37.9647C251.729 37.7204 252.007 37.3305 252.111 36.8808C252.167 36.6579 252.177 36.4261 252.141 36.1992C252.105 35.9723 252.024 35.7549 251.903 35.56C251.782 35.3651 251.623 35.1967 251.435 35.0648C251.248 34.9329 251.035 34.8402 250.811 34.7923C249.594 34.5718 248.946 35.1583 248.73 36.0948Z" fill="#E98862"/>
<g opacity="0.15">
<path d="M244.64 36.7783C244.674 36.7832 244.708 36.7759 244.736 36.7578C244.765 36.7396 244.786 36.7118 244.796 36.6794C244.806 36.6469 244.804 36.612 244.79 36.581C244.776 36.5499 244.752 36.5248 244.722 36.5102L243.935 36.1353L244.7 34.9334C244.71 34.9177 244.717 34.9001 244.721 34.8816C244.725 34.8631 244.725 34.844 244.721 34.8255C244.717 34.807 244.709 34.7895 244.699 34.774C244.688 34.7584 244.674 34.7452 244.659 34.735C244.643 34.7248 244.625 34.7179 244.606 34.7147C244.588 34.7115 244.569 34.712 244.551 34.7163C244.532 34.7205 244.515 34.7284 244.5 34.7395C244.484 34.7505 244.471 34.7645 244.462 34.7807L243.611 36.1181C243.6 36.135 243.593 36.154 243.59 36.1739C243.587 36.1937 243.589 36.214 243.594 36.2333C243.6 36.2526 243.609 36.2705 243.622 36.2858C243.635 36.3011 243.651 36.3134 243.669 36.3221L244.6 36.7661C244.613 36.7722 244.626 36.7763 244.64 36.7783Z" fill="black"/>
</g>
</svg>
