<svg width="229" height="221" viewBox="0 0 229 221" fill="none" xmlns="http://www.w3.org/2000/svg">
<g clip-path="url(#clip0_22_2108)">
<path d="M195.53 3.29248H156.167V54.5286H195.53V3.29248Z" fill="#F4F4F4"/>
<path d="M195.53 54.5288H196.807V3.29269H195.53V54.5288Z" fill="#F4F4F4"/>
<path opacity="0.05" d="M195.53 54.5288H196.807V3.29269H195.53V54.5288Z" fill="#292A2E"/>
<path opacity="0.05" d="M188.36 12.6257H163.337V45.1954H188.36V12.6257Z" fill="#292A2E"/>
<path opacity="0.03" d="M188.36 12.6257H187.056V45.1954H188.36V12.6257Z" fill="#292A2E"/>
<path d="M227.723 67.1287H195.53V99.6171H227.723V67.1287Z" fill="#F4F4F4"/>
<path opacity="0.05" d="M221.859 73.0469H201.395V93.6989H221.859V73.0469Z" fill="#292A2E"/>
<path d="M227.723 99.6172H229V67.1288H227.723V99.6172Z" fill="#F4F4F4"/>
<path opacity="0.05" d="M227.723 99.6172H229V67.1288H227.723V99.6172Z" fill="#292A2E"/>
<path opacity="0.03" d="M221.859 73.0469H220.555V93.6989H221.859V73.0469Z" fill="#292A2E"/>
<path d="M111.512 0H4.27209V107.24H111.512V0Z" fill="#F4F4F4"/>
<path d="M112.742 0H111.512V107.24H112.742V0Z" fill="#F4F4F4"/>
<path opacity="0.05" d="M112.742 0H111.512V107.24H112.742V0Z" fill="#292A2E"/>
<path opacity="0.05" d="M85.5328 73.8973V45.8398H62.5495V62.1406H26.9484V91.0033H11.8174V107.24H26.9484H29.8634H106.354V73.8973H85.5328Z" fill="#292A2E"/>
<path opacity="0.34" d="M82.2365 48.8862H65.4998V51.9326H82.2365V48.8862Z" fill="#FFFFFA"/>
<path opacity="0.34" d="M82.2365 55.199H65.4998V58.2453H82.2365V55.199Z" fill="#FFFFFA"/>
<path opacity="0.34" d="M82.2365 61.512H65.4998V64.5583H82.2365V61.512Z" fill="#FFFFFA"/>
<path opacity="0.34" d="M103.386 76.8545H100.301V79.9009H103.386V76.8545Z" fill="#FFFFFA"/>
<path opacity="0.34" d="M103.386 83.1672H100.301V86.2136H103.386V83.1672Z" fill="#FFFFFA"/>
<path opacity="0.34" d="M103.386 89.4802H100.301V92.5266H103.386V89.4802Z" fill="#FFFFFA"/>
<path opacity="0.34" d="M97.6789 76.8545H94.5941V79.9009H97.6789V76.8545Z" fill="#FFFFFA"/>
<path opacity="0.34" d="M97.6789 83.1672H94.5941V86.2136H97.6789V83.1672Z" fill="#FFFFFA"/>
<path opacity="0.34" d="M97.6789 89.4802H94.5941V92.5266H97.6789V89.4802Z" fill="#FFFFFA"/>
<path opacity="0.34" d="M92.1263 76.8545H89.0415V79.9009H92.1263V76.8545Z" fill="#FFFFFA"/>
<path opacity="0.34" d="M92.1263 83.1672H89.0415V86.2136H92.1263V83.1672Z" fill="#FFFFFA"/>
<path opacity="0.34" d="M92.1263 89.4802H89.0415V92.5266H92.1263V89.4802Z" fill="#FFFFFA"/>
<path d="M111.512 53.0185H89.9337V0H88.1492V53.0185H29.8634V0H28.0787V53.0185H4.27209V54.8032H28.0787V107.24H29.8634V54.8032H88.1492V107.24H89.9337V54.8032H111.512V53.0185Z" fill="white"/>
<path d="M115.784 107.111H0V110.677H115.784V107.111Z" fill="#F4F4F4"/>
<path opacity="0.1" d="M115.784 107.111H0V110.677H115.784V107.111Z" fill="#292A2E"/>
<path opacity="0.1" d="M117.456 107.111H115.784V110.677H117.456V107.111Z" fill="#292A2E"/>
<path opacity="0.1" d="M117.456 107.111H115.784V110.677H117.456V107.111Z" fill="#292A2E"/>
<path opacity="0.05" d="M172.393 216.159H166.436V220.138H172.393V216.159Z" fill="#292A2E"/>
<path opacity="0.05" d="M209.789 216.159H203.832V220.138H209.789V216.159Z" fill="#292A2E"/>
<path d="M215.25 155.546H160.975V216.16H215.25V155.546Z" fill="#F4F4F4"/>
<path opacity="0.03" d="M215.25 155.546H160.975V216.16H215.25V155.546Z" fill="#292A2E"/>
<path d="M200.836 155.546H146.561V216.16H200.836V155.546Z" fill="#F4F4F4"/>
<path opacity="0.05" d="M157.979 216.159H152.022V220.138H157.979V216.159Z" fill="#292A2E"/>
<path opacity="0.05" d="M195.375 216.159H189.418V220.138H195.375V216.159Z" fill="#292A2E"/>
<path opacity="0.7" d="M197.916 159.293H149.481V174.667H197.916V159.293Z" fill="white"/>
<path opacity="0.7" d="M197.916 178.43H149.481V193.803H197.916V178.43Z" fill="white"/>
<path opacity="0.7" d="M197.916 197.565H149.481V212.939H197.916V197.565Z" fill="white"/>
<path opacity="0.05" d="M173.698 169.131C174.886 169.131 175.849 168.168 175.849 166.98C175.849 165.792 174.886 164.829 173.698 164.829C172.51 164.829 171.547 165.792 171.547 166.98C171.547 168.168 172.51 169.131 173.698 169.131Z" fill="#292A2E"/>
<path opacity="0.05" d="M173.698 188.267C174.886 188.267 175.849 187.304 175.849 186.116C175.849 184.928 174.886 183.965 173.698 183.965C172.51 183.965 171.547 184.928 171.547 186.116C171.547 187.304 172.51 188.267 173.698 188.267Z" fill="#292A2E"/>
<path opacity="0.05" d="M173.698 207.404C174.886 207.404 175.849 206.441 175.849 205.252C175.849 204.064 174.886 203.101 173.698 203.101C172.51 203.101 171.547 204.064 171.547 205.252C171.547 206.441 172.51 207.404 173.698 207.404Z" fill="#292A2E"/>
<path d="M25.5084 190.693C25.4784 190.693 25.4486 190.687 25.4209 190.675C25.3931 190.664 25.3679 190.647 25.3467 190.626C25.0244 190.303 24.4989 184.389 23.0837 166.782C22.5046 159.577 21.9576 152.772 21.5584 148.636C21.53 148.341 21.4154 148.307 21.3779 148.295C20.8314 148.131 19.1698 149.441 18.2421 150.588C18.2039 150.636 18.1486 150.666 18.0882 150.672C18.0278 150.679 17.9674 150.661 17.9202 150.622C17.873 150.584 17.8429 150.529 17.8365 150.469C17.8301 150.408 17.8479 150.348 17.8861 150.301C18.4997 149.542 20.4992 147.553 21.5094 147.857C21.7131 147.918 21.967 148.096 22.0128 148.593C22.4124 152.732 22.9594 159.539 23.5387 166.745C24.3987 177.445 25.3728 189.567 25.6931 190.33C25.7176 190.365 25.7322 190.405 25.7353 190.447C25.7385 190.489 25.7299 190.531 25.7108 190.568C25.6916 190.606 25.6624 190.637 25.6265 190.659C25.5906 190.681 25.5494 190.693 25.5073 190.693H25.5084Z" fill="#494949"/>
<path d="M20.9707 156.226C24.767 153.183 26.0252 148.446 23.7811 145.647C21.5369 142.847 16.6402 143.044 12.8439 146.087C9.04769 149.13 7.78946 153.867 10.0336 156.666C12.2777 159.466 17.1745 159.269 20.9707 156.226Z" fill="#0CBC8B"/>
<path opacity="0.2" d="M20.9707 156.226C24.767 153.183 26.0252 148.446 23.7811 145.647C21.5369 142.847 16.6402 143.044 12.8439 146.087C9.04769 149.13 7.78946 153.867 10.0336 156.666C12.2777 159.466 17.1745 159.269 20.9707 156.226Z" fill="white"/>
<path d="M11.0974 157.378C11.0757 157.378 11.0544 157.372 11.0361 157.36C11.0178 157.348 11.0031 157.332 10.9939 157.312C10.9847 157.292 10.9812 157.271 10.9839 157.249C10.9867 157.228 10.9955 157.207 11.0093 157.19L21.8284 144.144C21.838 144.132 21.8497 144.123 21.863 144.116C21.8763 144.109 21.8909 144.104 21.9058 144.103C21.9208 144.101 21.9359 144.103 21.9503 144.107C21.9646 144.112 21.978 144.119 21.9895 144.129C22.0011 144.138 22.0107 144.15 22.0177 144.163C22.0247 144.177 22.029 144.191 22.0304 144.206C22.0318 144.221 22.0302 144.236 22.0258 144.251C22.0213 144.265 22.0141 144.278 22.0045 144.29L11.1855 157.336C11.1748 157.349 11.1613 157.36 11.1461 157.367C11.1309 157.374 11.1142 157.378 11.0974 157.378Z" fill="white"/>
<path d="M27.8676 187.896C27.842 187.896 27.8166 187.891 27.7925 187.883C27.7352 187.863 27.6882 187.821 27.6618 187.766C27.6353 187.712 27.6317 187.649 27.6516 187.591L31.7156 175.904C31.8352 175.561 32.0391 175.253 32.3086 175.009C32.5781 174.765 32.9045 174.592 33.258 174.507C33.6114 174.421 33.9807 174.426 34.3318 174.52C34.683 174.615 35.0049 174.796 35.268 175.047L37.4167 177.099C37.4606 177.141 37.486 177.199 37.4874 177.259C37.4888 177.32 37.466 177.379 37.4241 177.423C37.3822 177.467 37.3245 177.492 37.2638 177.493C37.2032 177.495 37.1444 177.472 37.1005 177.43L34.9521 175.378C34.7443 175.179 34.4902 175.037 34.213 174.962C33.9357 174.888 33.6442 174.884 33.3652 174.951C33.0861 175.019 32.8284 175.155 32.6157 175.348C32.4029 175.54 32.242 175.783 32.1475 176.055L28.0838 187.742C28.0682 187.787 28.039 187.826 28.0002 187.853C27.9615 187.881 27.9151 187.896 27.8676 187.896Z" fill="#494949"/>
<path d="M43.4188 183.569C46.2322 181.342 46.065 176.445 43.0453 172.63C40.0257 168.815 35.2971 167.528 32.4837 169.754C29.6703 171.981 29.8375 176.879 32.8572 180.694C35.8768 184.509 40.6054 185.796 43.4188 183.569Z" fill="#0CBC8B"/>
<path d="M23.6618 189.947C23.6104 189.947 23.5605 189.93 23.5202 189.898C23.4798 189.866 23.4514 189.822 23.4394 189.772L16.6194 161.256C16.5727 161.062 16.4734 160.884 16.3323 160.742C16.1913 160.601 16.0139 160.501 15.8197 160.454C15.6256 160.406 15.4221 160.414 15.2317 160.474C15.0414 160.535 14.8715 160.647 14.7407 160.798L12.6382 163.228C12.6189 163.251 12.595 163.271 12.5679 163.285C12.5409 163.299 12.5113 163.308 12.4808 163.311C12.4504 163.313 12.4197 163.31 12.3906 163.3C12.3615 163.291 12.3346 163.276 12.3115 163.256C12.2884 163.236 12.2695 163.211 12.256 163.184C12.2425 163.157 12.2346 163.127 12.2328 163.096C12.231 163.066 12.2354 163.035 12.2456 163.006C12.2558 162.978 12.2717 162.951 12.2923 162.929L14.3946 160.499C14.5804 160.284 14.8219 160.125 15.0924 160.038C15.363 159.952 15.6522 159.942 15.9282 160.009C16.2042 160.076 16.4563 160.218 16.6568 160.419C16.8573 160.621 16.9984 160.873 17.0646 161.15L23.8842 189.665C23.8983 189.724 23.8884 189.786 23.8566 189.838C23.8249 189.89 23.7739 189.927 23.7149 189.941C23.6975 189.945 23.6797 189.947 23.6618 189.947Z" fill="#494949"/>
<path d="M21.1455 169.563C21.9745 164.769 19.7804 160.386 16.2448 159.775C12.7092 159.164 9.17099 162.554 8.34194 167.349C7.51289 172.143 9.70699 176.525 13.2426 177.136C16.7782 177.748 20.3164 174.357 21.1455 169.563Z" fill="#0CBC8B"/>
<path d="M25.5085 190.692C25.4991 190.692 25.4897 190.692 25.4804 190.691C25.4506 190.687 25.4217 190.678 25.3956 190.663C25.3694 190.648 25.3464 190.628 25.3279 190.605C25.3094 190.581 25.2957 190.554 25.2877 190.525C25.2797 190.496 25.2775 190.466 25.2811 190.436L29.6361 155.077C29.6836 154.691 29.8413 154.328 30.0903 154.03C30.3393 153.733 30.669 153.513 31.0397 153.399C31.4104 153.284 31.8063 153.278 32.18 153.383C32.5537 153.488 32.8891 153.699 33.146 153.989L38.1237 159.627C38.1436 159.65 38.1588 159.676 38.1686 159.704C38.1783 159.733 38.1824 159.763 38.1805 159.793C38.1787 159.823 38.1709 159.852 38.1577 159.879C38.1445 159.906 38.1261 159.93 38.1036 159.95C38.081 159.97 38.0548 159.985 38.0264 159.995C37.9979 160.005 37.9679 160.009 37.9379 160.007C37.9079 160.005 37.8785 159.997 37.8515 159.984C37.8245 159.971 37.8004 159.953 37.7805 159.93L32.8028 154.292C32.6043 154.067 32.3451 153.905 32.0563 153.824C31.7675 153.743 31.4614 153.747 31.1749 153.836C30.8884 153.924 30.6336 154.094 30.4412 154.324C30.2487 154.554 30.1269 154.835 30.0902 155.133L25.7353 190.492C25.7285 190.547 25.7017 190.598 25.6599 190.635C25.6182 190.672 25.5643 190.692 25.5085 190.692Z" fill="#494949"/>
<path d="M43.2285 162.76C44.9652 159.62 42.9218 155.166 38.6644 152.811C34.407 150.456 29.5478 151.092 27.811 154.232C26.0743 157.372 28.1177 161.826 32.3751 164.181C36.6325 166.536 41.4917 165.9 43.2285 162.76Z" fill="#0CBC8B"/>
<path opacity="0.2" d="M43.4188 183.569C46.2322 181.342 46.065 176.445 43.0453 172.63C40.0257 168.815 35.2971 167.528 32.4837 169.754C29.6703 171.981 29.8375 176.879 32.8572 180.694C35.8768 184.509 40.6054 185.796 43.4188 183.569Z" fill="white"/>
<path opacity="0.5" d="M21.1455 169.563C21.9745 164.769 19.7804 160.386 16.2448 159.775C12.7092 159.164 9.17099 162.554 8.34194 167.349C7.51289 172.143 9.70699 176.525 13.2426 177.136C16.7782 177.748 20.3164 174.357 21.1455 169.563Z" fill="white"/>
<path opacity="0.5" d="M43.2285 162.76C44.9652 159.62 42.9218 155.166 38.6644 152.811C34.407 150.456 29.5478 151.092 27.811 154.232C26.0743 157.372 28.1177 161.826 32.3751 164.181C36.6325 166.536 41.4917 165.9 43.2285 162.76Z" fill="white"/>
<path d="M31.0782 220.694H19.9378L18.0916 185.05H32.9242L31.0782 220.694Z" fill="#292A2E"/>
<path opacity="0.3" d="M31.0782 220.694H19.9378L18.0916 185.05H32.9242L31.0782 220.694Z" fill="white"/>
<path d="M43.4196 183.684C43.4024 183.684 43.3853 183.68 43.3698 183.672C43.3543 183.665 43.3406 183.654 43.3299 183.64L32.3945 169.826C32.3851 169.814 32.3782 169.8 32.3741 169.786C32.37 169.771 32.3688 169.756 32.3705 169.741C32.3722 169.726 32.3769 169.712 32.3842 169.699C32.3915 169.686 32.4013 169.674 32.4131 169.665C32.4249 169.656 32.4384 169.649 32.4528 169.645C32.4673 169.64 32.4824 169.639 32.4973 169.641C32.5123 169.643 32.5267 169.647 32.5398 169.655C32.553 169.662 32.5645 169.672 32.5738 169.684L43.5093 183.498C43.5227 183.515 43.5311 183.535 43.5334 183.557C43.5358 183.578 43.5321 183.6 43.5227 183.619C43.5134 183.639 43.4987 183.655 43.4805 183.666C43.4622 183.678 43.4411 183.684 43.4196 183.684Z" fill="white"/>
<path d="M42.5015 163.867C42.4772 163.867 42.4535 163.859 42.434 163.844L28.4408 153.627C28.4162 153.609 28.3998 153.582 28.3952 153.552C28.3905 153.522 28.3979 153.491 28.4158 153.467C28.4337 153.442 28.4606 153.426 28.4906 153.421C28.5206 153.417 28.5512 153.424 28.5757 153.442L42.569 163.66C42.5882 163.674 42.6024 163.694 42.6096 163.717C42.6167 163.74 42.6165 163.765 42.6089 163.787C42.6013 163.81 42.5867 163.83 42.5673 163.844C42.5478 163.858 42.5244 163.866 42.5004 163.866L42.5015 163.867Z" fill="white"/>
<path d="M12.6742 176.987C12.6642 176.987 12.6543 176.986 12.6446 176.983C12.6156 176.975 12.5908 176.956 12.5758 176.93C12.5608 176.904 12.5566 176.873 12.5643 176.843L17.0188 160.153C17.0225 160.139 17.0291 160.125 17.0382 160.113C17.0472 160.1 17.0587 160.09 17.0717 160.083C17.0848 160.075 17.0993 160.07 17.1143 160.068C17.1294 160.066 17.1447 160.067 17.1593 160.071C17.174 160.074 17.1878 160.081 17.1998 160.091C17.2118 160.1 17.2218 160.111 17.2293 160.125C17.2368 160.138 17.2416 160.152 17.2434 160.167C17.2452 160.183 17.244 160.198 17.2398 160.212L12.7853 176.902C12.7788 176.926 12.7644 176.948 12.7442 176.963C12.7241 176.979 12.6995 176.987 12.6742 176.987Z" fill="white"/>
<path d="M169.788 12.5913H38.3135C34.523 12.5913 31.4502 15.6641 31.4502 19.4546V164.493C31.4502 168.283 34.523 171.356 38.3135 171.356H169.788C173.578 171.356 176.651 168.283 176.651 164.493V19.4546C176.651 15.6641 173.578 12.5913 169.788 12.5913Z" fill="white"/>
<path d="M169.658 171.391H38.1826C36.3024 171.388 34.4997 170.64 33.1702 169.311C31.8407 167.981 31.0928 166.179 31.0906 164.298V19.2605C31.0928 17.3802 31.8407 15.5776 33.1702 14.2481C34.4997 12.9185 36.3024 12.1706 38.1826 12.1685H169.658C171.538 12.1706 173.341 12.9185 174.671 14.248C176 15.5776 176.748 17.3802 176.75 19.2605V164.298C176.748 166.179 176 167.981 174.671 169.311C173.341 170.641 171.538 171.388 169.658 171.391ZM38.1826 12.626C36.4237 12.6281 34.7374 13.3277 33.4936 14.5715C32.2498 15.8152 31.5502 17.5016 31.5481 19.2605V164.298C31.5501 166.057 32.2498 167.744 33.4935 168.988C34.7373 170.231 36.4237 170.931 38.1826 170.933H169.658C171.417 170.931 173.103 170.231 174.347 168.988C175.591 167.744 176.291 166.057 176.293 164.298V19.2605C176.291 17.5016 175.591 15.8152 174.347 14.5715C173.103 13.3277 171.417 12.6281 169.658 12.626H38.1826Z" fill="#292A2E"/>
<path d="M176.521 19.2595V24.5644H31.3209V19.2595C31.3209 17.4393 32.044 15.6936 33.3311 14.4064C34.6182 13.1193 36.3639 12.3962 38.1842 12.3962H169.658C171.478 12.3962 173.224 13.1193 174.511 14.4064C175.798 15.6936 176.521 17.4393 176.521 19.2595Z" fill="#292A2E"/>
<path opacity="0.1" d="M55.5309 66.697C64.798 66.697 72.3104 59.1846 72.3104 49.9175C72.3104 40.6504 64.798 33.1379 55.5309 33.1379C46.2638 33.1379 38.7513 40.6504 38.7513 49.9175C38.7513 59.1846 46.2638 66.697 55.5309 66.697Z" fill="#367CFF"/>
<path opacity="0.2" d="M55.5309 49.1954C58.7497 49.1954 61.359 46.5861 61.359 43.3674C61.359 40.1486 58.7497 37.5393 55.5309 37.5393C52.3122 37.5393 49.7029 40.1486 49.7029 43.3674C49.7029 46.5861 52.3122 49.1954 55.5309 49.1954Z" fill="#367CFF"/>
<path opacity="0.2" d="M68.1454 60.9823C66.5706 62.7779 64.6305 64.2165 62.455 65.2021C60.2794 66.1876 57.9185 66.6973 55.5302 66.6971C53.1418 66.6969 50.781 66.1868 48.6057 65.2008C46.4303 64.2149 44.4905 62.7759 42.916 60.98C43.7226 58.2601 45.3867 55.8738 47.6601 54.1769C49.9336 52.4799 52.6946 51.5632 55.5316 51.5635C58.3685 51.5637 61.1294 52.4809 63.4025 54.1783C65.6756 55.8756 67.3393 58.2623 68.1454 60.9823Z" fill="#367CFF"/>
<path opacity="0.2" d="M63.4564 78.1438H40.7129C39.8922 78.1438 39.2268 78.8092 39.2268 79.6299C39.2268 80.4507 39.8922 81.1161 40.7129 81.1161H63.4564C64.2772 81.1161 64.9426 80.4507 64.9426 79.6299C64.9426 78.8092 64.2772 78.1438 63.4564 78.1438Z" fill="#367CFF"/>
<path opacity="0.1" d="M117.498 34.2649H81.749C80.4142 34.2649 79.332 35.347 79.332 36.6819V41.6951C79.332 43.0299 80.4142 44.1121 81.749 44.1121H117.498C118.833 44.1121 119.915 43.0299 119.915 41.6951V36.6819C119.915 35.347 118.833 34.2649 117.498 34.2649Z" fill="#367CFF"/>
<path opacity="0.2" d="M134.059 49.5562H80.4759C79.8442 49.5562 79.332 50.0683 79.332 50.7C79.332 51.3318 79.8442 51.8439 80.4759 51.8439H134.059C134.69 51.8439 135.202 51.3318 135.202 50.7C135.202 50.0683 134.69 49.5562 134.059 49.5562Z" fill="#367CFF"/>
<path opacity="0.2" d="M134.059 56.4194H80.4759C79.8442 56.4194 79.332 56.9316 79.332 57.5633C79.332 58.1951 79.8442 58.7072 80.4759 58.7072H134.059C134.69 58.7072 135.202 58.1951 135.202 57.5633C135.202 56.9316 134.69 56.4194 134.059 56.4194Z" fill="#367CFF"/>
<path opacity="0.2" d="M124.908 63.2827H80.4759C79.8442 63.2827 79.332 63.7948 79.332 64.4266C79.332 65.0583 79.8442 65.5705 80.4759 65.5705H124.908C125.539 65.5705 126.051 65.0583 126.051 64.4266C126.051 63.7948 125.539 63.2827 124.908 63.2827Z" fill="#367CFF"/>
<path opacity="0.1" d="M97.2322 85.4033H41.3752C40.1887 85.4033 39.2268 86.3652 39.2268 87.5517V92.8598C39.2268 94.0463 40.1887 95.0082 41.3752 95.0082H97.2322C98.4187 95.0082 99.3806 94.0463 99.3806 92.8598V87.5517C99.3806 86.3652 98.4187 85.4033 97.2322 85.4033Z" fill="#367CFF"/>
<path opacity="0.2" d="M131.942 78.1438H109.198C108.378 78.1438 107.712 78.8092 107.712 79.6299C107.712 80.4507 108.378 81.1161 109.198 81.1161H131.942C132.763 81.1161 133.428 80.4507 133.428 79.6299C133.428 78.8092 132.763 78.1438 131.942 78.1438Z" fill="#367CFF"/>
<path opacity="0.1" d="M165.718 85.4033H109.861C108.674 85.4033 107.712 86.3652 107.712 87.5517V92.8598C107.712 94.0463 108.674 95.0082 109.861 95.0082H165.718C166.904 95.0082 167.866 94.0463 167.866 92.8598V87.5517C167.866 86.3652 166.904 85.4033 165.718 85.4033Z" fill="#367CFF"/>
<path opacity="0.2" d="M63.4564 102.949H40.7129C39.8922 102.949 39.2268 103.615 39.2268 104.435C39.2268 105.256 39.8922 105.921 40.7129 105.921H63.4564C64.2772 105.921 64.9426 105.256 64.9426 104.435C64.9426 103.615 64.2772 102.949 63.4564 102.949Z" fill="#367CFF"/>
<path opacity="0.1" d="M97.2322 110.209H41.3752C40.1887 110.209 39.2268 111.171 39.2268 112.357V117.665C39.2268 118.852 40.1887 119.814 41.3752 119.814H97.2322C98.4187 119.814 99.3806 118.852 99.3806 117.665V112.357C99.3806 111.171 98.4187 110.209 97.2322 110.209Z" fill="#367CFF"/>
<path opacity="0.2" d="M131.942 102.949H109.198C108.378 102.949 107.712 103.615 107.712 104.435C107.712 105.256 108.378 105.921 109.198 105.921H131.942C132.763 105.921 133.428 105.256 133.428 104.435C133.428 103.615 132.763 102.949 131.942 102.949Z" fill="#367CFF"/>
<path opacity="0.1" d="M165.718 110.209H109.861C108.674 110.209 107.712 111.171 107.712 112.357V117.665C107.712 118.852 108.674 119.814 109.861 119.814H165.718C166.904 119.814 167.866 118.852 167.866 117.665V112.357C167.866 111.171 166.904 110.209 165.718 110.209Z" fill="#367CFF"/>
<path opacity="0.2" d="M63.4564 127.754H40.7129C39.8922 127.754 39.2268 128.42 39.2268 129.241C39.2268 130.061 39.8922 130.727 40.7129 130.727H63.4564C64.2772 130.727 64.9426 130.061 64.9426 129.241C64.9426 128.42 64.2772 127.754 63.4564 127.754Z" fill="#367CFF"/>
<path opacity="0.1" d="M97.2322 135.014H41.3752C40.1887 135.014 39.2268 135.976 39.2268 137.162V142.47C39.2268 143.657 40.1887 144.619 41.3752 144.619H97.2322C98.4187 144.619 99.3806 143.657 99.3806 142.47V137.162C99.3806 135.976 98.4187 135.014 97.2322 135.014Z" fill="#367CFF"/>
<path opacity="0.2" d="M131.942 127.754H109.198C108.378 127.754 107.712 128.42 107.712 129.241C107.712 130.061 108.378 130.727 109.198 130.727H131.942C132.763 130.727 133.428 130.061 133.428 129.241C133.428 128.42 132.763 127.754 131.942 127.754Z" fill="#367CFF"/>
<path opacity="0.1" d="M165.718 135.014H109.861C108.674 135.014 107.712 135.976 107.712 137.162V142.47C107.712 143.657 108.674 144.619 109.861 144.619H165.718C166.904 144.619 167.866 143.657 167.866 142.47V137.162C167.866 135.976 166.904 135.014 165.718 135.014Z" fill="#367CFF"/>
<path opacity="0.2" d="M121.378 152.102H86.4637C85.0549 152.102 83.9128 153.244 83.9128 154.653V159.362C83.9128 160.771 85.0549 161.913 86.4637 161.913H121.378C122.787 161.913 123.929 160.771 123.929 159.362V154.653C123.929 153.244 122.787 152.102 121.378 152.102Z" fill="#367CFF"/>
<path d="M110.011 41.0166L113.709 45.3831L113.48 44.6334C113.411 44.3899 113.436 44.1293 113.552 43.9042C113.668 43.6791 113.865 43.5063 114.103 43.4208C114.227 43.381 114.359 43.3669 114.489 43.3795C114.619 43.392 114.745 43.4309 114.86 43.4939C114.974 43.5568 115.075 43.6424 115.155 43.7454C115.235 43.8485 115.294 43.9668 115.327 44.0932L117.017 50.4575C117.231 51.2609 117.122 52.1159 116.714 52.84C116.305 53.5641 115.63 54.1001 114.833 54.3337C113.907 54.6048 112.92 54.5931 112.001 54.3002C111.081 54.0072 110.27 53.4464 109.672 52.6895L106.965 49.2553C106.821 49.0796 106.742 48.8596 106.742 48.6323C106.741 48.4051 106.819 48.1847 106.963 48.0085C107.096 47.8519 107.275 47.7418 107.475 47.6945C107.675 47.6472 107.885 47.665 108.074 47.7454C108.077 47.7303 108.085 47.7165 108.096 47.7056C108.108 47.6959 108.121 47.6891 108.135 47.6859C108.149 47.6826 108.164 47.6829 108.179 47.6868L107.677 47.0531C107.524 46.8674 107.442 46.6323 107.449 46.3914C107.455 46.1504 107.548 45.9198 107.711 45.7422C107.878 45.5718 108.102 45.4694 108.34 45.4549C108.578 45.4404 108.813 45.515 109 45.664C109.001 45.6539 109.004 45.6441 109.009 45.6352L108.803 45.3753C108.669 45.1973 108.595 44.9807 108.593 44.7577C108.592 44.5347 108.662 44.317 108.793 44.1369C108.954 43.9431 109.184 43.8199 109.435 43.7937C109.685 43.7676 109.936 43.8406 110.133 43.9971L110.146 43.9841L108.593 42.1495C108.513 42.0555 108.454 41.9461 108.418 41.8282C108.382 41.7103 108.37 41.5863 108.383 41.4638C108.397 41.3413 108.435 41.2228 108.496 41.1155C108.557 41.0083 108.639 40.9145 108.737 40.84C108.932 40.7024 109.172 40.6441 109.409 40.6769C109.646 40.7097 109.861 40.8311 110.011 41.0166Z" fill="#E98862"/>
<path opacity="0.2" d="M110.096 44.1C110.099 44.1099 110.105 44.119 110.112 44.127L111.642 45.8922C111.65 45.9012 111.66 45.9086 111.67 45.914C111.681 45.9193 111.693 45.9226 111.704 45.9234C111.716 45.9243 111.728 45.9229 111.739 45.9191C111.751 45.9154 111.761 45.9095 111.77 45.9017C111.779 45.894 111.787 45.8845 111.792 45.8739C111.797 45.8632 111.801 45.8517 111.801 45.8398C111.802 45.8279 111.801 45.816 111.797 45.8047C111.793 45.7934 111.788 45.783 111.78 45.774L110.25 44.0094C110.236 43.9946 110.217 43.9851 110.197 43.9825C110.176 43.9798 110.155 43.9841 110.138 43.9947C110.12 44.0053 110.106 44.0215 110.099 44.0408C110.092 44.0601 110.091 44.0813 110.098 44.1009L110.096 44.1Z" fill="#0C0C0C"/>
<path opacity="0.2" d="M109.002 45.7063C109.006 45.7159 109.011 45.7248 109.017 45.7326L110.209 47.1281C110.225 47.1448 110.247 47.1548 110.27 47.156C110.293 47.1572 110.315 47.1495 110.333 47.1345C110.35 47.1195 110.362 47.0983 110.364 47.0754C110.367 47.0524 110.36 47.0294 110.346 47.011L109.155 45.6155C109.141 45.5991 109.122 45.5882 109.101 45.5847C109.079 45.5812 109.058 45.5853 109.039 45.5963C109.021 45.6073 109.007 45.6245 109 45.6447C108.993 45.665 108.994 45.6871 109.002 45.707L109.002 45.7063Z" fill="#0C0C0C"/>
<path opacity="0.2" d="M108.072 47.806C108.076 47.8164 108.082 47.8259 108.089 47.8342L108.668 48.4802C108.676 48.4891 108.686 48.4962 108.697 48.5014C108.707 48.5065 108.719 48.5095 108.731 48.5102C108.742 48.5108 108.754 48.5091 108.766 48.5052C108.777 48.5013 108.787 48.4952 108.796 48.4873C108.805 48.4794 108.812 48.4699 108.817 48.4592C108.822 48.4485 108.825 48.4369 108.826 48.4251C108.826 48.4132 108.825 48.4014 108.821 48.3902C108.817 48.379 108.811 48.3687 108.803 48.3599L108.225 47.7136C108.211 47.6982 108.192 47.6882 108.171 47.6852C108.15 47.6823 108.129 47.6865 108.112 47.6973C108.094 47.7081 108.08 47.7247 108.073 47.7444C108.066 47.764 108.066 47.7855 108.073 47.8051L108.072 47.806Z" fill="#0C0C0C"/>
<path d="M154.793 84.8111L122.516 82.5521C121.351 82.4707 120.234 82.0609 119.292 81.3703C118.351 80.6797 117.625 79.7365 117.198 78.6501L106.993 52.6894L118.49 48.1697L127.268 70.5007L155.654 72.4874L154.793 84.8111Z" fill="#367CFF"/>
<path d="M173.534 210.292C173.534 210.292 172.501 215.645 167.488 215.945C162.475 216.244 163.562 220.237 163.562 220.237H182.719V210.665L173.534 210.292Z" fill="#367CFF"/>
<path d="M179.443 112.621C179.443 112.621 179.383 111.011 179.396 114.663C179.443 128.281 179.679 143.837 180.257 152.94C181.185 167.573 183.565 213.709 183.565 213.709L170.976 213.604L158.775 112.068L179.443 112.621Z" fill="#262626"/>
<path d="M151.123 210.292C151.123 210.292 150.09 215.645 145.077 215.945C140.064 216.244 141.151 220.237 141.151 220.237H160.308V210.665L151.123 210.292Z" fill="#367CFF"/>
<path d="M145.028 113.679C145.028 113.679 143.913 160.224 144.076 162.499L148.758 213.356L161.138 213.585L159.932 160.659C159.932 160.659 160.783 146.059 164.31 132.503C166.115 125.545 167.201 118.42 167.552 111.241L145.028 113.679Z" fill="#262626"/>
<path d="M179.58 112.62L179.621 112.622C179.621 112.622 179.591 111.828 179.58 112.62Z" fill="#333333"/>
<path d="M143.256 87.8425C143.515 90.8925 144.778 109.922 145.028 113.678H179.429C179.623 110.29 180.496 95.4735 181.233 88.8475C181.936 82.5246 183.316 79.3588 182.305 77.4897C180.651 74.4346 176.134 72.6692 173.054 72.2521C171.173 71.9975 168.344 71.8149 168.344 71.8149C168.344 71.8149 168.104 76.6606 162.393 76.9304C154.618 77.2964 155.137 71.8149 155.099 71.8149C153.839 71.8149 146.504 72.4072 144.883 73.6557C142.047 75.8391 142.704 81.3789 143.256 87.8425Z" fill="#367CFF"/>
<path d="M142.781 84.0206C142.751 84.0206 142.723 84.0095 142.702 83.9894C142.681 83.9694 142.668 83.942 142.666 83.9128L142.39 79.0694C142.388 79.0391 142.399 79.0094 142.419 78.9867C142.439 78.9641 142.467 78.9504 142.497 78.9486C142.528 78.9472 142.557 78.9577 142.58 78.9779C142.602 78.998 142.616 79.0262 142.618 79.0564L142.896 83.8995C142.898 83.9298 142.887 83.9595 142.867 83.9822C142.847 84.0048 142.819 84.0186 142.788 84.0203L142.781 84.0206Z" fill="#0C0C0C"/>
<path d="M186.867 113.479C187.878 113.479 188.875 113.234 189.772 112.766C190.669 112.298 191.44 111.62 192.018 110.79C192.597 109.96 192.966 109.002 193.095 107.998C193.224 106.995 193.109 105.975 192.759 105.026C192.403 104.062 184.071 81.9979 182.485 77.9099L170.74 82.6684C171.632 84.9672 174.863 93.6799 177.459 100.698L173.146 100.23L171.789 112.718L186.187 113.442C186.413 113.467 186.64 113.479 186.867 113.479Z" fill="#367CFF"/>
<path d="M151.001 71.3971C151.039 71.392 152.094 75.3631 160.33 74.7452C166.031 74.3181 167.422 70.4374 167.552 70.4374C166.937 70.3067 165.939 70.1711 165.666 70.0256C164.768 69.5433 164.114 68.956 163.785 67.6959C163.527 66.7104 163.396 62.9166 163.396 61.0132L154.623 62.9845C154.745 65.1318 155.601 70.1093 152.601 70.9903C152.103 71.1358 151.565 71.2699 151.001 71.3971Z" fill="#E98862"/>
<path d="M154.927 67.2057C158.386 67.4787 162.828 66.0184 163.672 61.4042L164.433 57.2405C165.277 52.6263 163.538 48.4425 159.194 47.6479C154.85 46.8534 150.919 50 150.075 54.6142L149.738 56.4574C149.413 58.2281 148.756 66.7189 154.927 67.2057Z" fill="#E98862"/>
<path d="M151.72 62.9692C152.341 59.8501 152.626 57.7689 152.592 55.5734C151.718 54.0406 151.948 52.279 152.147 51.5185C151.545 51.9011 150.837 52.0827 150.125 52.0372C150.125 52.0372 151.571 46.2336 156.485 44.672C157.388 44.3201 159.696 43.8758 162.76 44.2961C165.366 44.6534 171.79 46.6021 172.708 53.8344V53.8385C172.738 54.0783 173.355 60.7418 174.584 63.939C176.237 68.237 178.558 69.5724 178.499 74.5313C178.423 80.9098 166.697 81.7588 159.625 81.2818C152.553 80.8048 148.604 78.4788 148.552 73.882C148.498 68.7316 150.478 69.21 151.72 62.9692Z" fill="#0A0A0A"/>
<path d="M180.164 88.9758L179.319 113.676L179.547 113.683L180.393 88.9836L180.164 88.9758Z" fill="#0C0C0C"/>
<path d="M13.8377 220.695H216.33C216.353 220.695 216.375 220.692 216.397 220.684C216.418 220.675 216.437 220.663 216.453 220.647C216.47 220.632 216.483 220.613 216.491 220.592C216.5 220.571 216.505 220.549 216.505 220.526C216.505 220.503 216.5 220.481 216.491 220.46C216.483 220.439 216.47 220.42 216.453 220.405C216.437 220.389 216.418 220.377 216.397 220.369C216.375 220.36 216.353 220.357 216.33 220.358H13.8377C13.815 220.357 13.7924 220.36 13.7713 220.369C13.7501 220.377 13.7308 220.389 13.7144 220.405C13.6981 220.42 13.6851 220.439 13.6763 220.46C13.6674 220.481 13.6628 220.503 13.6628 220.526C13.6628 220.549 13.6674 220.571 13.6763 220.592C13.6851 220.613 13.6981 220.632 13.7144 220.647C13.7308 220.663 13.7501 220.675 13.7713 220.684C13.7924 220.692 13.815 220.695 13.8377 220.695Z" fill="#292A2E"/>
<path d="M165.227 128.681C165.227 128.681 164.705 138.564 164.61 140.884C164.386 146.25 164.308 151.806 164.308 158.105L162.324 141.592C162.324 141.592 163.775 136.416 165.227 128.681Z" fill="#0A0A0A"/>
</g>
<defs>
<clipPath id="clip0_22_2108">
<rect width="229" height="220.695" fill="white"/>
</clipPath>
</defs>
</svg>
