<svg width="299" height="193" viewBox="0 0 299 193" fill="none" xmlns="http://www.w3.org/2000/svg">
<path d="M193.42 192.595C195.782 192.595 198.12 192.117 200.293 191.189C202.465 190.261 204.427 188.902 206.06 187.195C207.693 185.488 208.963 183.468 209.794 181.257C210.626 179.045 211 176.689 210.896 174.328C210.32 161.312 202.048 142.657 179.499 125.809C148.214 102.433 168.841 49.0546 127.773 43.4819C60.2694 34.3204 73.0396 94.2354 31.3579 116.079C4.82586 129.984 0.00175078 157.191 0 175.13C0.00427017 179.766 1.84936 184.21 5.12954 187.485C8.40972 190.76 12.8564 192.598 17.4917 192.595H193.42Z" fill="#F3F5FD"/>
<path d="M174.333 190.735C180.136 188.937 185.766 186.586 190.895 180.008C191.948 178.66 192.937 176.934 192.36 175.32C191.926 174.106 190.67 173.329 189.394 173.13C188.919 173.061 188.437 173.048 187.958 173.091C187.956 173.091 187.954 173.091 187.953 173.091C187.217 173.166 186.491 173.309 185.782 173.517L185.579 173.574C182.193 174.537 178.968 175.993 176.007 177.897C175.739 178.069 175.42 178.144 175.104 178.111C174.787 178.078 174.491 177.94 174.264 177.717C174.036 177.495 173.89 177.202 173.85 176.886C173.81 176.57 173.878 176.25 174.043 175.978C174.346 175.485 174.698 175.024 175.094 174.602C175.677 173.992 176.316 173.438 177.003 172.947C177.915 172.281 178.888 171.686 179.841 171.079C183.382 168.824 186.737 166.289 189.874 163.498C192.112 161.504 194.301 159.29 195.365 156.487C195.856 155.197 196.077 153.711 195.494 152.46C194.531 150.408 191.806 149.834 189.576 150.26C185.67 151.008 182.55 153.871 179.783 156.725C177.489 159.096 174.918 161.721 171.621 161.867C171.059 161.92 170.494 161.806 169.996 161.541C169.056 160.972 168.814 159.65 169.149 158.604C169.484 157.558 170.26 156.719 171.009 155.915C175.36 151.247 179.642 146.391 182.467 140.67C185.293 134.95 186.545 128.197 184.581 122.124C184.006 120.348 183.14 118.622 181.791 117.331C180.442 116.039 178.55 115.232 176.697 115.479C174.174 115.812 172.273 117.942 170.994 120.14C166.599 127.686 166.868 136.932 165.63 145.576C165.283 147.996 164.779 150.478 163.338 152.469C163.205 152.661 163.033 152.822 162.833 152.941C161.647 153.628 160.582 152.243 160.137 151.067C158.378 146.418 157.939 141.101 154.791 137.252C153.59 135.787 151.89 134.563 149.996 134.575C147.683 134.59 145.702 136.523 145.027 138.736C144.352 140.949 144.756 143.353 145.479 145.55C146.822 149.625 149.228 153.284 152.062 156.503C153.558 158.201 155.249 159.918 155.696 162.134C155.833 162.887 155.776 163.663 155.529 164.388C155.282 165.112 154.854 165.762 154.286 166.275C154.02 166.506 153.711 166.682 153.376 166.791C153.041 166.901 152.687 166.942 152.336 166.912C151.582 166.787 150.864 166.503 150.228 166.079C149.95 165.921 149.671 165.76 149.391 165.603C148.285 164.973 147.179 164.342 146.074 163.712C143.262 162.108 139.867 160.469 136.939 161.851C135.443 162.556 134.465 163.945 134.005 165.538C133.593 166.984 133.593 168.516 134.005 169.962C134.877 172.969 140.375 181.336 142.643 183.494C145.292 186.016 154.476 196.889 174.333 190.735Z" fill="#C1D8ED"/>
<path d="M50.5129 96.032C57.4986 126.807 63.8242 157.788 68.816 188.952L61.7989 190.396C54.0845 159.792 47.6672 128.829 41.9387 97.7957L50.5129 96.032Z" fill="#E98862"/>
<path d="M36.0732 97.9385C36.7147 128.511 36.6684 159.153 35.278 189.705H28.1141C26.7243 159.154 26.6785 128.511 27.3192 97.9385H36.0732Z" fill="#E98862"/>
<path d="M44.5466 192.53C44.7443 192.529 44.9397 192.487 45.1206 192.407C45.3015 192.328 45.464 192.211 45.5979 192.066C45.7319 191.92 45.8344 191.749 45.899 191.562C45.9637 191.375 45.9892 191.177 45.9738 190.98C45.9525 190.706 45.8536 190.445 45.6886 190.226C45.5237 190.007 45.2996 189.84 45.0427 189.744L36.4842 186.877C36.3184 186.822 36.1426 186.804 35.969 186.823C35.7953 186.843 35.6279 186.899 35.4782 186.989C34.3017 187.806 32.8943 188.223 31.463 188.18C30.348 188.101 29.2778 187.71 28.3742 187.052C28.2948 186.987 28.1986 186.945 28.0966 186.933C27.9947 186.92 27.8913 186.937 27.7985 186.981C27.7057 187.025 27.6274 187.095 27.5727 187.182C27.5179 187.269 27.489 187.369 27.4894 187.472V191.657C27.4894 191.78 27.5138 191.903 27.5611 192.017C27.6085 192.131 27.6779 192.234 27.7654 192.321C27.8529 192.409 27.9567 192.478 28.0709 192.524C28.1851 192.571 28.3075 192.595 28.431 192.595L44.5466 192.53Z" fill="#C1D8ED"/>
<path d="M77.3679 192.53C77.5656 192.529 77.7611 192.487 77.942 192.408C78.1229 192.328 78.2854 192.211 78.4193 192.066C78.5533 191.92 78.6558 191.749 78.7204 191.562C78.7851 191.375 78.8105 191.177 78.7951 190.98C78.7738 190.707 78.6749 190.445 78.51 190.226C78.3451 190.007 78.1211 189.84 77.8644 189.744L69.3055 186.877C69.1397 186.822 68.964 186.804 68.7904 186.823C68.6168 186.843 68.4495 186.899 68.2998 186.989C67.1232 187.806 65.7157 188.223 64.2843 188.18C63.1694 188.101 62.0993 187.71 61.1959 187.052C61.1164 186.987 61.0202 186.945 60.9182 186.933C60.8163 186.92 60.7129 186.937 60.6201 186.981C60.5273 187.025 60.4489 187.095 60.3941 187.182C60.3394 187.269 60.3104 187.369 60.3107 187.472V191.657C60.3107 191.78 60.3351 191.903 60.3824 192.017C60.4298 192.131 60.4992 192.234 60.5867 192.321C60.6742 192.409 60.778 192.478 60.8922 192.524C61.0064 192.571 61.1288 192.595 61.2522 192.595L77.3679 192.53Z" fill="#C1D8ED"/>
<path d="M22.8813 84.7402C22.8813 84.7402 18.9039 102.553 18.9039 117.534C18.9039 132.515 14.3364 155.715 14.3364 155.715C14.3364 155.715 27.2807 153.621 36.0616 155.715C51.1915 159.322 64.7576 151.467 64.7576 151.467L49.5202 86.3835L22.8813 84.7402Z" fill="#262626"/>
<path d="M31.1158 48.1383C31.1158 48.1383 33.8233 46.7027 33.2189 39.3294L38.813 38.2922C38.813 38.2922 38.1827 44.9028 41.0148 47.0013L31.1158 48.1383Z" fill="#E98862"/>
<g opacity="0.15">
<path d="M39.8684 45.6197L35.2211 42.0642L38.8712 42.0264C38.9768 43.2758 39.315 44.4945 39.8684 45.6197Z" fill="black"/>
</g>
<path d="M30.0434 36.4704C30.4307 38.7075 31.6514 40.826 33.6248 41.5476C35.7756 42.4014 38.1026 42.7159 40.4028 42.4636C46.5271 41.9615 45.3155 28.0372 42.4082 25.3315C39.5008 22.6259 30.9689 24.3402 29.9307 28.8643C29.3939 31.204 29.6761 34.3414 30.0434 36.4704Z" fill="#E98862"/>
<path d="M38.8053 34.7477C39.0855 34.7477 39.3127 34.5205 39.3127 34.2403C39.3127 33.9601 39.0855 33.7329 38.8053 33.7329C38.5251 33.7329 38.2979 33.9601 38.2979 34.2403C38.2979 34.5205 38.5251 34.7477 38.8053 34.7477Z" fill="#0F1011"/>
<path d="M42.808 34.419C43.0882 34.419 43.3154 34.1919 43.3154 33.9117C43.3154 33.6315 43.0882 33.4043 42.808 33.4043C42.5278 33.4043 42.3006 33.6315 42.3006 33.9117C42.3006 34.1919 42.5278 34.419 42.808 34.419Z" fill="#0F1011"/>
<path d="M43.6872 32.8305H43.6841L42.3398 32.8137C42.2766 32.8129 42.2164 32.787 42.1722 32.7418C42.1281 32.6965 42.1038 32.6356 42.1045 32.5725C42.1081 32.5101 42.1349 32.4514 42.1796 32.4078C42.2243 32.3643 42.2837 32.3391 42.3461 32.3372L43.6904 32.354C43.752 32.3567 43.8102 32.3832 43.8527 32.4279C43.8951 32.4726 43.9187 32.5321 43.9182 32.5938C43.9178 32.6554 43.8935 32.7146 43.8505 32.7587C43.8074 32.8029 43.7489 32.8286 43.6872 32.8305Z" fill="#0F1011"/>
<path d="M37.7117 33.3205C37.6534 33.3204 37.5971 33.299 37.5535 33.2602C37.5099 33.2214 37.482 33.168 37.4752 33.1101C37.4683 33.0521 37.4829 32.9937 37.5163 32.9458C37.5496 32.8979 37.5993 32.8639 37.656 32.8502L38.9814 32.5312C39.0429 32.5165 39.1078 32.5268 39.1617 32.5598C39.2157 32.5929 39.2543 32.646 39.269 32.7076C39.2838 32.7691 39.2735 32.8339 39.2405 32.8879C39.2074 32.9418 39.1543 32.9804 39.0927 32.9952L37.7677 33.3138C37.7494 33.3183 37.7306 33.3205 37.7117 33.3205Z" fill="#0F1011"/>
<path d="M33.547 41.2812C33.4308 41.653 33.3496 41.8151 33.0145 41.6163C31.6989 40.8347 29.0895 39.1343 28.0811 32.7632C27.1773 27.0557 30.6989 24.7005 33.5085 23.8605C35.9292 23.1364 40.969 23.648 43.6886 25.127C45.7059 26.2241 44.23 29.1657 44.23 29.1657C43.2201 29.2123 43.4411 26.5322 41.059 26.5322C39.2171 26.5322 37.5949 29.2575 35.8703 29.33C34.2918 29.3961 33.9676 30.3584 34.0236 30.9739C34.3619 34.7157 33.9581 39.966 33.547 41.2812Z" fill="#0F1011"/>
<path d="M36.1658 35.4816C36.1931 35.7653 36.1636 36.0516 36.0792 36.3239C35.9948 36.5961 35.8572 36.8489 35.6742 37.0675C35.4913 37.2861 35.2667 37.4661 35.0136 37.5972C34.7605 37.7282 34.4838 37.8077 34.1997 37.8309C33.9157 37.8541 33.6298 37.8206 33.3587 37.7323C33.0877 37.6441 32.8369 37.5029 32.6209 37.3169C32.405 37.1308 32.2281 36.9038 32.1006 36.6488C31.9732 36.3939 31.8977 36.1161 31.8785 35.8317C31.8505 35.5493 31.8796 35.2641 31.9641 34.9931C32.0486 34.7221 32.1868 34.471 32.3704 34.2545C32.554 34.0381 32.7793 33.8608 33.0329 33.7333C33.2865 33.6058 33.5631 33.5306 33.8464 33.5123C35.3794 33.4636 36.0688 34.2977 36.1658 35.4816Z" fill="#E98862"/>
<g opacity="0.15">
<path d="M41.0576 37.0543C41.075 37.0544 41.0922 37.0518 41.1088 37.0466L42.3305 36.6713C42.3542 36.664 42.3761 36.6517 42.3947 36.6353C42.4133 36.6189 42.4283 36.5987 42.4385 36.5761C42.4487 36.5535 42.454 36.5289 42.4541 36.5041C42.4541 36.4793 42.4488 36.4548 42.4387 36.4321L41.6354 34.6439C41.6262 34.6226 41.6128 34.6034 41.5961 34.5874C41.5794 34.5713 41.5596 34.5587 41.538 34.5504C41.5164 34.542 41.4933 34.538 41.4702 34.5386C41.447 34.5393 41.4242 34.5445 41.403 34.554C41.3819 34.5635 41.3629 34.5771 41.347 34.594C41.3312 34.6109 41.3189 34.6308 41.3108 34.6525C41.3027 34.6742 41.299 34.6973 41.2999 34.7205C41.3008 34.7437 41.3063 34.7664 41.3161 34.7874L42.0381 36.395L41.0062 36.7119C40.9661 36.7242 40.9317 36.7505 40.9094 36.786C40.887 36.8215 40.8782 36.8638 40.8844 36.9053C40.8906 36.9468 40.9115 36.9846 40.9433 37.012C40.9751 37.0393 41.0157 37.0544 41.0576 37.0543Z" fill="black"/>
</g>
<path d="M39.0399 38.2356C39.0399 38.2356 40.9129 38.4331 42.2263 37.9744C42.2263 37.9744 42.2158 39.208 40.734 39.3295C39.2521 39.451 39.0399 38.2356 39.0399 38.2356Z" fill="white"/>
<path d="M43.8551 25.3164C45.6703 26.5322 45.3132 28.8614 44.9725 30.8839H42.7252L41.7825 27.6127L40.633 30.8839L31.8713 31.1868L32.9278 26.8417" fill="#0F1011"/>
<path d="M27.3784 43.1965C30.087 43.1965 32.2827 41.0008 32.2827 38.2922C32.2827 35.5837 30.087 33.3879 27.3784 33.3879C24.6699 33.3879 22.4741 35.5837 22.4741 38.2922C22.4741 41.0008 24.6699 43.1965 27.3784 43.1965Z" fill="#0F1011"/>
<path d="M58.8032 57.2715C58.8032 57.2715 61.4248 53.1067 61.3173 51.9788C61.2098 50.851 57.9334 49.7102 57.9334 49.7102C57.9334 49.7102 58.4075 48.7126 58.8298 47.618C59.3176 46.355 59.7364 44.962 59.2794 44.8234C58.8382 44.6896 58.1694 45.8364 57.5563 47.1694C56.7688 48.8807 56.0737 50.8979 56.0737 50.8979C56.0737 50.8979 56.0016 48.9055 55.2645 49.0323C54.962 49.0844 54.8338 49.4444 54.8328 50.8727C54.8328 52.4999 54.5786 55.0368 54.5786 55.0368L58.8032 57.2715Z" fill="#E98862"/>
<path d="M50.4799 75.9425C51.2394 75.9425 51.9817 75.716 52.6117 75.2918C53.2417 74.8676 53.7308 74.2652 54.0165 73.5614L60.8796 56.6608L53.8064 53.7895L51.7289 58.9067L50.0979 50.7554L42.6112 52.2533L46.7378 72.8755C46.8988 73.6805 47.315 74.4122 47.9247 74.9619C48.5344 75.5116 49.3051 75.8501 50.1224 75.9271C50.2404 75.9366 50.3605 75.9425 50.4799 75.9425Z" fill="#367CFF"/>
<path d="M62.8693 62.2402L58.6247 61.563C58.4579 61.5364 58.2986 61.4748 58.1572 61.3824C58.0159 61.29 57.8956 61.1687 57.8043 61.0266C57.713 60.8844 57.6527 60.7246 57.6275 60.5576C57.6022 60.3906 57.6125 60.2201 57.6576 60.0574L60.3282 50.4725C60.4074 50.1886 60.5883 49.9438 60.8364 49.7847C61.0845 49.6256 61.3825 49.5633 61.6735 49.6097L65.9178 50.2869C66.0846 50.3136 66.2439 50.3751 66.3853 50.4676C66.5267 50.56 66.6469 50.6813 66.7382 50.8234C66.8295 50.9655 66.8898 51.1253 66.9151 51.2923C66.9403 51.4593 66.9301 51.6298 66.8849 51.7926L64.2143 61.3774C64.1352 61.6614 63.9544 61.9062 63.7064 62.0654C63.4583 62.2245 63.1604 62.2867 62.8693 62.2402Z" fill="#C1D8ED"/>
<path d="M56.0336 59.7285L58.5372 63.125C58.5372 63.125 65.2655 61.7765 65.8968 56.5928C65.9693 55.9975 65.9062 54.3448 65.1671 54.5665C63.2412 55.1435 60.8447 58.0985 59.1643 58.4917C59.5477 57.8051 60.0156 56.8351 59.7137 56.6579C58.9203 56.1912 56.7861 59.0054 56.0336 59.7285Z" fill="#E98862"/>
<path d="M22.1933 49.061C23.7935 47.4608 26.5562 46.4278 29.9247 46.4243C30.1769 48.3887 42.1032 48.3957 42.1942 46.4698C42.6494 46.4768 43.0031 46.4838 43.2237 46.4944C51.3186 46.8445 51.2948 53.3672 50.4982 60.5777L57.1589 57.6402L60.2403 64.6258L49.6396 69.3008C49.633 69.5109 49.6274 69.721 49.6249 69.931C49.4884 81.2971 52.5592 83.4401 51.0465 86.9137C49.5794 90.2857 20.751 91.6863 20.3658 85.7546C20.1207 81.9799 23.4472 78.685 23.4472 71.3282C23.4472 63.9714 16.6783 54.576 22.1933 49.061Z" fill="#367CFF"/>
<path d="M42.1939 46.4698C42.1029 48.3957 41.0559 51.2285 37.824 51.4421C33.517 51.7257 30.1766 48.3887 29.9244 46.4243H29.9349C34.1753 46.4243 39.7222 46.4313 42.1939 46.4698Z" fill="#E98862"/>
<path d="M151.027 0.107178L138.99 12.0808L122.688 7.33617L151.027 0.107178Z" fill="#C1D8ED"/>
<path d="M151.027 0.107178L155.563 17.8899L127.224 25.1189L122.688 7.33617L138.99 12.0808L151.027 0.107178Z" fill="#DEE8F5"/>
<path d="M122.345 20.0632C122.345 20.0632 93.125 24.0396 73.9427 40.1591" stroke="#C1D8ED" stroke-linecap="round" stroke-linejoin="round"/>
<path d="M119.636 13.9917C109.103 15.6905 98.8365 18.7558 89.0963 23.1101" stroke="#C1D8ED" stroke-linecap="round" stroke-linejoin="round"/>
</svg>
