<svg width="302" height="194" viewBox="0 0 302 194" fill="none" xmlns="http://www.w3.org/2000/svg">
<path d="M190.954 127.927C189.998 127.92 189.044 127.819 188.107 127.624C181.596 126.319 177.188 120.357 175.36 110.388C174.524 105.511 174.253 100.553 174.552 95.614L174.904 95.6422C174.882 95.9276 172.775 124.19 188.178 127.278C195.6 128.766 198.122 124.469 200.56 120.313C203.211 115.793 205.715 111.524 214.219 115.723L214.062 116.041C205.853 111.986 203.541 115.928 200.865 120.492C198.8 124.006 196.501 127.927 190.954 127.927Z" fill="#C1D8ED"/>
<path d="M107.599 129.788C106.107 129.788 104.451 129.157 102.647 127.899C93.4726 121.5 86.9231 127.517 86.8582 127.579L86.6158 127.323C86.6825 127.259 93.4328 121.043 102.849 127.61C105.582 129.515 107.94 129.929 109.859 128.84C115.595 125.582 116.602 109.879 115.632 96.2687L115.985 96.2437C116.962 109.961 115.912 125.808 110.033 129.146C109.293 129.571 108.453 129.792 107.599 129.788Z" fill="#C1D8ED"/>
<path d="M211.292 0.87793H81.6924C79.2031 0.87793 77.1851 2.89594 77.1851 5.38528V97.6365C77.1851 100.126 79.2031 102.144 81.6924 102.144H211.292C213.782 102.144 215.8 100.126 215.8 97.6365V5.38528C215.8 2.89594 213.782 0.87793 211.292 0.87793Z" fill="#C1D8ED"/>
<path d="M208.849 0.87793H79.2487C76.7593 0.87793 74.7413 2.89594 74.7413 5.38528V97.6365C74.7413 100.126 76.7593 102.144 79.2487 102.144H208.849C211.338 102.144 213.356 100.126 213.356 97.6365V5.38528C213.356 2.89594 211.338 0.87793 208.849 0.87793Z" fill="#DEE8F5"/>
<path d="M205.86 5.18311H82.4204C80.7635 5.18311 79.4204 6.52623 79.4204 8.18306V94.6982C79.4204 96.3551 80.7635 97.6982 82.4204 97.6982H205.86C207.517 97.6982 208.86 96.3551 208.86 94.6982V8.18306C208.86 6.52623 207.517 5.18311 205.86 5.18311Z" fill="white"/>
<path d="M260.592 103.769C260.565 103.342 260.553 102.88 260.559 102.382C260.563 101.744 260.6 101.046 260.672 100.284L255.049 99.1685C255.14 100.568 255.085 101.973 254.885 103.361C254.881 103.396 254.873 103.432 254.869 103.467V103.47C254.598 105.161 254.02 106.911 252.816 107.845L261.638 107.951C261.178 107.135 260.721 105.82 260.592 103.769Z" fill="#E98862"/>
<path d="M263.903 97.4416C263.486 99.6902 262.23 101.809 260.235 102.513C257.865 103.349 256.116 103.386 253.395 103.353C249.682 103.308 249.852 99.4373 249.795 95.5346C249.738 91.6156 250.101 87.4173 251.584 86.0701C254.548 83.3806 263.122 85.2104 264.112 89.7805C264.623 92.1441 264.301 95.301 263.903 97.4416Z" fill="#E98862"/>
<path d="M247.616 85.9784C248.264 83.7084 250.214 82.6194 253.404 83.4946C255.674 84.1172 255.968 83.5859 257.907 82.6811C259.018 82.1632 262.637 82.4497 263.504 84.9124C264.434 87.5504 267.432 85.4592 267.656 89.7414C267.844 93.3256 266.571 98.4305 264.104 101.282C263.249 102.27 261.861 103.448 260.794 103.731C259.745 104.009 255.23 103.7 254.794 103.434C252.651 102.127 252.944 96.2532 253.332 92.4881C253.396 91.8687 253.294 90.8364 251.702 90.8174C250.609 90.804 250.003 90.7708 249.445 90.3567C249.444 90.3567 246.967 88.2485 247.616 85.9784Z" fill="#0F1011"/>
<path d="M251.148 96.2905C251.118 96.5757 251.144 96.864 251.226 97.1388C251.308 97.4136 251.444 97.6694 251.625 97.8913C251.807 98.1133 252.031 98.297 252.284 98.4319C252.537 98.5667 252.814 98.65 253.1 98.6769C253.385 98.7038 253.673 98.6737 253.947 98.5885C254.221 98.5033 254.475 98.3646 254.695 98.1804C254.914 97.9962 255.095 97.7703 255.227 97.5156C255.359 97.261 255.439 96.9827 255.463 96.6969C255.494 96.4128 255.468 96.1251 255.387 95.8512C255.305 95.5772 255.169 95.3225 254.986 95.1023C254.804 94.882 254.579 94.7007 254.325 94.5691C254.071 94.4376 253.794 94.3585 253.509 94.3365C251.965 94.2674 251.26 95.0992 251.148 96.2905Z" fill="#E98862"/>
<path d="M253.546 96.0471C253.42 96.0225 253.303 95.964 253.208 95.8779C253.112 95.7917 253.042 95.6811 253.005 95.5581C252.917 95.2653 251.985 88.375 254.683 84.2236C255.114 83.5095 255.708 82.9081 256.417 82.4689C257.126 82.0298 257.929 81.7654 258.76 81.6978C258.853 81.688 258.946 81.6965 259.035 81.7229C259.124 81.7492 259.207 81.7928 259.279 81.8513C259.351 81.9097 259.411 81.9818 259.455 82.0634C259.499 82.1449 259.527 82.2345 259.537 82.3268C259.577 82.7148 259.295 82.7085 258.908 82.7501C257.027 82.9445 256.742 83.6835 255.859 85.0078C253.478 88.5814 254.338 95.0875 254.358 95.1528C254.393 95.2692 254.398 95.3928 254.371 95.5115C254.344 95.6301 254.287 95.7399 254.206 95.8301C254.124 95.9202 254.02 95.9878 253.905 96.0261C253.79 96.0644 253.666 96.0722 253.547 96.0488L253.546 96.0471Z" fill="#C1D8ED"/>
<path d="M254.545 99.0095C256.412 99.0095 257.926 97.4958 257.926 95.6285C257.926 93.7613 256.412 92.2476 254.545 92.2476C252.678 92.2476 251.164 93.7613 251.164 95.6285C251.164 97.4958 252.678 99.0095 254.545 99.0095Z" fill="#C1D8ED"/>
<path d="M253.326 98.9321C255.193 98.9321 256.707 97.4184 256.707 95.5511C256.707 93.6839 255.193 92.1702 253.326 92.1702C251.459 92.1702 249.945 93.6839 249.945 95.5511C249.945 97.4184 251.459 98.9321 253.326 98.9321Z" fill="#DEE8F5"/>
<path d="M249.589 100.5C248.971 100.5 248.266 100.473 247.473 100.418C247.333 100.408 247.202 100.343 247.11 100.237C247.018 100.131 246.972 99.993 246.982 99.8531C246.985 99.7832 247.002 99.7147 247.033 99.6518C247.063 99.5888 247.106 99.5327 247.159 99.4868C247.212 99.4409 247.273 99.4062 247.34 99.3847C247.406 99.3633 247.476 99.3556 247.546 99.362C249.302 99.4841 251.412 99.4488 251.85 99.2068C252.068 98.5529 252.251 97.8881 252.4 97.2151C252.414 97.1456 252.442 97.0796 252.482 97.0211C252.522 96.9626 252.573 96.9128 252.633 96.8745C252.692 96.8362 252.759 96.8103 252.829 96.7984C252.899 96.7864 252.971 96.7886 253.04 96.8048C253.109 96.821 253.174 96.8509 253.231 96.8928C253.288 96.9346 253.336 96.9875 253.373 97.0484C253.409 97.1092 253.433 97.1767 253.443 97.2469C253.452 97.3171 253.448 97.3886 253.43 97.4571C253.266 98.2539 253.034 99.0353 252.737 99.7928C252.456 100.263 251.399 100.5 249.589 100.5Z" fill="#DEE8F5"/>
<path d="M247.635 99.0735H246.919C246.462 99.0735 246.091 99.4439 246.091 99.9007C246.091 100.358 246.462 100.728 246.919 100.728H247.635C248.092 100.728 248.462 100.358 248.462 99.9007C248.462 99.4439 248.092 99.0735 247.635 99.0735Z" fill="#C1D8ED"/>
<path d="M181.293 190.042L175.356 186.944C175.356 186.944 181.092 179.452 181.504 178.912L186.333 183.411C185.921 183.949 181.293 190.042 181.293 190.042Z" fill="#E98862"/>
<path d="M166.857 192.404C166.658 192.403 166.461 192.361 166.278 192.281C166.096 192.2 165.932 192.083 165.797 191.937C165.662 191.79 165.559 191.617 165.494 191.429C165.428 191.241 165.403 191.041 165.418 190.842C165.44 190.567 165.539 190.304 165.705 190.083C165.872 189.862 166.097 189.694 166.356 189.597L174.978 186.707C175.145 186.652 175.322 186.633 175.497 186.652C175.671 186.672 175.84 186.729 175.991 186.819C177.176 187.642 178.594 188.063 180.037 188.019C181.16 187.939 182.238 187.545 183.148 186.882C183.228 186.816 183.325 186.774 183.428 186.762C183.531 186.749 183.635 186.766 183.728 186.81C183.822 186.855 183.901 186.925 183.956 187.012C184.011 187.1 184.04 187.201 184.04 187.305V191.521C184.04 191.646 184.015 191.769 183.968 191.883C183.92 191.998 183.85 192.103 183.762 192.19C183.674 192.278 183.569 192.348 183.454 192.395C183.339 192.442 183.216 192.466 183.092 192.466L166.857 192.404Z" fill="#C1D8ED"/>
<path d="M207.134 180.82L204.715 187.849L211.719 190.26L214.139 183.232L207.134 180.82Z" fill="#E98862"/>
<path d="M196.218 192.412C196.019 192.411 195.822 192.369 195.639 192.288C195.457 192.208 195.293 192.091 195.158 191.944C195.023 191.798 194.92 191.625 194.855 191.436C194.79 191.248 194.764 191.048 194.78 190.85C194.801 190.575 194.901 190.311 195.067 190.091C195.233 189.87 195.459 189.702 195.718 189.605L204.34 186.717C204.507 186.661 204.684 186.643 204.859 186.662C205.034 186.682 205.203 186.739 205.353 186.83C206.539 187.652 207.957 188.072 209.399 188.029C210.522 187.949 211.6 187.555 212.51 186.892C212.59 186.827 212.688 186.785 212.79 186.773C212.893 186.76 212.997 186.777 213.091 186.821C213.184 186.866 213.263 186.936 213.318 187.023C213.373 187.111 213.403 187.212 213.402 187.316V191.533C213.402 191.657 213.378 191.78 213.33 191.895C213.282 192.01 213.212 192.114 213.124 192.202C213.036 192.29 212.931 192.359 212.816 192.407C212.701 192.454 212.578 192.478 212.454 192.478L196.218 192.412Z" fill="#C1D8ED"/>
<path d="M220.853 136.673L220.747 136.655C219.108 136.384 217.427 136.748 216.046 137.674C214.666 138.599 213.691 140.016 213.32 141.636L203.443 184.752L216.166 187.666L224.559 151.028C224.647 151.051 224.735 151.073 224.824 151.095C226.933 151.636 229.037 152.19 231.135 152.756C235.325 153.889 239.492 157.541 243.534 158.812L247.468 143.356C242.976 142.469 223.103 136.966 220.853 136.673Z" fill="#262626"/>
<path opacity="0.07" d="M220.853 136.673L220.747 136.655C219.108 136.384 217.427 136.748 216.046 137.674C214.666 138.599 213.691 140.016 213.32 141.636L203.443 184.752L216.166 187.666L224.559 151.028C224.647 151.051 224.735 151.073 224.824 151.095C226.933 151.636 229.037 152.19 231.135 152.756C235.325 153.889 239.492 157.541 243.534 158.812L247.468 143.356C242.976 142.469 223.103 136.966 220.853 136.673Z" fill="black"/>
<path d="M264.906 155.161L265.934 145.557L238.402 143.224L237.671 145.144C230.57 143.466 223.426 139.709 216.24 138.604C215.027 138.417 213.787 138.551 212.642 138.991C211.497 139.432 210.487 140.165 209.714 141.117L174.727 184.364L186.183 190.042L217.964 153.592C223.374 154.697 251.023 165.778 258.327 162.187C262.258 160.254 264.732 156.781 264.906 155.161Z" fill="#262626"/>
<path d="M229.23 118.267C228.315 117.75 225.182 115.399 224.69 116.185C224.556 116.4 224.813 116.839 225.233 117.342C222.853 116.156 221.571 115.866 220.924 117.011C220.175 118.337 219.587 119.617 223.371 121.755C226.232 123.371 228.715 121.543 228.096 119.673L229.23 118.267Z" fill="#E98862"/>
<path d="M211.58 126.564C210.915 126.063 208.132 122.795 207.312 120.968C206.491 119.141 207.3 115.639 211.98 116.042C216.659 116.445 214.943 113.208 217.518 112.377C220.651 111.367 224.849 115.362 225.684 117.195C226.072 118.05 225.79 119.17 224.408 119.092C222.826 119.003 219.779 117.69 219.198 117.64C218.11 117.546 215.298 119.315 215.228 120.125C215.094 121.737 215.074 123.356 215.168 124.97C215.309 126.684 213.351 127.899 211.58 126.564Z" fill="#DEE8F5"/>
<path d="M213.44 118.446C213.514 117.585 212.64 116.807 211.486 116.708C210.333 116.608 209.338 117.226 209.264 118.086C209.19 118.947 210.065 119.726 211.218 119.825C212.371 119.924 213.366 119.307 213.44 118.446Z" fill="#C1D8ED"/>
<path d="M220.997 114.486C221.063 113.724 220.289 113.036 219.27 112.948C218.25 112.86 217.37 113.406 217.304 114.168C217.239 114.929 218.012 115.618 219.032 115.705C220.052 115.793 220.932 115.247 220.997 114.486Z" fill="#C1D8ED"/>
<path d="M239.934 128.067C241.018 118.343 237.545 104.491 249.221 105.425C250.634 105.538 257.495 106.373 262.517 106.992C265.891 107.408 268.533 108.785 269.935 110.582C274.77 116.776 266.842 125.339 265.936 132.693C265.029 140.047 267.947 143.753 267.239 147.497C266.123 153.382 237.471 148.426 236.417 144.875C235.333 141.214 238.667 139.451 239.934 128.067Z" fill="#367CFF"/>
<path d="M249.489 133.454C248.85 133.454 248.22 133.295 247.658 132.99L223.486 123.421L227.149 116.657L249.032 124.986L265.189 111.551L270.107 117.466L251.949 132.564C251.258 133.139 250.388 133.454 249.489 133.454Z" fill="#367CFF"/>
<path d="M217.598 124.348L218.44 123.184C217.525 122.666 214.335 120.583 213.843 121.369C213.709 121.584 213.966 122.023 214.386 122.526C212.006 121.34 210.724 121.051 210.077 122.195C209.328 123.52 208.74 124.801 212.523 126.938C216.306 129.076 220.037 125.997 217.598 124.348Z" fill="#E98862"/>
<path d="M233.675 139.264C232.846 139.264 232.042 138.986 231.39 138.475L213.376 127.885L217.946 122.053L232.294 129.771L242.146 108.716L248.856 111.855L237.03 137.13C236.731 137.767 236.257 138.307 235.663 138.685C235.069 139.063 234.379 139.264 233.675 139.264Z" fill="#367CFF"/>
<path d="M274.376 128C283.154 128.031 297.094 137.188 300.361 156.959C304.502 182.025 293.735 191.949 270.958 192.477C254.612 192.856 236.198 193.95 227.068 192.427C204.892 188.278 208.007 158.412 222.947 156.697C271.213 156.697 244.041 127.892 274.376 128Z" fill="#C1D8ED"/>
<path d="M32.3608 112.119C32.3608 112.119 35.0204 110.551 34.076 103.159L39.659 101.86C39.659 101.86 39.3277 108.541 42.2716 110.524L32.3608 112.119Z" fill="#E98862"/>
<path d="M30.7513 100.425C31.243 102.659 32.568 104.735 34.5869 105.373C36.7906 106.134 39.1469 106.344 41.4504 105.985C47.5911 105.201 45.7373 91.2395 42.688 88.6515C39.6386 86.0636 31.1284 88.1746 30.2898 92.7744C29.8563 95.1545 30.2831 98.2991 30.7513 100.425Z" fill="#E98862"/>
<path d="M42.6811 93.3763C41.6556 104.453 39.8124 107.616 33.9698 106.17C32.6293 105.839 29.1845 103.197 28.0535 96.7834C27.653 94.6445 28.049 92.433 29.1667 90.5659C30.2845 88.6988 32.0467 87.3052 34.1211 86.648C44.9512 83.7062 46.6092 93.6123 46.6092 93.6123C41.197 95.2679 33.46 94.6632 33.46 94.6632" fill="#0F1011"/>
<path d="M43.7172 99.4249C43.7533 99.7071 43.7334 99.9938 43.6587 100.268C43.584 100.543 43.4559 100.8 43.2818 101.025C43.1077 101.25 42.891 101.439 42.644 101.58C42.397 101.722 42.1246 101.813 41.8423 101.849C41.56 101.885 41.2734 101.865 40.9987 101.791C40.7241 101.716 40.4669 101.588 40.2418 101.414C39.7872 101.062 39.4909 100.544 39.418 99.9741C39.377 99.6911 39.3934 99.4028 39.4661 99.1263C39.5389 98.8498 39.6665 98.5907 39.8414 98.3645C40.0164 98.1384 40.2351 97.9497 40.4844 97.8098C40.7338 97.6699 41.0088 97.5816 41.293 97.5502C42.8336 97.431 43.567 98.2378 43.7172 99.4249Z" fill="#E98862"/>
<path d="M40.8366 99.703C40.9627 99.6785 41.0797 99.62 41.175 99.5338C41.2703 99.4476 41.3403 99.3371 41.3774 99.2141C41.4652 98.9213 42.3976 92.031 39.6999 87.8796C39.2692 87.1653 38.6748 86.5636 37.9659 86.1242C37.2569 85.6848 36.4536 85.4202 35.6223 85.3523C35.53 85.3425 35.4366 85.3511 35.3476 85.3774C35.2586 85.4038 35.1757 85.4475 35.1036 85.5059C35.0315 85.5644 34.9717 85.6365 34.9275 85.7181C34.8833 85.7998 34.8557 85.8893 34.8462 85.9816C34.8063 86.3697 35.0878 86.3633 35.4755 86.405C37.3565 86.5993 37.6412 87.3384 38.5242 88.6627C40.9046 92.2363 40.0442 98.7424 40.0248 98.8077C39.9897 98.9241 39.9853 99.0477 40.012 99.1664C40.0387 99.285 40.0957 99.3948 40.1773 99.485C40.259 99.5751 40.3626 99.6426 40.478 99.681C40.5935 99.7193 40.7168 99.7271 40.8362 99.7037L40.8366 99.703Z" fill="#C1D8ED"/>
<path d="M39.8375 102.665C41.7047 102.665 43.2184 101.152 43.2184 99.2843C43.2184 97.417 41.7047 95.9033 39.8375 95.9033C37.9702 95.9033 36.4565 97.417 36.4565 99.2843C36.4565 101.152 37.9702 102.665 39.8375 102.665Z" fill="#C1D8ED"/>
<path d="M41.0564 102.588C42.9236 102.588 44.4373 101.074 44.4373 99.2066C44.4373 97.3394 42.9236 95.8257 41.0564 95.8257C39.1891 95.8257 37.6754 97.3394 37.6754 99.2066C37.6754 101.074 39.1891 102.588 41.0564 102.588Z" fill="#DEE8F5"/>
<path d="M44.7939 104.156C42.9839 104.156 41.9266 103.919 41.6419 103.448C41.3452 102.69 41.1136 101.909 40.9494 101.112C40.9208 100.977 40.9463 100.836 41.0205 100.719C41.0947 100.602 41.2116 100.519 41.3463 100.488C41.481 100.456 41.6226 100.478 41.741 100.55C41.8594 100.622 41.945 100.737 41.9795 100.871C42.1281 101.544 42.3119 102.208 42.5302 102.862C42.9722 103.105 45.08 103.139 46.834 103.018C46.9042 103.011 46.9749 103.019 47.0421 103.04C47.1092 103.061 47.1715 103.096 47.2252 103.141C47.2788 103.187 47.3229 103.243 47.3546 103.306C47.3864 103.369 47.4053 103.437 47.4102 103.508C47.4151 103.578 47.4059 103.648 47.3832 103.715C47.3605 103.782 47.3247 103.843 47.2779 103.896C47.2311 103.949 47.1742 103.991 47.1107 104.022C47.0471 104.052 46.9781 104.07 46.9077 104.073C46.1166 104.128 45.412 104.156 44.7939 104.156Z" fill="#DEE8F5"/>
<path d="M46.7475 104.384H47.464C47.9209 104.384 48.2913 104.013 48.2913 103.557C48.2913 103.1 47.9209 102.729 47.464 102.729H46.7475C46.2907 102.729 45.9203 103.1 45.9203 103.557C45.9203 104.013 46.2907 104.384 46.7475 104.384Z" fill="#C1D8ED"/>
<path d="M129.431 185.74L123.126 189.628C123.126 189.628 117.435 184.402 117.078 183.826L123.371 179.918C123.73 180.495 129.431 185.74 129.431 185.74Z" fill="#E98862"/>
<path d="M137.197 181.025C137.338 180.884 137.448 180.716 137.521 180.53C137.594 180.345 137.628 180.146 137.621 179.947C137.614 179.748 137.566 179.553 137.479 179.373C137.393 179.193 137.271 179.034 137.12 178.903C136.911 178.723 136.655 178.606 136.382 178.566C136.109 178.526 135.83 178.565 135.578 178.679L127.421 182.693C127.263 182.772 127.124 182.883 127.014 183.02C126.903 183.157 126.823 183.316 126.78 183.486C126.516 184.905 125.805 186.202 124.749 187.186C123.895 187.919 122.852 188.398 121.738 188.567C121.635 188.577 121.537 188.616 121.455 188.679C121.373 188.743 121.311 188.828 121.276 188.925C121.241 189.023 121.234 189.128 121.257 189.229C121.279 189.33 121.33 189.423 121.403 189.496L124.37 192.492C124.457 192.58 124.561 192.65 124.676 192.698C124.791 192.746 124.914 192.771 125.038 192.772C125.163 192.772 125.286 192.748 125.401 192.7C125.516 192.653 125.621 192.583 125.709 192.496L137.197 181.025Z" fill="#C1D8ED"/>
<path d="M109.025 187.722L102.162 190.513C101.106 187.916 99.8162 184.808 99.5739 184.315C99.5894 184.346 99.6035 184.371 99.6141 184.391L106.099 180.81C106.207 181.004 106.533 181.596 109.025 187.722Z" fill="#E98862"/>
<path d="M117.326 192.189C117.525 192.19 117.722 192.151 117.906 192.073C118.089 191.995 118.254 191.88 118.391 191.735C118.528 191.59 118.633 191.419 118.701 191.231C118.769 191.044 118.797 190.844 118.784 190.646C118.766 190.37 118.67 190.105 118.507 189.883C118.343 189.66 118.12 189.489 117.862 189.389L109.278 186.39C109.112 186.333 108.935 186.312 108.76 186.329C108.585 186.346 108.415 186.401 108.263 186.49C107.067 187.297 105.644 187.699 104.203 187.637C103.081 187.542 102.008 187.135 101.106 186.46C101.027 186.393 100.93 186.351 100.828 186.337C100.725 186.323 100.621 186.338 100.527 186.382C100.433 186.425 100.353 186.494 100.297 186.581C100.24 186.668 100.21 186.769 100.209 186.872L100.154 191.088C100.153 191.212 100.176 191.336 100.222 191.451C100.268 191.567 100.337 191.672 100.424 191.761C100.511 191.85 100.614 191.921 100.729 191.969C100.843 192.018 100.966 192.044 101.091 192.045L117.326 192.189Z" fill="#C1D8ED"/>
<path d="M127.602 179.03C125.777 178.233 87.7888 141.937 86.2193 144.293C74.3458 144.046 62.4521 143.744 50.6841 145.98L54.6196 161.436C64.1186 158.815 74.2555 158.185 84.0995 157.465L119.469 189.238L127.602 179.03Z" fill="#262626"/>
<path opacity="0.07" d="M127.602 179.03C125.777 178.233 87.7888 141.937 86.2193 144.293C74.3458 144.046 62.4521 143.744 50.6841 145.98L54.6196 161.436C64.1186 158.815 74.2555 158.185 84.0995 157.465L119.469 189.238L127.602 179.03Z" fill="black"/>
<path d="M110.79 183.81L91.3371 147.006C90.6539 145.719 89.5886 144.675 88.2877 144.019C86.9868 143.362 85.5143 143.125 84.0732 143.34C76.1111 144.566 68.3629 145.912 60.4813 147.766L59.7507 145.848L32.2184 148.181L33.2467 157.785C33.67 161.747 40.0756 167.557 45.865 166.616C47.7071 166.179 49.8643 166.225 51.5975 165.767C61.6306 163.414 71.1847 160.311 81.3399 158.504L99.3485 190.093L110.79 183.81Z" fill="#262626"/>
<path d="M80.2252 126.759C79.8371 125.503 78.5223 125.513 75.945 126.165C76.4618 125.763 76.8068 125.389 76.7211 125.151C76.4075 124.278 72.8466 125.908 71.8423 126.219L72.6512 127.835C71.6493 129.53 73.6862 131.845 76.8259 130.874C80.9773 129.589 80.6749 128.213 80.2252 126.759Z" fill="#E98862"/>
<path d="M87.3244 138.081C88.0807 137.733 91.4952 135.131 92.6865 133.521C93.8778 131.91 93.8319 128.316 89.1732 127.715C84.5146 127.113 86.8802 124.315 84.5417 122.956C81.6949 121.302 76.7455 124.313 75.538 125.926C74.9753 126.679 75.0127 127.835 76.3804 128.052C77.946 128.299 81.2024 127.666 81.7806 127.741C82.8636 127.882 85.2356 130.207 85.1319 131.014C84.9201 132.617 84.5955 134.203 84.1604 135.761C83.6559 137.405 85.3104 139.008 87.3244 138.081Z" fill="#0CBC8B"/>
<path opacity="0.33" d="M91.3902 130.289C91.5008 129.432 90.6599 128.617 89.512 128.469C88.364 128.321 87.3437 128.895 87.2331 129.752C87.1224 130.609 87.9633 131.424 89.1113 131.572C90.2592 131.721 91.2795 131.146 91.3902 130.289Z" fill="white"/>
<path opacity="0.33" d="M84.3678 124.75C84.4656 123.992 83.722 123.271 82.7068 123.14C81.6916 123.009 80.7892 123.517 80.6914 124.275C80.5935 125.033 81.3371 125.754 82.3524 125.885C83.3676 126.016 84.2699 125.508 84.3678 124.75Z" fill="white"/>
<path d="M56.5841 130.974C54.67 121.379 56.9411 107.281 45.3883 109.213C43.9899 109.447 37.2262 110.868 32.2761 111.915C28.9502 112.621 26.436 114.218 25.1929 116.128C20.9074 122.715 29.5404 130.566 31.0746 137.815C32.6088 145.064 30.0205 149.006 31.046 152.675C32.6638 158.443 60.7846 151.047 61.5293 147.419C62.2951 143.679 58.8228 142.208 56.5841 130.974Z" fill="#367CFF"/>
<path d="M46.2635 135.764C45.5155 135.764 44.7838 135.546 44.1578 135.137L25.703 123.063L29.9147 116.626L47.2181 127.946L74.7829 124.375L75.6091 132.022L46.6766 135.742C46.5394 135.757 46.4015 135.764 46.2635 135.764Z" fill="#367CFF"/>
<path d="M89.8505 134.571C89.4624 133.315 88.0214 132.885 85.444 133.537C85.9608 133.135 86.3058 132.761 86.2201 132.523C85.9065 131.65 82.3471 133.007 81.3427 133.318L81.9174 134.634C79.1834 135.727 81.2337 139.366 86.3249 138.245C89.3121 137.587 90.2988 136.024 89.8505 134.571Z" fill="#E98862"/>
<path d="M63.4633 141.607C62.8133 141.607 62.1747 141.435 61.6117 141.11C61.0488 140.785 60.5813 140.318 60.2563 139.755L46.3049 115.59L52.7211 111.886L65.4614 133.955L83.2682 131.975L84.0873 139.337L63.8736 141.586C63.7373 141.6 63.6004 141.607 63.4633 141.607Z" fill="#367CFF"/>
<path d="M21.039 98.9396C20.8807 93.7069 22.1062 90.5489 23.8302 88.8825C25.5309 87.2382 30.9586 86.0603 33.1814 92.5685C34.6316 96.8148 34.1339 98.2679 34.6743 104.955C35.2148 111.641 36.7909 111.649 37.0217 117.799C37.2686 124.339 34.5551 129.419 27.548 129.304C21.8268 129.209 18.2183 126.423 17.753 120.671C17.0852 112.416 21.3488 109.194 21.039 98.9396Z" fill="#0F1011"/>
<path d="M27.9181 132.369C19.1398 132.4 3.94456 138.952 0.678262 158.721C-3.46291 183.787 11.9803 193.211 30.081 192.476C46.4181 191.812 64.8412 193.596 73.9709 192.073C96.1468 187.924 89.3122 160.605 78.092 158.459C29.8263 158.461 58.2529 132.261 27.9181 132.369Z" fill="#C1D8ED"/>
<path d="M82.5298 8.84106V93.9794H205.815V8.84106H82.5298Z" fill="#F3F5FD"/>
<path d="M112.636 61.4906C125.323 61.4906 135.609 51.2051 135.609 38.5172C135.609 25.8293 125.323 15.5437 112.636 15.5437C99.9477 15.5437 89.6621 25.8293 89.6621 38.5172C89.6621 51.2051 99.9477 61.4906 112.636 61.4906Z" fill="#DEE8F5"/>
<path d="M134.675 68.5513H90.5973V71.0358H134.675V68.5513Z" fill="#DEE8F5"/>
<path d="M197.747 68.5513H153.67V71.0358H197.747V68.5513Z" fill="#DEE8F5"/>
<path d="M127.603 68.5513H90.5973V71.0358H127.603V68.5513Z" fill="#0CBC8B"/>
<path d="M178.065 68.5513H153.67V71.0358H178.065V68.5513Z" fill="#262626"/>
<path d="M134.675 75.1221H90.5973V77.6066H134.675V75.1221Z" fill="#DEE8F5"/>
<path d="M197.747 75.1221H153.67V77.6066H197.747V75.1221Z" fill="#DEE8F5"/>
<path d="M112.636 75.1221H90.5973V77.6066H112.636V75.1221Z" fill="#0CBC8B"/>
<path d="M190.074 75.1221H153.67V77.6066H190.074V75.1221Z" fill="#262626"/>
<path d="M134.675 82.0898H90.5973V84.5744H134.675V82.0898Z" fill="#DEE8F5"/>
<path d="M197.747 82.0898H153.67V84.5744H197.747V82.0898Z" fill="#DEE8F5"/>
<path d="M129.432 82.0898H90.5973V84.5744H129.432V82.0898Z" fill="#0CBC8B"/>
<path d="M181.608 82.0898H153.67V84.5744H181.608V82.0898Z" fill="#262626"/>
<path d="M175.709 61.4906C188.397 61.4906 198.682 51.2051 198.682 38.5172C198.682 25.8293 188.397 15.5437 175.709 15.5437C163.021 15.5437 152.735 25.8293 152.735 38.5172C152.735 51.2051 163.021 61.4906 175.709 61.4906Z" fill="#DEE8F5"/>
<path d="M142.679 34.854H144.967L142.487 42.4213H140.081L137.611 34.854H139.909L140.939 38.6893C141.102 39.2728 141.22 39.868 141.291 40.4698C141.315 40.2285 141.363 39.9266 141.436 39.5642C141.51 39.2018 141.573 38.9171 141.628 38.7101L142.679 34.854Z" fill="#C1D8ED"/>
<path d="M150.733 40.1229C150.74 40.5658 150.616 41.001 150.375 41.3731C150.122 41.75 149.764 42.0449 149.345 42.2219C148.847 42.4336 148.309 42.5368 147.767 42.5245C147.342 42.5317 146.917 42.4962 146.499 42.4187C146.13 42.3387 145.772 42.2145 145.433 42.0487V40.227C145.82 40.4262 146.228 40.5832 146.649 40.6951C147.026 40.8013 147.416 40.8578 147.808 40.8634C148.042 40.8814 148.275 40.8262 148.476 40.7057C148.542 40.6606 148.596 40.5999 148.633 40.529C148.67 40.4581 148.689 40.3792 148.688 40.2993C148.69 40.2018 148.66 40.1064 148.602 40.0276C148.526 39.933 148.433 39.8531 148.328 39.792C148.202 39.7127 147.866 39.5506 147.321 39.3055C146.924 39.1388 146.55 38.9194 146.211 38.6532C145.975 38.4571 145.787 38.2093 145.662 37.929C145.537 37.6221 145.476 37.2925 145.484 36.961C145.47 36.648 145.531 36.3362 145.664 36.0522C145.796 35.7683 145.996 35.5206 146.245 35.3305C146.858 34.9083 147.593 34.702 148.336 34.7438C149.164 34.7539 149.981 34.9392 150.733 35.2875L150.106 36.8661C149.537 36.5767 148.912 36.4109 148.274 36.3796C148.071 36.3636 147.867 36.413 147.694 36.5207C147.638 36.5597 147.593 36.6116 147.561 36.672C147.53 36.7323 147.513 36.7994 147.513 36.8675C147.517 36.9475 147.54 37.0255 147.58 37.0949C147.62 37.1643 147.676 37.223 147.744 37.2662C148.142 37.5131 148.56 37.7277 148.993 37.9078C149.516 38.1081 149.982 38.4322 150.352 38.8522C150.616 39.2219 150.75 39.6689 150.733 40.1229Z" fill="#C1D8ED"/>
<path d="M180.713 27.3113H170.326C169.7 27.3112 169.08 27.4345 168.501 27.6741C167.923 27.9136 167.398 28.2648 166.955 28.7075C166.512 29.1502 166.161 29.6758 165.921 30.2542C165.682 30.8326 165.559 31.4525 165.559 32.0786V37.2943H166.807V33.2022C166.807 32.7015 166.905 32.2056 167.097 31.743C167.288 31.2803 167.569 30.86 167.923 30.5059C168.277 30.1519 168.698 29.8711 169.16 29.6797C169.623 29.4882 170.119 29.3898 170.619 29.3902L178.255 29.3944C178.869 29.3949 179.458 29.6392 179.892 30.0737C180.326 30.5081 180.57 31.0972 180.57 31.7114V35.1054C180.57 35.3084 180.61 35.5094 180.687 35.6969C180.765 35.8844 180.879 36.0548 181.022 36.1983C181.166 36.3419 181.336 36.4557 181.524 36.5333C181.712 36.611 181.913 36.6509 182.116 36.6509H182.924C183.192 36.6508 183.455 36.581 183.688 36.4483C183.921 36.3156 184.115 36.1247 184.252 35.8942V37.294H185.481V32.0786C185.481 31.4525 185.357 30.8326 185.118 30.2542C184.878 29.6758 184.527 29.1502 184.084 28.7075C183.642 28.2648 183.116 27.9136 182.538 27.6741C181.959 27.4345 181.339 27.3112 180.713 27.3113Z" fill="#0F1011"/>
<path d="M184.252 33.2027V37.2948H166.807V33.2027C166.807 32.702 166.906 32.2061 167.097 31.7435C167.289 31.2808 167.569 30.8604 167.923 30.5064C168.277 30.1524 168.698 29.8716 169.161 29.6801C169.623 29.4887 170.119 29.3903 170.62 29.3906H180.439C180.94 29.3903 181.436 29.4887 181.899 29.6801C182.361 29.8716 182.782 30.1524 183.136 30.5064C183.49 30.8604 183.771 31.2808 183.962 31.7435C184.154 32.2061 184.252 32.702 184.252 33.2027Z" fill="#0F1011"/>
<path d="M186.947 36.9865C186.946 36.2395 186.672 35.5187 186.175 34.961C185.678 34.4032 184.993 34.0475 184.251 33.9615V33.2027C184.251 32.1916 183.85 31.222 183.135 30.5071C182.42 29.7923 181.45 29.3906 180.439 29.3906H170.619C169.608 29.3906 168.638 29.7923 167.923 30.5071C167.208 31.222 166.807 32.1916 166.807 33.2027V34.0264C166.141 34.1853 165.549 34.5639 165.125 35.101C164.701 35.638 164.47 36.3023 164.47 36.9865C164.47 37.6707 164.701 38.3349 165.125 38.872C165.549 39.4091 166.141 39.7876 166.807 39.9466V40.7703C166.807 41.7813 167.208 42.7509 167.923 43.4658C168.638 44.1807 169.608 44.5823 170.619 44.5823H180.439C180.94 44.5824 181.436 44.4838 181.898 44.2923C182.361 44.1007 182.781 43.8199 183.135 43.4659C183.489 43.1119 183.77 42.6917 183.962 42.2292C184.153 41.7667 184.252 41.2709 184.252 40.7703V40.0115C184.994 39.9254 185.678 39.5697 186.175 39.012C186.672 38.4543 186.946 37.7334 186.947 36.9865Z" fill="#262626"/>
<path opacity="0.08" d="M186.947 36.9865C186.946 36.2395 186.672 35.5187 186.175 34.961C185.678 34.4032 184.993 34.0475 184.251 33.9615V33.2027C184.251 32.1916 183.85 31.222 183.135 30.5071C182.42 29.7923 181.45 29.3906 180.439 29.3906H170.619C169.608 29.3906 168.638 29.7923 167.923 30.5071C167.208 31.222 166.807 32.1916 166.807 33.2027V34.0264C166.141 34.1853 165.549 34.5639 165.125 35.101C164.701 35.638 164.47 36.3023 164.47 36.9865C164.47 37.6707 164.701 38.3349 165.125 38.872C165.549 39.4091 166.141 39.7876 166.807 39.9466V40.7703C166.807 41.7813 167.208 42.7509 167.923 43.4658C168.638 44.1807 169.608 44.5823 170.619 44.5823H180.439C180.94 44.5824 181.436 44.4838 181.898 44.2923C182.361 44.1007 182.781 43.8199 183.135 43.4659C183.489 43.1119 183.77 42.6917 183.962 42.2292C184.153 41.7667 184.252 41.2709 184.252 40.7703V40.0115C184.994 39.9253 185.678 39.5696 186.175 39.0119C186.672 38.4542 186.946 37.7334 186.947 36.9865Z" fill="black"/>
<path d="M168.832 49.7236H182.226C183.345 49.7236 184.252 48.8169 184.252 47.6984V40.6991C184.252 39.5805 183.345 38.6738 182.226 38.6738H168.832C167.713 38.6738 166.807 39.5805 166.807 40.6991V47.6984C166.807 48.8169 167.713 49.7236 168.832 49.7236Z" fill="#0F1011"/>
<path d="M177.16 35.8573C177.639 35.8573 178.027 35.4692 178.027 34.9905C178.027 34.5118 177.639 34.1238 177.16 34.1238C176.682 34.1238 176.294 34.5118 176.294 34.9905C176.294 35.4692 176.682 35.8573 177.16 35.8573Z" fill="#0F1011"/>
<path d="M171.142 35.8573C171.62 35.8573 172.009 35.4692 172.009 34.9905C172.009 34.5118 171.62 34.1238 171.142 34.1238C170.663 34.1238 170.275 34.5118 170.275 34.9905C170.275 35.4692 170.663 35.8573 171.142 35.8573Z" fill="#0F1011"/>
<path d="M169.607 33.3128L172.582 33.9034C172.836 33.9539 173.084 33.7888 173.134 33.5345C173.184 33.2802 173.019 33.0332 172.765 32.9827L169.79 32.392C169.535 32.3416 169.288 32.5067 169.238 32.761C169.187 33.0152 169.353 33.2623 169.607 33.3128Z" fill="#0F1011"/>
<path d="M178.721 32.3912L175.745 32.9818C175.491 33.0323 175.326 33.2794 175.376 33.5336C175.427 33.7879 175.674 33.9531 175.928 33.9026L178.903 33.3119C179.158 33.2614 179.323 33.0144 179.272 32.7601C179.222 32.5058 178.975 32.3407 178.721 32.3912Z" fill="#0F1011"/>
<path opacity="0.08" d="M173.893 37.446H173.894C174.133 37.446 174.327 37.2521 174.327 37.0128V36.2904C174.327 36.0511 174.133 35.8572 173.894 35.8572H173.893C173.654 35.8572 173.46 36.0511 173.46 36.2904V37.0128C173.46 37.2521 173.654 37.446 173.893 37.446Z" fill="black"/>
<path d="M173.775 42.0651L177.516 41.337C177.591 41.3263 177.664 41.3009 177.729 41.2623C177.794 41.2237 177.851 41.1726 177.897 41.1119C177.942 41.0512 177.976 40.9822 177.994 40.9087C178.013 40.8352 178.017 40.7587 178.007 40.6836C177.996 40.6085 177.971 40.5363 177.932 40.471C177.893 40.4057 177.842 40.3487 177.782 40.3031C177.721 40.2576 177.652 40.2244 177.578 40.2056C177.505 40.1868 177.428 40.1826 177.353 40.1933L173.612 40.9211C173.46 40.9426 173.323 41.0236 173.231 41.1461C173.139 41.2686 173.099 41.4227 173.121 41.5744C173.143 41.7261 173.224 41.863 173.346 41.9551C173.469 42.0471 173.623 42.0866 173.775 42.0651Z" fill="white"/>
<path d="M179.379 29.3947C179.993 29.3952 180.582 29.6395 181.016 30.074C181.45 30.5084 181.694 31.0975 181.694 31.7117V33.6872C181.694 34.0631 181.843 34.4237 182.109 34.6895C182.375 34.9553 182.735 35.1046 183.111 35.1046C183.297 35.1046 183.481 35.068 183.653 34.9967C183.825 34.9255 183.982 34.8211 184.113 34.6895C184.245 34.5579 184.349 34.4016 184.421 34.2296C184.492 34.0577 184.528 33.8733 184.528 33.6872V29.3905L179.151 27.8545L179.379 29.3947Z" fill="#0F1011"/>
<path d="M106.574 27.3113H106.574C103.684 27.3113 101.341 29.654 101.341 32.5439V48.0933C101.341 50.9832 103.684 53.326 106.574 53.326H106.574C109.464 53.326 111.807 50.9832 111.807 48.0933V32.5439C111.807 29.654 109.464 27.3113 106.574 27.3113Z" fill="#0F1011"/>
<path d="M114.809 27.6831H114.809C110.628 27.6831 107.24 31.0719 107.24 35.2521V38.7492C107.24 42.9294 110.628 46.3182 114.809 46.3182H114.809C118.989 46.3182 122.378 42.9294 122.378 38.7492V35.2521C122.378 31.0719 118.989 27.6831 114.809 27.6831Z" fill="#0CBC8B"/>
<path d="M110.336 37.8835C110.336 36.3503 109.093 35.1074 107.56 35.1074C106.026 35.1074 104.784 36.3503 104.784 37.8835C104.784 39.4168 106.026 40.6597 107.56 40.6597C109.093 40.6597 110.336 39.4168 110.336 37.8835Z" fill="#0CBC8B"/>
<path d="M115.084 37.8632C115.52 37.8632 115.874 37.5097 115.874 37.0737C115.874 36.6377 115.52 36.2842 115.084 36.2842C114.648 36.2842 114.295 36.6377 114.295 37.0737C114.295 37.5097 114.648 37.8632 115.084 37.8632Z" fill="#0F1011"/>
<path d="M120.224 37.8632C120.66 37.8632 121.014 37.5097 121.014 37.0737C121.014 36.6377 120.66 36.2842 120.224 36.2842C119.788 36.2842 119.435 36.6377 119.435 37.0737C119.435 37.5097 119.788 37.8632 120.224 37.8632Z" fill="#0F1011"/>
<path d="M121.174 34.7064L118.463 35.2446C118.231 35.2906 118.081 35.5157 118.127 35.7474C118.173 35.9791 118.398 36.1297 118.63 36.0836L121.34 35.5455C121.572 35.4995 121.723 35.2743 121.677 35.0426C121.631 34.8109 121.406 34.6604 121.174 34.7064Z" fill="#0F1011"/>
<path d="M112.931 35.5455L115.642 36.0837C115.873 36.1297 116.099 35.9792 116.145 35.7474C116.191 35.5157 116.04 35.2906 115.808 35.2446L113.098 34.7064C112.866 34.6604 112.641 34.8109 112.595 35.0426C112.549 35.2743 112.699 35.4995 112.931 35.5455Z" fill="#0F1011"/>
<path opacity="0.08" d="M117.829 38.2583C117.829 38.0403 117.652 37.8635 117.434 37.8635C117.216 37.8635 117.039 38.0403 117.039 38.2583V38.9165C117.039 39.1346 117.216 39.3113 117.434 39.3113C117.652 39.3113 117.829 39.1346 117.829 38.9165V38.2583Z" fill="black"/>
<path d="M118.633 40.9346H115.452C115.165 40.9346 114.933 41.1669 114.933 41.4535V41.4538C114.933 41.7404 115.165 41.9728 115.452 41.9728H118.633C118.919 41.9728 119.152 41.7404 119.152 41.4538V41.4535C119.152 41.1669 118.919 40.9346 118.633 40.9346Z" fill="white"/>
<path d="M122.599 33.4115C122.599 31.5042 121.842 29.675 120.493 28.3263C119.144 26.9777 117.315 26.22 115.408 26.22H114.099C112.191 26.22 110.362 26.9776 109.013 28.3262C107.665 29.6748 106.907 31.5039 106.907 33.4112V36.5861C106.907 36.8113 106.951 37.0342 107.037 37.2422C107.124 37.4502 107.25 37.6392 107.409 37.7984C107.568 37.9576 107.757 38.0839 107.965 38.1701C108.173 38.2562 108.396 38.3006 108.621 38.3006C108.847 38.3006 109.07 38.2563 109.278 38.1702C109.486 38.084 109.675 37.9578 109.834 37.7986C109.993 37.6394 110.12 37.4503 110.206 37.2423C110.292 37.0343 110.336 36.8113 110.336 36.5861V34.8057C110.336 34.4359 110.483 34.0813 110.745 33.8199C111.006 33.5584 111.361 33.4115 111.73 33.4115H122.599Z" fill="#0F1011"/>
</svg>
