<svg width="549" height="381" viewBox="0 0 549 381" fill="none" xmlns="http://www.w3.org/2000/svg">
<path opacity="0.2" d="M164.131 49.3924L163.74 49.2939L39.8905 308.584L476.487 342.287L476.979 342.325L492.976 131.84L493.008 131.426L164.131 49.3924ZM289.551 216.139L41.6088 307.27L164.107 50.8105L289.551 216.139ZM290.278 216.92L474.705 341.16L42.9335 307.832L290.278 216.92ZM290.506 215.771L165.248 50.6836L490.926 131.919L290.506 215.771ZM476.099 340.914L291.377 216.473L491.933 132.565L476.099 340.914Z" fill="#367CFF"/>
<path d="M548.777 136.224C548.382 146.206 545.577 155.944 540.6 164.605C535.624 173.267 528.624 180.596 520.199 185.964C511.774 191.332 502.175 194.581 492.222 195.433C482.268 196.284 472.257 194.713 463.042 190.854C458.721 189.043 454.622 186.74 450.827 183.992C443.574 178.755 437.537 172.014 433.129 164.229V164.222C428.43 155.896 425.725 146.593 425.227 137.044C424.729 127.496 426.452 117.962 430.261 109.192C434.07 100.422 439.86 92.655 447.177 86.5004C454.494 80.3459 463.139 75.9719 472.432 73.722C481.724 71.4722 491.412 71.4078 500.734 73.5339C510.056 75.66 518.758 79.9187 526.156 85.9754C533.555 92.0321 539.448 99.7219 543.373 108.44C547.298 117.159 549.147 126.669 548.777 136.223L548.777 136.224Z" fill="white"/>
<path opacity="0.09" d="M548.777 136.224C548.382 146.206 545.577 155.944 540.6 164.605C535.624 173.267 528.624 180.596 520.199 185.964C511.774 191.332 502.175 194.581 492.222 195.433C482.268 196.284 472.257 194.713 463.042 190.854C458.721 189.043 454.622 186.74 450.827 183.992C443.574 178.755 437.537 172.014 433.129 164.229V164.222C428.43 155.896 425.725 146.593 425.227 137.044C424.729 127.496 426.452 117.962 430.261 109.192C434.07 100.422 439.86 92.655 447.177 86.5004C454.494 80.3459 463.139 75.9719 472.432 73.722C481.724 71.4722 491.412 71.4078 500.734 73.5339C510.056 75.66 518.758 79.9187 526.156 85.9754C533.555 92.0321 539.448 99.7219 543.373 108.44C547.298 117.159 549.147 126.669 548.777 136.223L548.777 136.224Z" fill="#367CFF"/>
<path d="M501.605 86.7312C501.605 86.7312 516.389 86.9123 511.292 107.287L509.904 107.355L507.085 107.492" fill="#0C0C0C"/>
<path d="M485.097 128.663C485.166 128.657 485.438 141.365 500.21 140.831C510.436 140.463 514.492 129.785 514.726 129.794C513.636 129.518 511.797 129.105 511.319 128.827C509.747 127.902 507.795 126.927 507.399 123.789C507.17 121.98 508.033 112.806 507.948 110.982L492.16 113.868C492.23 117.717 493.415 126.678 487.989 128.046C487.086 128.272 486.115 128.474 485.097 128.663Z" fill="#E98862"/>
<path opacity="0.52" d="M491.526 124.539C491.802 123.759 491.991 122.95 492.091 122.128C492.336 120.253 492.375 118.357 492.208 116.474C495.406 116.168 498.454 114.971 501.005 113.019C501.254 114.102 502.671 118.856 502.186 119.859C501.276 121.756 497.224 124.761 491.526 124.539Z" fill="#0C0C0C"/>
<path d="M495.109 122.294C501.298 121.851 508.764 118.083 509.023 109.697L509.258 102.131C509.517 93.7463 505.321 86.8125 497.429 86.5684C489.534 86.3224 483.422 92.9388 483.163 101.324L483.059 104.673C483.044 105.824 483.107 106.975 483.247 108.118C483.598 111.139 484.142 115.733 486.132 118.87C488.009 121.831 491.156 122.576 495.109 122.294Z" fill="#E98862"/>
<path d="M508.454 112.238C510.853 112.311 512.878 109.805 512.952 107.406C513.026 105.007 511.122 103.623 508.723 103.549L507.437 105.118L506.391 112.174L508.454 112.238Z" fill="#E98862"/>
<path d="M483.569 110.65C484.002 111.164 484.557 111.561 485.183 111.806C485.81 112.05 486.487 112.134 487.154 112.05C488.581 111.871 489.527 112.456 490.719 112.339C491.719 112.24 491.892 111.778 493.598 111.677C500.186 111.287 505.129 110.872 505.45 102.605L509.642 98.8818C509.642 98.8818 511.515 121.789 499.125 124.834C491.512 126.704 484.371 126.02 483.453 118.87C482.707 113.06 483.569 110.65 483.569 110.65Z" fill="#0C0C0C"/>
<path d="M486.69 105.866C487.227 105.866 487.663 105.43 487.663 104.893C487.663 104.356 487.227 103.92 486.69 103.92C486.153 103.92 485.717 104.356 485.717 104.893C485.717 105.43 486.153 105.866 486.69 105.866Z" fill="#0C0C0C"/>
<path d="M495.381 105.685C495.918 105.685 496.354 105.249 496.354 104.712C496.354 104.175 495.918 103.739 495.381 103.739C494.844 103.739 494.408 104.175 494.408 104.712C494.408 105.249 494.844 105.685 495.381 105.685Z" fill="#0C0C0C"/>
<path d="M506.137 108.338C506.137 108.338 505.543 96.4559 501.958 95.6573C499.57 95.1253 493.696 98.4193 488.331 97.2944C485.985 96.8023 483.738 97.3436 483.49 98.4527C483.392 98.8917 481.535 94.9989 485.311 90.2622C488.317 86.4909 498.092 85.43 502.441 86.7635C514.483 90.457 509.209 104.081 509.209 104.081L508.594 108.162L506.137 108.338Z" fill="#0C0C0C"/>
<path d="M511.609 98.7569C515.154 98.7569 518.027 95.8836 518.027 92.3393C518.027 88.7949 515.154 85.9216 511.609 85.9216C508.065 85.9216 505.192 88.7949 505.192 92.3393C505.192 95.8836 508.065 98.7569 511.609 98.7569Z" fill="#0C0C0C"/>
<g opacity="0.52">
<path d="M490.836 111.957H490.821C490.048 111.935 488.754 111.812 488.769 111.234C488.783 110.754 490.241 105.618 490.408 105.033C490.422 104.983 490.456 104.941 490.501 104.915C490.547 104.89 490.601 104.884 490.651 104.898C490.701 104.912 490.744 104.946 490.769 104.991C490.795 105.037 490.801 105.091 490.787 105.141C490.139 107.416 489.173 110.919 489.163 111.243C489.235 111.382 490.031 111.538 490.832 111.561C490.884 111.561 490.934 111.581 490.972 111.617C491.009 111.654 491.03 111.704 491.031 111.756C491.031 111.808 491.011 111.858 490.975 111.896C490.938 111.933 490.888 111.954 490.836 111.955V111.957Z" fill="#0C0C0C"/>
</g>
<path d="M488.483 101.588C487.684 101.351 486.836 101.334 486.029 101.539C485.631 101.636 485.251 101.793 484.9 102.004C484.552 102.211 484.233 102.461 483.948 102.748C483.898 102.792 483.869 102.854 483.865 102.92C483.861 102.986 483.884 103.051 483.928 103.101C483.973 103.15 484.035 103.18 484.101 103.184C484.167 103.187 484.232 103.164 484.281 103.12L484.297 103.107C484.562 102.868 484.857 102.663 485.173 102.497C485.485 102.331 485.82 102.214 486.167 102.149C486.851 102.015 487.559 102.065 488.218 102.292L488.244 102.302C488.29 102.32 488.34 102.328 488.39 102.327C488.44 102.326 488.489 102.314 488.534 102.294C488.58 102.273 488.621 102.244 488.655 102.207C488.689 102.171 488.715 102.128 488.732 102.081C488.749 102.034 488.757 101.984 488.755 101.934C488.753 101.885 488.74 101.836 488.719 101.79C488.698 101.745 488.668 101.705 488.631 101.672C488.593 101.638 488.55 101.613 488.503 101.596L488.483 101.588Z" fill="#0C0C0C"/>
<path d="M494.214 102.293C494.848 102.002 495.548 101.884 496.242 101.951C496.594 101.982 496.939 102.066 497.265 102.201C497.596 102.335 497.909 102.511 498.197 102.723L498.213 102.734C498.266 102.769 498.331 102.782 498.394 102.77C498.457 102.759 498.513 102.724 498.551 102.672C498.588 102.621 498.605 102.557 498.597 102.493C498.589 102.43 498.557 102.372 498.508 102.331C498.196 102.073 497.854 101.856 497.488 101.684C497.118 101.508 496.724 101.389 496.319 101.33C495.495 101.206 494.653 101.306 493.881 101.619C493.791 101.658 493.719 101.731 493.682 101.823C493.645 101.914 493.645 102.017 493.683 102.108C493.721 102.199 493.793 102.272 493.884 102.31C493.975 102.349 494.078 102.35 494.17 102.313L494.188 102.305L494.214 102.293Z" fill="#0C0C0C"/>
<path d="M533.626 160.395C533.076 164.55 532.539 170.257 532.059 176.157C530.185 178.151 528.181 180.02 526.061 181.75C524.713 182.845 523.322 183.886 521.887 184.873C514.13 190.168 505.271 193.63 495.98 194.998C486.688 196.366 477.207 195.603 468.253 192.768C468.131 187.288 467.965 179.895 467.8 173.122C467.61 165.309 467.419 158.314 467.316 156.015C466.892 146.893 464.474 140.807 466.302 135.83C466.848 134.357 467.727 133.029 468.87 131.951C473.129 127.783 483.708 127.878 487.951 128.042C488.025 128.045 486.714 137.838 500.675 137.72C510.936 137.636 511.706 128.964 511.706 128.964C511.706 128.964 516.762 129.49 520.12 130.073C525.613 131.035 529.184 133.05 531.962 136.058C534.555 138.864 536.085 141.842 533.626 160.395Z" fill="#367CFF"/>
<path d="M451.551 129.008L451.974 118.559C451.983 118.329 451.945 118.099 451.861 117.885C451.777 117.671 451.649 117.477 451.486 117.315C451.323 117.153 451.128 117.027 450.913 116.944C450.698 116.862 450.469 116.825 450.239 116.836C449.816 116.87 449.421 117.061 449.13 117.37C448.839 117.679 448.673 118.085 448.664 118.509L448.574 120.75L445.623 113.574C445.309 112.771 444.409 111.985 443.531 112.397C443.183 112.534 442.891 112.784 442.703 113.108C442.516 113.431 442.443 113.809 442.498 114.179C442.489 114.18 442.481 114.181 442.473 114.184C442.468 114.187 442.462 114.191 442.457 114.195L441.973 112.956C441.883 112.726 441.744 112.52 441.564 112.351C441.384 112.182 441.169 112.056 440.934 111.981C440.699 111.906 440.451 111.885 440.207 111.918C439.962 111.951 439.729 112.039 439.523 112.174C439.202 112.393 438.967 112.716 438.856 113.088C438.745 113.46 438.765 113.859 438.913 114.217L439.119 114.745C439.107 114.758 439.097 114.773 439.089 114.789C438.867 114.466 438.538 114.231 438.159 114.128C437.781 114.025 437.378 114.06 437.022 114.227C436.639 114.421 436.343 114.753 436.193 115.155C436.043 115.558 436.051 116.003 436.214 116.4L436.726 117.71C436.706 117.697 436.683 117.688 436.659 117.686C436.635 117.683 436.61 117.686 436.587 117.694C436.561 117.706 436.538 117.725 436.523 117.75C436.245 117.516 435.898 117.38 435.535 117.363C435.173 117.345 434.815 117.448 434.516 117.654C434.207 117.877 433.982 118.197 433.877 118.564C433.773 118.931 433.795 119.322 433.941 119.675L438.26 130.726C438.864 132.272 439.916 133.603 441.282 134.547C442.647 135.491 444.263 136.006 445.923 136.026C447.354 136.043 448.735 135.501 449.774 134.516C450.812 133.53 451.425 132.179 451.483 130.749L451.551 129.008Z" fill="#E98862"/>
<g opacity="0.2">
<path d="M445.382 121.296C445.345 121.311 445.303 121.31 445.267 121.294C445.23 121.278 445.201 121.249 445.186 121.212L442.389 114.383C442.38 114.364 442.375 114.344 442.375 114.323C442.374 114.303 442.377 114.282 442.385 114.263C442.393 114.243 442.404 114.226 442.418 114.211C442.433 114.196 442.45 114.184 442.47 114.176C442.489 114.169 442.509 114.165 442.53 114.165C442.551 114.165 442.571 114.17 442.59 114.179C442.609 114.187 442.626 114.199 442.64 114.215C442.654 114.23 442.665 114.248 442.672 114.268L445.468 121.096C445.476 121.115 445.48 121.135 445.48 121.155C445.48 121.175 445.476 121.195 445.468 121.213C445.46 121.232 445.449 121.248 445.435 121.263C445.42 121.277 445.403 121.288 445.385 121.295L445.382 121.296Z" fill="#0C0C0C"/>
</g>
<g opacity="0.2">
<path d="M442.405 122.613C442.367 122.628 442.326 122.627 442.289 122.611C442.252 122.595 442.223 122.565 442.208 122.528L439.087 114.907C439.072 114.87 439.073 114.829 439.089 114.792C439.104 114.755 439.134 114.726 439.171 114.711C439.208 114.697 439.249 114.698 439.285 114.714C439.322 114.729 439.351 114.758 439.368 114.794L442.488 122.415C442.504 122.452 442.503 122.494 442.488 122.531C442.472 122.569 442.442 122.598 442.405 122.614V122.613Z" fill="#0C0C0C"/>
</g>
<g opacity="0.2">
<path d="M439.188 124.057C439.151 124.072 439.109 124.071 439.072 124.055C439.035 124.039 439.006 124.009 438.991 123.972L436.502 117.894C436.487 117.856 436.487 117.814 436.502 117.777C436.518 117.739 436.548 117.71 436.585 117.694C436.623 117.679 436.665 117.679 436.702 117.695C436.739 117.711 436.769 117.74 436.784 117.778L439.275 123.855C439.29 123.893 439.29 123.935 439.275 123.972C439.259 124.009 439.229 124.039 439.192 124.054L439.188 124.057Z" fill="#0C0C0C"/>
</g>
<path d="M486.141 145.39L460.71 184.488C459.785 185.909 458.546 187.099 457.089 187.967C454.922 186.772 452.83 185.444 450.827 183.992C446.555 180.91 442.696 177.295 439.342 173.234L434 131.819L455.377 128.394L457.815 148.328L467.581 133.314L486.141 145.39Z" fill="#367CFF"/>
<path d="M489.122 114.09C491.455 114.245 493.773 113.618 495.709 112.308C495.777 112.263 495.855 112.238 495.936 112.236C496.017 112.234 496.097 112.255 496.166 112.297C496.236 112.338 496.292 112.399 496.328 112.471C496.364 112.544 496.379 112.625 496.371 112.705C496.215 114.083 495.534 116.617 492.643 116.94C490.777 117.148 489.424 115.715 488.743 114.762C488.696 114.696 488.668 114.618 488.664 114.537C488.66 114.456 488.679 114.375 488.718 114.305C488.758 114.234 488.818 114.176 488.889 114.138C488.961 114.1 489.042 114.084 489.122 114.09Z" fill="white"/>
<path d="M540.522 164.79C536.764 171.269 531.865 177.015 526.061 181.75C524.713 182.845 523.322 183.886 521.887 184.873L511.955 147.086L534.323 141.202L540.522 164.79Z" fill="#367CFF"/>
<path d="M522.105 184.725C522.034 184.771 521.957 184.823 521.887 184.873C521.817 184.922 521.746 184.971 521.675 185.017L514.105 156.23L514.582 156.106L522.105 184.725Z" fill="#0C0C0C"/>
<path d="M467.86 174.901C467.798 174.899 467.74 174.873 467.696 174.83C467.653 174.786 467.627 174.728 467.624 174.667L467.136 163.939C467.133 163.874 467.156 163.81 467.2 163.762C467.244 163.714 467.306 163.685 467.371 163.682C467.436 163.679 467.5 163.703 467.548 163.747C467.596 163.791 467.625 163.852 467.628 163.917L468.116 174.645C468.119 174.71 468.096 174.773 468.052 174.821C468.008 174.87 467.946 174.898 467.881 174.901H467.86Z" fill="#0C0C0C"/>
<path d="M283.888 274.167C318.705 274.167 346.93 245.942 346.93 211.125C346.93 176.308 318.705 148.083 283.888 148.083C249.071 148.083 220.846 176.308 220.846 211.125C220.846 245.942 249.071 274.167 283.888 274.167Z" fill="white"/>
<path opacity="0.09" d="M346.931 211.123C346.931 223.592 343.233 235.78 336.306 246.147C329.379 256.514 319.533 264.594 308.014 269.366C296.495 274.137 283.819 275.385 271.591 272.953C259.362 270.521 248.129 264.516 239.313 255.7C230.496 246.884 224.492 235.651 222.059 223.422C219.627 211.193 220.875 198.518 225.647 186.998C230.418 175.479 238.498 165.633 248.866 158.706C259.233 151.779 271.421 148.082 283.889 148.082C292.177 148.051 300.388 149.661 308.05 152.818C315.713 155.976 322.674 160.618 328.535 166.478C334.395 172.338 339.037 179.3 342.194 186.962C345.351 194.624 346.961 202.836 346.931 211.123Z" fill="#367CFF"/>
<path d="M255.982 173.941C255.982 173.941 255.348 183.458 253.207 186.911C247.043 196.851 245.257 208.033 251.43 213.876C257.603 219.72 296.974 219.8 299.956 206.362C302.466 195.05 297.079 193.833 295.768 184.501C295.174 180.278 293.542 171.424 293.542 171.424" fill="#0A0A0A"/>
<path d="M289.766 204.391C289.698 204.382 288.944 216.896 274.406 215.807C264.342 215.053 260.754 204.375 260.523 204.375C261.608 204.145 263.435 203.809 263.918 203.552C265.503 202.7 267.464 201.815 267.975 198.737C268.27 196.965 267.769 187.888 267.925 186.094L283.374 189.542C283.158 193.331 281.647 202.119 286.942 203.674C287.82 203.929 288.77 204.166 289.766 204.391Z" fill="#E98862"/>
<path opacity="0.5" d="M283.587 200.082C283.345 199.302 283.19 198.497 283.123 197.684C282.953 195.827 282.987 193.957 283.224 192.107C280.084 191.683 277.126 190.388 274.686 188.367C274.399 189.427 272.821 194.056 273.259 195.063C274.086 196.965 277.963 200.082 283.587 200.082Z" fill="#0C0C0C"/>
<path d="M281.59 196.183C275.499 196.773 267.618 194.336 265.986 186.225L264.513 178.906C262.881 170.795 265.817 163.363 273.454 161.826C281.091 160.289 288.123 165.713 289.755 173.826L290.407 177.066C291.034 180.178 292.457 195.131 281.59 196.183Z" fill="#E98862"/>
<path opacity="0.1" d="M277.718 185.556C278.72 185.437 279.461 184.744 279.374 184.008C279.286 183.273 278.402 182.774 277.4 182.893C276.398 183.013 275.657 183.706 275.744 184.441C275.832 185.177 276.716 185.676 277.718 185.556Z" fill="#0C0C0C"/>
<path opacity="0.1" d="M288.309 182.615C288.399 183.349 289.282 183.845 290.285 183.729C290.458 183.708 290.629 183.67 290.794 183.614C290.84 182.739 290.843 181.896 290.818 181.117C290.539 181.047 290.25 181.031 289.966 181.067C288.964 181.185 288.223 181.878 288.309 182.615Z" fill="#0C0C0C"/>
<path opacity="0.5" d="M283.881 184.884H283.895C284.205 184.819 284.51 184.737 284.811 184.638C285.259 184.49 285.844 184.242 285.764 183.836C285.671 183.374 283.402 178.643 283.143 178.104C283.119 178.06 283.078 178.027 283.03 178.012C282.983 177.996 282.931 178 282.885 178.022C282.84 178.043 282.804 178.082 282.787 178.129C282.769 178.176 282.769 178.228 282.789 178.275C283.757 180.292 285.316 183.603 285.378 183.914C285.329 184.059 284.586 184.342 283.818 184.497C283.769 184.509 283.726 184.538 283.698 184.579C283.67 184.621 283.659 184.671 283.667 184.721C283.675 184.77 283.702 184.815 283.741 184.845C283.781 184.876 283.831 184.89 283.881 184.885V184.884Z" fill="#0C0C0C"/>
<path d="M258.419 181.533L265.266 180.196C270.438 178.031 271.905 169.02 271.905 169.02C271.905 169.02 278.288 175.098 293.542 171.423C293.542 171.423 290.229 150.127 267.704 156.591C260.441 158.675 255.297 166.079 256.062 175.884C256.598 182.756 258.419 181.533 258.419 181.533Z" fill="#0A0A0A"/>
<path d="M266.958 188.6C264.637 189.067 262.256 186.963 261.791 184.642C261.326 182.321 262.947 180.663 265.268 180.196L266.777 181.51L268.955 188.199L266.958 188.6Z" fill="#E98862"/>
<path d="M284.789 174.331C285.369 173.92 286.049 173.67 286.757 173.607C287.113 173.574 287.472 173.593 287.822 173.666C288.174 173.738 288.517 173.854 288.841 174.011L288.851 174.015C288.887 174.029 288.927 174.03 288.963 174.016C288.999 174.001 289.028 173.974 289.044 173.939C289.061 173.905 289.063 173.865 289.051 173.828C289.039 173.792 289.013 173.761 288.979 173.743C288.636 173.561 288.271 173.424 287.893 173.334C287.513 173.242 287.121 173.207 286.731 173.231C285.94 173.275 285.175 173.53 284.516 173.969C284.491 173.985 284.469 174.007 284.452 174.032C284.434 174.056 284.422 174.085 284.416 174.114C284.41 174.144 284.41 174.174 284.416 174.204C284.422 174.234 284.434 174.262 284.451 174.287C284.468 174.312 284.49 174.333 284.515 174.35C284.541 174.366 284.569 174.377 284.599 174.382C284.629 174.387 284.66 174.387 284.689 174.38C284.718 174.373 284.746 174.36 284.771 174.342L284.776 174.339L284.789 174.331Z" fill="#0C0C0C"/>
<path d="M278.535 175.195C277.757 175.04 276.953 175.097 276.205 175.36C275.835 175.487 275.486 175.67 275.171 175.901C274.857 176.129 274.572 176.395 274.324 176.694C274.299 176.724 274.286 176.762 274.289 176.801C274.292 176.84 274.309 176.877 274.338 176.903C274.367 176.929 274.405 176.943 274.444 176.942C274.482 176.941 274.519 176.925 274.547 176.897L274.555 176.889C274.794 176.619 275.066 176.381 275.364 176.18C275.659 175.978 275.983 175.822 276.325 175.717C277.004 175.505 277.727 175.475 278.42 175.632L278.438 175.636C278.467 175.644 278.497 175.646 278.527 175.642C278.557 175.637 278.585 175.627 278.611 175.612C278.637 175.597 278.659 175.576 278.677 175.552C278.695 175.528 278.708 175.5 278.715 175.471C278.722 175.442 278.723 175.412 278.719 175.382C278.714 175.352 278.703 175.324 278.687 175.298C278.671 175.273 278.65 175.251 278.626 175.233C278.601 175.216 278.573 175.204 278.544 175.197L278.535 175.195Z" fill="#0C0C0C"/>
<path d="M265.271 180.084C269.873 178.371 271.4 175.192 271.871 172.827C272.175 171.25 272.147 169.626 271.787 168.06L271.644 168.1C271.999 169.645 272.026 171.247 271.725 172.804C271.261 175.13 269.756 178.258 265.219 179.945L265.271 180.084Z" fill="#0C0C0C"/>
<path d="M323.46 201.898L326.215 192.549C326.276 192.344 326.378 192.153 326.517 191.989C326.655 191.826 326.825 191.693 327.018 191.599C327.21 191.505 327.42 191.452 327.634 191.444C327.848 191.435 328.061 191.472 328.261 191.55C328.624 191.707 328.916 191.992 329.081 192.352C329.245 192.712 329.27 193.12 329.151 193.497L328.56 195.501L333.31 190.05C333.828 189.435 334.856 189.01 335.508 189.637C335.775 189.861 335.958 190.17 336.027 190.511C336.096 190.853 336.047 191.208 335.888 191.518C335.895 191.521 335.901 191.526 335.908 191.53C335.912 191.535 335.915 191.539 335.918 191.545L336.716 190.595C336.864 190.42 337.05 190.279 337.259 190.184C337.468 190.089 337.695 190.042 337.925 190.046C338.155 190.051 338.38 190.106 338.586 190.208C338.791 190.311 338.971 190.458 339.113 190.639C339.33 190.928 339.441 191.283 339.428 191.644C339.414 192.006 339.277 192.352 339.04 192.624L338.7 193.028C338.708 193.044 338.712 193.06 338.713 193.077C339.006 192.858 339.367 192.75 339.732 192.772C340.097 192.795 340.443 192.946 340.706 193.2C340.987 193.486 341.149 193.867 341.161 194.267C341.173 194.668 341.033 195.058 340.77 195.36L339.926 196.363C339.948 196.357 339.971 196.356 339.993 196.361C340.015 196.366 340.036 196.376 340.053 196.39C340.073 196.408 340.087 196.432 340.094 196.459C340.409 196.336 340.756 196.32 341.082 196.414C341.407 196.508 341.692 196.706 341.894 196.978C342.1 197.267 342.202 197.617 342.184 197.972C342.166 198.327 342.029 198.665 341.795 198.933L334.678 207.396C333.682 208.58 332.356 209.439 330.868 209.864C329.381 210.289 327.801 210.26 326.33 209.781C325.062 209.368 324.005 208.477 323.383 207.297C322.762 206.116 322.625 204.741 323.002 203.461L323.46 201.898Z" fill="#E98862"/>
<g opacity="0.2">
<path d="M331.211 196.939C331.239 196.962 331.276 196.974 331.312 196.971C331.349 196.967 331.383 196.95 331.407 196.923L335.918 191.733C335.943 191.705 335.955 191.667 335.952 191.63C335.95 191.592 335.932 191.557 335.904 191.532C335.875 191.508 335.838 191.495 335.8 191.498C335.763 191.501 335.728 191.518 335.703 191.547L331.192 196.736C331.18 196.75 331.171 196.767 331.165 196.784C331.159 196.802 331.157 196.821 331.158 196.839C331.159 196.858 331.164 196.876 331.173 196.893C331.181 196.91 331.193 196.925 331.207 196.937L331.211 196.939Z" fill="#0C0C0C"/>
</g>
<g opacity="0.2">
<path d="M333.445 198.991C333.473 199.015 333.51 199.026 333.546 199.023C333.583 199.02 333.617 199.003 333.641 198.975L338.675 193.183C338.687 193.169 338.697 193.153 338.702 193.135C338.708 193.117 338.711 193.099 338.709 193.08C338.708 193.061 338.703 193.043 338.695 193.026C338.686 193.01 338.675 192.995 338.661 192.982C338.632 192.959 338.595 192.947 338.557 192.95C338.52 192.953 338.485 192.969 338.46 192.997L333.43 198.788C333.418 198.803 333.408 198.819 333.402 198.837C333.396 198.854 333.394 198.873 333.395 198.892C333.397 198.91 333.402 198.929 333.41 198.945C333.418 198.962 333.43 198.977 333.444 198.989L333.445 198.991Z" fill="#0C0C0C"/>
</g>
<g opacity="0.2">
<path d="M335.851 201.228C335.88 201.251 335.916 201.263 335.953 201.26C335.99 201.257 336.024 201.24 336.048 201.212L340.064 196.592C340.086 196.563 340.096 196.527 340.093 196.491C340.089 196.455 340.072 196.421 340.044 196.397C340.017 196.373 339.981 196.361 339.945 196.362C339.908 196.364 339.874 196.379 339.849 196.405L335.833 201.025C335.821 201.04 335.812 201.056 335.806 201.074C335.8 201.091 335.797 201.11 335.799 201.129C335.8 201.147 335.805 201.166 335.813 201.182C335.822 201.199 335.833 201.214 335.847 201.226L335.851 201.228Z" fill="#0C0C0C"/>
</g>
<path d="M340.23 205.98L329.576 254.311C329.552 254.419 329.527 254.533 329.498 254.641C327.105 257.144 324.513 259.45 321.747 261.534C321.191 261.948 320.635 262.357 320.065 262.75C319.712 262.789 319.357 262.809 319.002 262.809C317.103 262.809 315.238 262.309 313.593 261.359C311.949 260.41 310.583 259.045 309.633 257.401L289.33 222.27L308.078 211.44L314.43 222.433L319.085 201.318L340.23 205.98Z" fill="#0CBC8B"/>
<path d="M307.443 228.015C307.379 228.782 307.251 230.15 307.074 231.951C306.188 241.158 304.116 261.678 303.157 271.16C291.035 275.035 278.026 275.167 265.828 271.539H265.823C256.815 268.842 248.525 264.161 241.564 257.839C241.603 249.361 241.48 239.825 240.909 233.693C239.202 215.373 240.816 212.505 243.468 209.852C243.685 209.636 243.911 209.424 244.137 209.217C246.878 206.728 250.318 205.104 255.332 204.424C258.649 203.977 263.638 203.652 263.638 203.652C263.638 203.652 264.062 212.204 274.134 212.676C287.848 213.321 286.933 203.652 287.002 203.652C290.452 203.652 298.128 203.869 302.97 206.334C302.975 206.334 302.975 206.334 302.98 206.339C303.955 206.813 304.842 207.451 305.603 208.223C311.148 214.099 308.412 216.611 307.443 228.015Z" fill="#0CBC8B"/>
<path d="M285.922 186.482C283.943 187.489 281.685 187.807 279.505 187.387C279.43 187.373 279.352 187.38 279.28 187.409C279.209 187.437 279.147 187.485 279.102 187.547C279.057 187.61 279.031 187.683 279.026 187.76C279.022 187.837 279.039 187.913 279.076 187.98C279.727 189.125 281.268 191.083 283.912 190.286C285.62 189.771 286.265 188.014 286.505 186.927C286.521 186.852 286.516 186.773 286.489 186.701C286.463 186.629 286.416 186.565 286.355 186.519C286.294 186.472 286.22 186.444 286.144 186.437C286.067 186.431 285.99 186.447 285.922 186.482Z" fill="white"/>
<path d="M286.046 177.681C286.574 177.681 287.002 177.253 287.002 176.725C287.002 176.197 286.574 175.769 286.046 175.769C285.518 175.769 285.09 176.197 285.09 176.725C285.09 177.253 285.518 177.681 286.046 177.681Z" fill="#0C0C0C"/>
<path d="M276.857 179.29C277.385 179.29 277.813 178.862 277.813 178.334C277.813 177.806 277.385 177.378 276.857 177.378C276.329 177.378 275.901 177.806 275.901 178.334C275.901 178.862 276.329 179.29 276.857 179.29Z" fill="#0C0C0C"/>
<path d="M305.329 248.655C305.322 248.655 305.316 248.655 305.31 248.655C305.271 248.649 305.236 248.629 305.212 248.598C305.189 248.566 305.179 248.527 305.184 248.488L306.874 231.458C306.876 231.439 306.883 231.42 306.892 231.403C306.902 231.386 306.915 231.371 306.931 231.36C306.946 231.348 306.964 231.339 306.983 231.335C307.002 231.33 307.022 231.329 307.041 231.332C307.08 231.338 307.115 231.358 307.138 231.389C307.162 231.42 307.172 231.46 307.167 231.499L305.477 248.529C305.471 248.564 305.454 248.596 305.426 248.62C305.399 248.643 305.364 248.655 305.329 248.655Z" fill="#0C0C0C"/>
<path d="M295.097 247.835L304.336 243.709C304.539 243.618 304.758 243.571 304.98 243.571C305.202 243.57 305.422 243.615 305.626 243.704C305.829 243.792 306.012 243.922 306.163 244.085C306.314 244.248 306.429 244.441 306.501 244.651C306.623 245.043 306.594 245.466 306.421 245.838C306.249 246.211 305.944 246.506 305.566 246.666L303.585 247.552L311.092 247.629C311.929 247.623 312.955 248.15 312.9 249.087C312.902 249.448 312.782 249.8 312.559 250.085C312.335 250.37 312.022 250.571 311.67 250.654C311.672 250.662 311.673 250.67 311.673 250.678C311.672 250.684 311.671 250.69 311.67 250.696L312.957 250.687C313.195 250.686 313.431 250.737 313.646 250.838C313.862 250.939 314.053 251.087 314.204 251.271C314.356 251.454 314.464 251.67 314.522 251.901C314.58 252.132 314.585 252.373 314.538 252.606C314.456 252.973 314.25 253.3 313.956 253.532C313.661 253.765 313.296 253.89 312.92 253.886L312.372 253.89C312.365 253.906 312.355 253.92 312.343 253.932C312.714 254.016 313.043 254.228 313.271 254.532C313.5 254.835 313.613 255.21 313.59 255.589C313.553 256.003 313.362 256.389 313.053 256.668C312.745 256.947 312.343 257.099 311.927 257.095L310.567 257.104C310.586 257.118 310.602 257.136 310.613 257.156C310.624 257.177 310.63 257.2 310.63 257.224C310.629 257.252 310.62 257.279 310.604 257.302C310.914 257.468 311.161 257.731 311.306 258.051C311.452 258.371 311.488 258.73 311.409 259.073C311.32 259.431 311.113 259.748 310.82 259.974C310.528 260.199 310.169 260.319 309.8 260.315L298.32 260.396C296.714 260.408 295.141 259.939 293.803 259.051C292.465 258.163 291.423 256.895 290.81 255.411C290.281 254.131 290.273 252.695 290.786 251.408C291.299 250.122 292.293 249.086 293.558 248.522L295.097 247.835Z" fill="#E98862"/>
<g opacity="0.2">
<path d="M304.239 250.614C304.239 250.653 304.255 250.69 304.282 250.718C304.31 250.746 304.347 250.761 304.387 250.761L311.526 250.826C311.565 250.826 311.602 250.811 311.63 250.783C311.658 250.756 311.674 250.719 311.674 250.679C311.675 250.64 311.66 250.603 311.632 250.575C311.605 250.547 311.567 250.531 311.528 250.531L304.388 250.466C304.349 250.466 304.311 250.482 304.284 250.509C304.256 250.537 304.24 250.575 304.24 250.614H304.239Z" fill="#0C0C0C"/>
</g>
<g opacity="0.2">
<path d="M304.124 253.763C304.124 253.802 304.139 253.84 304.167 253.867C304.195 253.895 304.232 253.911 304.271 253.911L312.238 253.983C312.277 253.983 312.315 253.967 312.342 253.939C312.37 253.912 312.386 253.874 312.386 253.835C312.385 253.796 312.369 253.759 312.341 253.732C312.314 253.704 312.277 253.688 312.238 253.687L304.271 253.615C304.232 253.615 304.194 253.631 304.167 253.659C304.139 253.686 304.124 253.724 304.124 253.763Z" fill="#0C0C0C"/>
</g>
<g opacity="0.2">
<path d="M303.979 257.17C303.979 257.209 303.995 257.246 304.022 257.274C304.05 257.302 304.088 257.317 304.127 257.317L310.482 257.375C310.521 257.375 310.559 257.359 310.586 257.332C310.614 257.304 310.63 257.266 310.63 257.227C310.63 257.188 310.614 257.15 310.586 257.123C310.559 257.095 310.521 257.08 310.482 257.08L304.127 257.022C304.088 257.022 304.05 257.038 304.022 257.066C303.995 257.093 303.979 257.131 303.979 257.17V257.17Z" fill="#0C0C0C"/>
</g>
<path d="M297.744 264.286L265.828 271.539H265.823C256.815 268.842 248.525 264.161 241.564 257.839C240.816 257.16 240.085 256.465 239.369 255.753C238.123 254.508 236.93 253.214 235.792 251.871L240.26 215.929C240.747 213.032 242.366 210.447 244.759 208.743C247.153 207.039 250.125 206.356 253.022 206.843C255.919 207.331 258.504 208.949 260.208 211.342C261.912 213.736 262.596 216.708 262.108 219.605L259.284 253.352L294.871 245.296L297.744 264.286Z" fill="#0CBC8B"/>
<path d="M252.085 254.677C252.065 254.679 252.046 254.676 252.028 254.67C252.009 254.664 251.992 254.655 251.977 254.642C251.963 254.629 251.95 254.614 251.942 254.596C251.933 254.579 251.928 254.56 251.926 254.541C251.925 254.521 251.927 254.502 251.933 254.483C251.939 254.465 251.949 254.448 251.962 254.433C251.974 254.418 251.99 254.406 252.007 254.398C252.024 254.389 252.043 254.384 252.063 254.382L259.198 252.857C259.217 252.854 259.237 252.855 259.255 252.859C259.274 252.864 259.292 252.872 259.308 252.884C259.323 252.895 259.337 252.91 259.347 252.926C259.357 252.943 259.363 252.961 259.366 252.981C259.369 253 259.368 253.019 259.363 253.038C259.359 253.057 259.35 253.075 259.339 253.09C259.327 253.106 259.313 253.119 259.296 253.129C259.279 253.139 259.261 253.146 259.242 253.148L252.104 254.674C252.098 254.676 252.091 254.677 252.085 254.677Z" fill="#0C0C0C"/>
<path d="M297.744 264.286C297.752 264.323 297.745 264.363 297.725 264.396C297.705 264.429 297.673 264.453 297.636 264.463L266.63 271.77C266.433 271.715 266.242 271.662 266.05 271.602L297.419 264.217L294.624 245.518L259.249 253.149C259.226 253.153 259.203 253.152 259.181 253.145C259.159 253.138 259.138 253.126 259.121 253.111C259.107 253.093 259.096 253.073 259.089 253.051C259.082 253.029 259.08 253.006 259.082 252.983L261.065 233.698C261.068 233.679 261.076 233.661 261.086 233.645C261.097 233.628 261.11 233.614 261.126 233.603C261.142 233.592 261.16 233.584 261.179 233.58C261.198 233.576 261.218 233.576 261.237 233.58C261.276 233.586 261.31 233.607 261.333 233.638C261.356 233.67 261.366 233.709 261.36 233.747L259.407 252.835L294.688 245.188C294.708 245.183 294.728 245.182 294.747 245.185C294.767 245.189 294.785 245.196 294.802 245.208C294.819 245.217 294.833 245.23 294.845 245.245C294.857 245.26 294.866 245.277 294.87 245.296L297.744 264.286Z" fill="#0C0C0C"/>
<path d="M57.806 346.803C89.7314 346.803 115.612 320.922 115.612 288.997C115.612 257.072 89.7314 231.191 57.806 231.191C25.8806 231.191 0 257.072 0 288.997C0 320.922 25.8806 346.803 57.806 346.803Z" fill="white"/>
<path opacity="0.09" d="M57.806 346.803C89.7314 346.803 115.612 320.922 115.612 288.997C115.612 257.072 89.7314 231.191 57.806 231.191C25.8806 231.191 0 257.072 0 288.997C0 320.922 25.8806 346.803 57.806 346.803Z" fill="#367CFF"/>
<path d="M41.8868 256.209C41.8868 256.209 42.5133 273.619 54.1336 274.419L56.1019 251.461L41.8868 256.209Z" fill="#0A0A0A"/>
<path d="M44.1248 277.976C47.9268 277.976 51.009 274.894 51.009 271.092C51.009 267.29 47.9268 264.208 44.1248 264.208C40.3228 264.208 37.2407 267.29 37.2407 271.092C37.2407 274.894 40.3228 277.976 44.1248 277.976Z" fill="#0A0A0A"/>
<path d="M71.0606 282.5C70.999 282.492 70.319 293.781 57.2042 292.797C48.1249 292.118 44.8881 282.485 44.6804 282.485C45.7179 282.313 46.7414 282.065 47.7426 281.743C49.1721 280.975 50.9411 280.176 51.4017 277.399C51.6674 275.799 51.2171 267.612 51.3554 265.993L65.292 269.104C65.0951 272.523 63.734 280.45 68.5111 281.853C69.3053 282.085 70.1615 282.299 71.0606 282.5Z" fill="#E98862"/>
<path opacity="0.5" d="M65.4869 278.613C65.2684 277.909 65.1278 277.182 65.0676 276.448C64.9146 274.772 64.9451 273.086 65.1587 271.417C62.3261 271.035 59.6576 269.866 57.4562 268.042C57.1974 268.998 55.7743 273.174 56.1685 274.082C56.9135 275.802 60.4136 278.613 65.4869 278.613Z" fill="#0C0C0C"/>
<path d="M63.3034 275.571C57.7838 275.641 50.8835 272.856 50.0283 265.442L49.2567 258.749C48.401 251.335 51.6019 244.873 58.5835 244.069C65.5645 243.264 71.4758 248.673 72.3315 256.088L72.673 259.05C73.0013 261.896 73.1518 275.446 63.3034 275.571Z" fill="#E98862"/>
<path d="M70.6723 258.851C71.1503 258.851 71.5378 258.463 71.5378 257.985C71.5378 257.507 71.1503 257.12 70.6723 257.12C70.1942 257.12 69.8067 257.507 69.8067 257.985C69.8067 258.463 70.1942 258.851 70.6723 258.851Z" fill="#0C0C0C"/>
<path d="M61.8253 259.863C62.3033 259.863 62.6908 259.475 62.6908 258.997C62.6908 258.519 62.3033 258.132 61.8253 258.132C61.3472 258.132 60.9597 258.519 60.9597 258.997C60.9597 259.475 61.3472 259.863 61.8253 259.863Z" fill="#0C0C0C"/>
<path opacity="0.5" d="M66.2156 265.587H66.2294C66.5123 265.552 66.793 265.502 67.0704 265.436C67.4847 265.335 68.0309 265.158 67.9881 264.787C67.9389 264.365 66.2565 259.94 66.0646 259.437C66.0563 259.415 66.0438 259.395 66.0278 259.378C66.0118 259.361 65.9926 259.348 65.9714 259.338C65.9501 259.329 65.9272 259.323 65.9039 259.323C65.8807 259.322 65.8575 259.326 65.8358 259.334C65.814 259.343 65.7941 259.355 65.7772 259.371C65.7603 259.387 65.7467 259.406 65.7372 259.428C65.7277 259.449 65.7225 259.472 65.7218 259.495C65.7212 259.518 65.7251 259.541 65.7334 259.563C66.4513 261.447 67.6033 264.544 67.6358 264.828C67.1928 265.078 66.6965 265.217 66.1886 265.235C66.1417 265.238 66.0982 265.261 66.0676 265.296C66.037 265.332 66.0219 265.378 66.0255 265.425C66.029 265.472 66.0511 265.515 66.0868 265.546C66.1224 265.577 66.1688 265.592 66.2156 265.588V265.587Z" fill="#0C0C0C"/>
<path opacity="0.5" d="M64.9676 268.673C66.1015 268.608 67.2043 268.278 68.1873 267.709C68.226 267.685 68.254 267.647 68.2655 267.603C68.277 267.558 68.2711 267.512 68.249 267.472C68.227 267.432 68.1904 267.402 68.147 267.388C68.1035 267.375 68.0565 267.378 68.0155 267.398C65.8927 268.573 63.8624 268.641 62.1451 267.595C62.1104 267.573 62.0746 267.552 62.0378 267.534C61.9953 267.517 61.948 267.518 61.9057 267.535C61.8635 267.553 61.8296 267.586 61.811 267.627C61.7925 267.669 61.7907 267.716 61.8061 267.759C61.8215 267.802 61.8528 267.838 61.8936 267.858C61.9069 267.865 61.9295 267.879 61.9606 267.898C62.8634 268.45 63.9105 268.72 64.9676 268.673Z" fill="#0C0C0C"/>
<path d="M43.5806 260.652L49.8364 259.966C54.6484 258.412 56.6477 250.42 56.6477 250.42C56.6477 250.42 60.9597 255.324 73.7379 253.085C73.7379 253.085 73.2429 236.611 53.8089 238.93C47.0424 239.739 41.9401 246.524 41.8874 255.397C41.851 261.614 43.5806 260.652 43.5806 260.652Z" fill="#0A0A0A"/>
<path d="M50.7226 267.651C48.6008 267.897 46.6192 265.824 46.3747 263.702C46.1301 261.581 47.7146 260.213 49.8364 259.968L51.0937 261.263L52.5468 267.44L50.7226 267.651Z" fill="#E98862"/>
<path d="M67.6111 255.826C68.2369 255.479 68.9442 255.307 69.6591 255.328C70.0122 255.335 70.362 255.396 70.6969 255.508C71.0296 255.618 71.3472 255.768 71.6422 255.957C71.6717 255.976 71.6929 256.006 71.7012 256.04C71.7096 256.074 71.7045 256.109 71.6871 256.14C71.6696 256.17 71.6411 256.192 71.6076 256.202C71.574 256.212 71.5379 256.209 71.5069 256.193L71.498 256.188C71.2186 256.022 70.9193 255.892 70.6074 255.8C70.2984 255.708 69.9772 255.663 69.6547 255.667C69.0131 255.67 68.3837 255.843 67.8306 256.168L67.8173 256.177C67.7944 256.192 67.7688 256.202 67.7419 256.207C67.715 256.212 67.6874 256.211 67.6607 256.205C67.634 256.199 67.6088 256.188 67.5866 256.172C67.5644 256.156 67.5456 256.136 67.5314 256.112C67.5172 256.089 67.5078 256.063 67.5038 256.036C67.4999 256.009 67.5014 255.981 67.5084 255.955C67.5153 255.928 67.5275 255.904 67.5442 255.882C67.5609 255.86 67.5819 255.842 67.6057 255.829L67.6111 255.826Z" fill="#0C0C0C"/>
<path d="M62.0044 256.857C61.3927 256.663 60.7404 256.635 60.1143 256.776C59.799 256.845 59.4959 256.961 59.2153 257.12C58.9318 257.279 58.6692 257.473 58.4339 257.697L58.4265 257.704C58.3997 257.723 58.3666 257.733 58.3335 257.73C58.3003 257.727 58.2694 257.712 58.2466 257.687C58.2239 257.663 58.2108 257.631 58.2099 257.598C58.2091 257.565 58.2205 257.532 58.242 257.507C58.4873 257.257 58.7631 257.039 59.0628 256.858C59.3643 256.674 59.6918 256.536 60.0341 256.45C60.7265 256.27 61.4543 256.28 62.1417 256.478C62.1682 256.485 62.1932 256.497 62.2149 256.513C62.2367 256.53 62.2549 256.551 62.2684 256.575C62.282 256.599 62.2905 256.625 62.2936 256.652C62.2967 256.679 62.2943 256.707 62.2865 256.733C62.2786 256.76 62.2656 256.784 62.2481 256.805C62.2306 256.826 62.209 256.844 62.1847 256.856C62.1603 256.869 62.1337 256.876 62.1063 256.878C62.079 256.88 62.0515 256.877 62.0255 256.868H62.0201L62.0044 256.857Z" fill="#0C0C0C"/>
<path opacity="0.52" d="M65.0862 270.349C65.2914 270.341 65.4955 270.315 65.6964 270.272C65.741 270.261 65.7797 270.233 65.8041 270.194C65.8285 270.155 65.8369 270.108 65.8274 270.063C65.8179 270.018 65.7913 269.978 65.7532 269.952C65.715 269.927 65.6684 269.917 65.623 269.925C65.3094 270.016 64.9799 270.04 64.6564 269.994C64.3329 269.948 64.023 269.834 63.7473 269.658C63.7108 269.629 63.6641 269.615 63.6173 269.619C63.5705 269.624 63.5275 269.647 63.4978 269.684C63.468 269.72 63.4539 269.767 63.4587 269.813C63.4634 269.86 63.4865 269.903 63.5229 269.933C63.9802 270.248 64.5326 270.395 65.0862 270.349Z" fill="#0C0C0C"/>
<path opacity="0.1" d="M60.6264 265.724C61.5366 265.692 62.2554 265.125 62.232 264.458C62.2087 263.79 61.4519 263.275 60.5418 263.307C59.6317 263.339 58.9128 263.906 58.9362 264.573C58.9595 265.241 59.7163 265.756 60.6264 265.724Z" fill="#0C0C0C"/>
<path opacity="0.1" d="M70.3666 263.881C70.3922 264.548 71.1486 265.062 72.0589 265.032C72.2162 265.026 72.3726 265.005 72.5254 264.967C72.6331 264.183 72.6991 263.426 72.735 262.724C72.49 262.64 72.2314 262.603 71.9728 262.615C71.0644 262.645 70.346 263.21 70.3666 263.881Z" fill="#0C0C0C"/>
<path d="M90.6476 294.391C90.6082 298.332 89.255 303.032 88.7728 308.71C88.6448 310.226 85.3917 314.61 84.9193 319.487C84.3239 325.697 85.6481 335.381 85.8252 339.568C76.6815 344.628 66.3382 347.116 55.8938 346.77C45.4494 346.423 35.2938 343.254 26.5056 337.6C26.2694 326.843 25.9889 313.562 25.6297 310.378C24.4635 299.868 24.7784 293.22 26.4613 290.11C29.212 285.031 34.1082 283.481 39.2307 282.783C42.3603 282.36 47.0596 282.059 47.0596 282.059C47.0596 282.059 47.4582 290.115 56.9552 290.562C69.882 291.173 69.0209 282.059 69.0848 282.059C73.7743 282.059 82.6612 283.181 86.0663 285.504C89.6782 287.959 90.6918 290.872 90.6476 294.391Z" fill="#FFC239"/>
<path d="M45.987 300.522L28.4494 338.793C21.7158 334.818 15.8572 329.52 11.2268 323.219L25.8562 291.293L45.987 300.522Z" fill="#FFC239"/>
<path d="M104.814 322.641C101.379 327.434 97.232 331.675 92.5174 335.218C90.9656 336.39 89.3544 337.48 87.6902 338.485L69.6901 298.913L89.8455 289.74L104.814 322.641Z" fill="#FFC239"/>
<path d="M178.109 120.37C211.349 120.37 238.295 93.4245 238.295 60.1852C238.295 26.9458 211.349 0 178.109 0C144.87 0 117.924 26.9458 117.924 60.1852C117.924 93.4245 144.87 120.37 178.109 120.37Z" fill="white"/>
<path opacity="0.09" d="M178.109 120.37C211.349 120.37 238.295 93.4245 238.295 60.1852C238.295 26.9458 211.349 0 178.109 0C144.87 0 117.924 26.9458 117.924 60.1852C117.924 93.4245 144.87 120.37 178.109 120.37Z" fill="#367CFF"/>
<path d="M189.747 24.145C189.747 24.145 193.558 20.0145 193.263 12.1472C193.036 6.0558 188.255 10.8944 188.255 10.8944C188.255 10.8944 188.047 6.50999 185.007 7.49906C181.966 8.48813 181.031 13.3026 181.031 13.3026" fill="#0C0C0C"/>
<path d="M168.973 10.9192C168.973 10.9192 153.795 15.3798 163.186 35.3414L164.572 35.1849L167.386 34.868" fill="#0C0C0C"/>
<path d="M190.482 56.0471C190.413 56.0383 189.646 68.7722 174.852 67.6601C164.611 66.893 160.96 56.0275 160.725 56.0275C161.829 55.7927 163.194 55.437 163.736 55.3144C164.918 55.0401 165.988 54.4124 166.805 53.5149C167.621 52.6173 168.145 51.4924 168.307 50.2899C168.606 48.4849 168.098 39.2507 168.255 37.4246L183.974 40.9331C183.755 44.7904 182.218 53.7319 187.606 55.3144C188.503 55.5767 189.469 55.8178 190.482 56.0471Z" fill="#E98862"/>
<path opacity="0.52" d="M184.195 51.661C183.949 50.8674 183.791 50.0493 183.722 49.2213C183.55 47.3317 183.584 45.4288 183.825 43.5467C180.63 43.1154 177.62 41.7966 175.137 39.74C174.845 40.8181 173.24 45.5288 173.684 46.5533C174.525 48.4901 178.473 51.661 184.195 51.661Z" fill="#0C0C0C"/>
<path d="M181.629 47.6068C175.429 48.1643 167.426 45.6306 165.821 37.3657L164.373 29.9083C162.768 21.6415 165.808 14.1004 173.59 12.5897C181.371 11.0786 188.489 16.6494 190.094 24.9142L190.734 28.2156C190.934 29.3529 191.057 30.5026 191.101 31.6567C191.239 34.7075 191.439 39.3443 189.972 42.7721C188.589 46.009 185.591 47.251 181.629 47.6068Z" fill="#E98862"/>
<path opacity="0.5" d="M182.567 39.436C183.702 39.4146 184.817 39.1268 185.821 38.5956C185.843 38.5857 185.862 38.5715 185.878 38.5538C185.895 38.5362 185.907 38.5154 185.915 38.4928C185.923 38.4702 185.926 38.4463 185.925 38.4224C185.923 38.3984 185.917 38.3751 185.906 38.3537C185.895 38.3323 185.88 38.3133 185.862 38.2979C185.844 38.2825 185.822 38.2709 185.799 38.2639C185.777 38.2569 185.752 38.2546 185.729 38.2571C185.705 38.2596 185.682 38.267 185.661 38.2787C183.496 39.3716 181.464 39.3612 179.787 38.2521C179.754 38.2287 179.719 38.207 179.683 38.1871C179.662 38.1769 179.639 38.1708 179.616 38.1693C179.592 38.1678 179.569 38.1709 179.547 38.1784C179.525 38.1859 179.505 38.1977 179.487 38.2131C179.47 38.2285 179.455 38.2472 179.445 38.2681C179.435 38.289 179.429 38.3117 179.427 38.335C179.426 38.3582 179.429 38.3815 179.436 38.4036C179.444 38.4256 179.456 38.446 179.471 38.4634C179.487 38.4809 179.505 38.4952 179.526 38.5055C179.539 38.5129 179.561 38.5276 179.592 38.5478C180.473 39.1334 181.509 39.4427 182.567 39.436Z" fill="#0C0C0C"/>
<path opacity="0.52" d="M182.621 41.1174C182.827 41.1168 183.032 41.0987 183.234 41.0633C183.257 41.0593 183.279 41.051 183.298 41.0386C183.318 41.0262 183.335 41.01 183.349 40.991C183.362 40.9721 183.372 40.9506 183.377 40.9279C183.382 40.9052 183.383 40.8817 183.379 40.8588C183.375 40.8359 183.366 40.8139 183.354 40.7942C183.342 40.7745 183.326 40.7575 183.307 40.744C183.288 40.7305 183.266 40.721 183.243 40.7158C183.221 40.7106 183.197 40.71 183.174 40.7139C182.857 40.7933 182.527 40.8042 182.206 40.746C181.884 40.6878 181.579 40.5618 181.31 40.3763C181.274 40.3464 181.229 40.3316 181.182 40.3349C181.136 40.3383 181.093 40.3597 181.063 40.3945C181.032 40.4292 181.016 40.4746 181.019 40.5209C181.021 40.5672 181.041 40.6107 181.076 40.642C181.52 40.9745 182.067 41.1425 182.621 41.1174Z" fill="#0C0C0C"/>
<path d="M188.231 30.298C188.77 30.298 189.208 29.8609 189.208 29.3217C189.208 28.7826 188.77 28.3455 188.231 28.3455C187.692 28.3455 187.255 28.7826 187.255 29.3217C187.255 29.8609 187.692 30.298 188.231 30.298Z" fill="#0C0C0C"/>
<path d="M178.738 31.4074C179.277 31.4074 179.715 30.9703 179.715 30.4311C179.715 29.8919 179.277 29.4548 178.738 29.4548C178.199 29.4548 177.762 29.8919 177.762 30.4311C177.762 30.9703 178.199 31.4074 178.738 31.4074Z" fill="#0C0C0C"/>
<path d="M166.793 39.7897C164.428 40.2488 162.02 38.091 161.56 35.7261C161.101 33.3612 162.765 31.6852 165.13 31.2261L166.655 32.5739L168.825 39.395L166.793 39.7897Z" fill="#E98862"/>
<path d="M168.462 35.5539C168.462 35.5539 167.141 23.6875 170.564 22.3205C172.844 21.4097 179.192 23.7283 184.326 21.7522C186.572 20.8871 188.884 21.0632 189.308 22.1217C189.475 22.5405 189.793 16.0259 185.291 11.9402C181.707 8.68756 172.023 9.33858 167.929 11.359C156.593 16.9534 164.735 31.8293 164.735 31.8293L165.999 35.7738L168.462 35.5539Z" fill="#0C0C0C"/>
<g opacity="0.52">
<path d="M184.022 36.4969H184.037C184.8 36.3493 186.063 36.021 185.957 35.4507C185.866 34.9779 183.595 30.124 183.337 29.5724C183.326 29.5489 183.31 29.5278 183.291 29.5103C183.272 29.4929 183.249 29.4793 183.225 29.4705C183.201 29.4617 183.175 29.4578 183.149 29.4589C183.123 29.4601 183.097 29.4664 183.074 29.4774C183.051 29.4885 183.029 29.504 183.012 29.5232C182.994 29.5423 182.981 29.5648 182.972 29.5892C182.963 29.6136 182.959 29.6395 182.961 29.6654C182.962 29.6913 182.968 29.7167 182.979 29.7402C183.986 31.8896 185.506 35.2022 185.568 35.5245C185.519 35.6722 184.755 35.9571 183.966 36.1081C183.914 36.1159 183.867 36.1441 183.836 36.1865C183.804 36.2289 183.791 36.2821 183.799 36.3343C183.806 36.3865 183.835 36.4334 183.877 36.4649C183.919 36.4963 183.972 36.5096 184.025 36.5018L184.022 36.4969Z" fill="#0C0C0C"/>
</g>
<path d="M184.561 24.6037C185.324 24.2379 186.172 24.0849 187.015 24.1608C187.428 24.1956 187.834 24.2922 188.219 24.4472C188.599 24.5983 188.958 24.7967 189.289 25.0377C189.35 25.0801 189.393 25.1446 189.407 25.2177C189.422 25.2908 189.408 25.3668 189.368 25.4296C189.327 25.4924 189.264 25.5371 189.192 25.5545C189.119 25.5718 189.043 25.5603 188.979 25.5224L188.957 25.5145C188.657 25.3232 188.335 25.1703 187.997 25.0594C187.665 24.9485 187.318 24.8886 186.968 24.8817C186.278 24.8625 185.595 25.026 184.989 25.3556L184.964 25.3699C184.915 25.398 184.86 25.4162 184.804 25.4234C184.747 25.4305 184.69 25.4265 184.635 25.4115C184.581 25.3966 184.529 25.3709 184.484 25.3361C184.44 25.3013 184.402 25.258 184.374 25.2087C184.346 25.1594 184.327 25.105 184.32 25.0486C184.313 24.9922 184.317 24.935 184.332 24.8802C184.347 24.8254 184.373 24.7741 184.407 24.7292C184.442 24.6842 184.486 24.6466 184.535 24.6185L184.561 24.6037Z" fill="#0C0C0C"/>
<path d="M178.964 26.1163C178.3 25.9304 177.598 25.9231 176.929 26.0952C176.59 26.1797 176.265 26.3152 175.966 26.4972C175.661 26.6804 175.38 26.9011 175.129 27.1541L175.114 27.1699C175.06 27.2221 174.987 27.2512 174.912 27.2509C174.837 27.2507 174.765 27.2211 174.712 27.1686C174.658 27.116 174.627 27.0446 174.626 26.9696C174.624 26.8945 174.652 26.8218 174.703 26.7669C174.971 26.4577 175.277 26.1838 175.614 25.9515C175.954 25.7146 176.329 25.53 176.724 25.4038C177.119 25.2735 177.531 25.198 177.946 25.1794C178.372 25.156 178.799 25.1931 179.215 25.2896C179.326 25.3157 179.423 25.3852 179.484 25.4826C179.544 25.5801 179.563 25.6976 179.537 25.8093C179.511 25.921 179.442 26.0178 179.344 26.0783C179.247 26.1388 179.129 26.1582 179.018 26.1321L178.992 26.1252L178.964 26.1163Z" fill="#0C0C0C"/>
<path d="M181.958 16.7418C183.646 16.0577 184.198 13.4889 183.191 11.0042C182.184 8.51957 180 7.05991 178.312 7.744C176.624 8.4281 176.072 10.9969 177.078 13.4816C178.085 15.9662 180.27 17.4259 181.958 16.7418Z" fill="#0C0C0C"/>
<path d="M210.928 69.2057C210.987 73.285 209.393 77.8712 208.861 84.0811C208.753 85.3409 208.497 88.1162 208.158 91.7329C207.601 97.7215 206.814 106.003 206.125 113.468C196.273 118.639 185.182 120.981 174.081 120.236C162.979 119.491 152.301 115.687 143.228 109.246C143.012 109.083 142.795 108.926 142.579 108.773C142.003 100.334 141.324 91.477 140.704 85.8821C139.538 75.4354 137.948 70.2342 138.839 66.7207C138.91 66.4216 139.006 66.1286 139.124 65.8449C141.688 59.625 149.852 56.8497 155.383 56.1018C158.758 55.6441 163.836 55.3145 163.836 55.3145C163.836 55.3145 164.264 64.0143 174.514 64.4966C188.47 65.1559 187.54 55.3145 187.608 55.3145C189.867 55.3145 202.174 56.958 205.249 58.9656C205.765 59.3004 206.258 59.6686 206.726 60.0679C208.062 61.1824 209.132 62.581 209.859 64.1619C210.586 65.7427 210.951 67.4659 210.928 69.2057Z" fill="#383838"/>
<path d="M159.545 75.5144L143.228 109.246C143.012 109.084 142.795 108.926 142.579 108.774C136.253 104.136 130.889 98.3132 126.783 91.6298L138.839 66.721L139.316 65.7319L159.545 75.5144Z" fill="#383838"/>
<path d="M157.971 79.3969L143.13 109.172C143.031 109.099 142.938 109.03 142.839 108.966L157.661 79.2443C157.682 79.203 157.719 79.1716 157.763 79.1568C157.807 79.1421 157.855 79.1453 157.897 79.1656C157.937 79.1865 157.968 79.2226 157.982 79.266C157.996 79.3093 157.992 79.3564 157.971 79.3969Z" fill="white"/>
<path d="M233.219 84.4159C230.261 91.1198 226.107 97.2292 220.961 102.446L208.157 91.7331L191.894 78.1223L206.726 60.068L206.77 60.0139L233.219 84.4159Z" fill="#383838"/>
<path d="M208.355 91.8644C208.397 91.8623 208.436 91.8451 208.466 91.8161C208.496 91.7871 208.515 91.7481 208.519 91.7064L209.364 81.801C209.368 81.7552 209.353 81.7098 209.324 81.6746C209.294 81.6395 209.252 81.6175 209.206 81.6135C209.161 81.6102 209.116 81.6248 209.081 81.6542C209.046 81.6836 209.024 81.7255 209.019 81.771L208.174 91.6769C208.17 91.7226 208.185 91.7679 208.214 91.8029C208.244 91.838 208.286 91.8599 208.332 91.8639L208.355 91.8644Z" fill="white"/>
<path d="M461.506 380.989C493.209 380.989 518.91 355.288 518.91 323.585C518.91 291.882 493.209 266.181 461.506 266.181C429.802 266.181 404.102 291.882 404.102 323.585C404.102 355.288 429.802 380.989 461.506 380.989Z" fill="white"/>
<path opacity="0.09" d="M404.101 323.584C404.101 334.937 407.468 346.035 413.775 355.475C420.083 364.915 429.048 372.273 439.537 376.617C450.026 380.962 461.568 382.099 472.703 379.884C483.838 377.669 494.066 372.202 502.094 364.174C510.122 356.146 515.589 345.918 517.804 334.783C520.019 323.648 518.882 312.106 514.538 301.617C510.193 291.128 502.836 282.163 493.396 275.855C483.956 269.548 472.857 266.181 461.504 266.181C453.958 266.153 446.481 267.619 439.504 270.494C432.527 273.369 426.188 277.596 420.852 282.932C415.517 288.268 411.289 294.607 408.414 301.584C405.539 308.561 404.074 316.038 404.101 323.584Z" fill="#367CFF"/>
<path d="M487.553 291.908C486.636 302.537 487.486 306.141 491.9 312.231C495.622 317.365 474.442 313.001 465.071 311.332L473.34 287.162C473.34 287.162 487.875 288.176 487.553 291.908Z" fill="#0A0A0A"/>
<path d="M455.221 287.485C452.456 297.789 452.767 300.976 447.356 306.387C442.872 310.872 460.349 311.784 469.727 313.413L470.202 287.874C470.202 287.874 456.193 283.867 455.221 287.485Z" fill="#0A0A0A"/>
<path d="M456.153 317.454C456.215 317.446 456.902 328.841 470.139 327.847C479.303 327.161 482.57 317.438 482.781 317.438C481.733 317.264 480.7 317.013 479.69 316.688C478.247 315.913 476.461 315.106 475.996 312.304C475.728 310.688 476.183 302.425 476.043 300.789L461.976 303.929C462.173 307.381 463.551 315.382 458.728 316.797C457.925 317.034 457.06 317.249 456.153 317.454Z" fill="#E98862"/>
<path opacity="0.5" d="M461.779 313.53C461.999 312.819 462.141 312.087 462.202 311.346C462.357 309.655 462.326 307.953 462.11 306.268C464.97 305.883 467.663 304.702 469.885 302.862C470.147 303.827 471.583 308.042 471.185 308.959C470.433 310.692 466.9 313.53 461.779 313.53Z" fill="#0C0C0C"/>
<path d="M463.598 309.98C469.144 310.516 476.32 308.298 477.806 300.912L479.148 294.248C480.634 286.862 477.96 280.094 471.006 278.695C464.052 277.295 457.649 282.238 456.163 289.622L455.569 292.574C454.999 295.406 453.703 309.023 463.598 309.98Z" fill="#E98862"/>
<path d="M485.86 296.352L479.604 295.666C467.363 293.416 464.365 283.538 464.365 283.538C464.365 283.538 459.23 290.393 454.871 288.819C454.871 288.819 456.276 272.29 475.63 275.194C483.235 276.336 487.553 282.64 487.553 291.095C487.553 297.312 485.86 296.352 485.86 296.352Z" fill="#0A0A0A"/>
<path opacity="0.1" d="M468.917 299.284C468.997 298.614 468.322 297.983 467.41 297.874C466.497 297.765 465.692 298.22 465.612 298.889C465.533 299.559 466.208 300.19 467.12 300.299C468.033 300.408 468.837 299.953 468.917 299.284Z" fill="#0C0C0C"/>
<path opacity="0.1" d="M457.482 297.625C457.4 298.293 456.596 298.747 455.683 298.64C455.525 298.62 455.37 298.585 455.219 298.534C455.177 297.737 455.175 296.97 455.198 296.26C455.451 296.197 455.714 296.182 455.973 296.215C456.884 296.323 457.559 296.954 457.482 297.625Z" fill="#0C0C0C"/>
<path opacity="0.5" d="M461.513 299.691H461.499C461.217 299.633 460.939 299.558 460.666 299.469C460.257 299.332 459.723 299.108 459.797 298.739C459.882 298.318 461.949 294.009 462.184 293.52C462.194 293.498 462.208 293.478 462.225 293.462C462.243 293.445 462.263 293.433 462.286 293.425C462.308 293.416 462.332 293.413 462.356 293.414C462.38 293.415 462.403 293.421 462.425 293.431C462.447 293.442 462.466 293.456 462.482 293.474C462.498 293.492 462.51 293.513 462.517 293.536C462.525 293.558 462.528 293.582 462.526 293.606C462.524 293.63 462.518 293.653 462.507 293.675C461.625 295.509 460.205 298.526 460.148 298.81C460.572 299.098 461.06 299.28 461.569 299.341C461.614 299.35 461.654 299.376 461.68 299.414C461.706 299.452 461.717 299.499 461.709 299.544C461.702 299.59 461.677 299.63 461.641 299.658C461.604 299.686 461.558 299.699 461.513 299.694V299.691Z" fill="#0C0C0C"/>
<path d="M476.921 303.075C479.035 303.5 481.203 301.585 481.628 299.471C482.054 297.358 480.575 295.848 478.462 295.422L477.088 296.619L475.105 302.709L476.921 303.075Z" fill="#E98862"/>
<path d="M460.685 290.081C460.425 289.897 460.14 289.748 459.84 289.639C459.535 289.524 459.217 289.453 458.893 289.426C458.569 289.395 458.242 289.413 457.923 289.479C457.602 289.545 457.29 289.65 456.995 289.794L456.986 289.798C456.954 289.809 456.919 289.808 456.888 289.795C456.856 289.782 456.831 289.758 456.816 289.727C456.802 289.697 456.799 289.662 456.809 289.629C456.819 289.597 456.84 289.569 456.869 289.552C457.182 289.387 457.514 289.261 457.858 289.179C458.204 289.095 458.562 289.063 458.917 289.086C459.638 289.126 460.335 289.358 460.935 289.759C460.978 289.791 461.008 289.838 461.017 289.89C461.026 289.943 461.015 289.997 460.985 290.042C460.955 290.086 460.908 290.117 460.856 290.128C460.803 290.138 460.749 290.128 460.704 290.099L460.699 290.096L460.685 290.081Z" fill="#0C0C0C"/>
<path d="M466.38 290.869C467.088 290.728 467.821 290.78 468.502 291.019C468.839 291.135 469.157 291.301 469.444 291.511C469.731 291.718 469.99 291.961 470.215 292.233C470.24 292.26 470.253 292.295 470.251 292.332C470.249 292.368 470.233 292.402 470.207 292.426C470.18 292.451 470.144 292.464 470.108 292.462C470.072 292.46 470.038 292.444 470.013 292.418L470.006 292.41C469.788 292.165 469.54 291.948 469.268 291.765C468.999 291.581 468.704 291.439 468.392 291.344C467.774 291.15 467.116 291.123 466.485 291.266L466.469 291.27C466.416 291.283 466.36 291.275 466.314 291.246C466.267 291.218 466.233 291.172 466.22 291.119C466.207 291.066 466.216 291.01 466.244 290.964C466.272 290.917 466.318 290.884 466.371 290.87L466.38 290.869Z" fill="#0C0C0C"/>
<path d="M434.834 374.425C432.577 373.44 430.889 372.387 427.035 369.484C424.255 367.397 421.671 365.06 419.315 362.503L439.101 324.852L439.962 323.217L457.808 332.599L442.328 362.06L442.256 362.19L442.391 362.714" fill="#EA394A"/>
<path d="M500.637 344.137C500.117 349.72 500.005 358.403 500.041 366.124C492.58 372.891 483.469 377.575 473.624 379.704C463.779 381.833 453.547 381.332 443.957 378.253C442.783 366.61 441.038 349.501 440.054 338.966C439.057 328.054 436.125 324.45 444.127 319.224C448.536 316.98 455.525 316.783 458.667 316.783C457.6 327.126 479.399 328.399 479.941 316.783C496.245 318.307 503.793 318.686 500.637 344.137Z" fill="#EA394A"/>
<path d="M459.653 301.147C461.455 302.063 463.511 302.353 465.496 301.97C465.565 301.957 465.636 301.964 465.701 301.99C465.766 302.016 465.822 302.06 465.863 302.116C465.904 302.173 465.928 302.241 465.932 302.311C465.937 302.38 465.921 302.45 465.887 302.511C465.296 303.554 463.891 305.337 461.483 304.611C459.928 304.141 459.341 302.544 459.121 301.552C459.106 301.484 459.11 301.412 459.134 301.346C459.159 301.28 459.201 301.222 459.257 301.179C459.313 301.136 459.38 301.111 459.45 301.105C459.521 301.099 459.591 301.114 459.653 301.147Z" fill="white"/>
<path d="M459.54 293.133C460.021 293.133 460.411 292.743 460.411 292.263C460.411 291.782 460.021 291.392 459.54 291.392C459.06 291.392 458.67 291.782 458.67 292.263C458.67 292.743 459.06 293.133 459.54 293.133Z" fill="#0C0C0C"/>
<path d="M467.908 294.597C468.388 294.597 468.778 294.208 468.778 293.727C468.778 293.246 468.388 292.856 467.908 292.856C467.427 292.856 467.037 293.246 467.037 293.727C467.037 294.208 467.427 294.597 467.908 294.597Z" fill="#0C0C0C"/>
<path d="M441.982 357.759H441.998C442.034 357.754 442.066 357.735 442.087 357.706C442.109 357.678 442.118 357.642 442.113 357.606L440.574 342.1C440.572 342.082 440.566 342.065 440.557 342.05C440.549 342.034 440.537 342.021 440.523 342.01C440.508 341.999 440.492 341.992 440.475 341.987C440.458 341.983 440.44 341.982 440.422 341.985C440.405 341.987 440.388 341.993 440.373 342.002C440.357 342.011 440.344 342.023 440.333 342.037C440.323 342.051 440.315 342.067 440.311 342.084C440.306 342.101 440.305 342.119 440.308 342.137L441.846 357.644C441.851 357.676 441.868 357.706 441.892 357.727C441.917 357.748 441.949 357.759 441.982 357.759Z" fill="#0C0C0C"/>
<path d="M439.97 345.949H424.258V365.218H439.97V345.949Z" fill="white"/>
<path d="M433.536 355.584C433.536 354.311 433.914 353.067 434.621 352.009C435.328 350.951 436.333 350.127 437.509 349.64C438.685 349.153 439.978 349.026 441.226 349.274C442.474 349.523 443.621 350.136 444.521 351.036C445.42 351.936 446.033 353.082 446.281 354.331C446.529 355.579 446.401 356.872 445.914 358.048C445.427 359.224 444.602 360.228 443.544 360.935C442.486 361.642 441.242 362.019 439.97 362.019C438.263 362.017 436.628 361.339 435.422 360.132C434.215 358.925 433.537 357.29 433.536 355.584ZM436.171 355.584C436.171 356.335 436.394 357.069 436.811 357.694C437.228 358.319 437.822 358.806 438.516 359.093C439.21 359.381 439.974 359.456 440.711 359.309C441.448 359.163 442.124 358.801 442.656 358.27C443.187 357.738 443.549 357.062 443.695 356.325C443.842 355.588 443.767 354.824 443.479 354.13C443.192 353.436 442.705 352.842 442.08 352.425C441.455 352.007 440.721 351.785 439.97 351.785C438.962 351.786 437.997 352.187 437.285 352.899C436.572 353.611 436.172 354.576 436.171 355.584Z" fill="white"/>
<path d="M439.844 357.968C439.897 357.642 440.063 357.345 440.313 357.129C440.563 356.913 440.881 356.792 441.211 356.787C441.202 356.774 441.195 356.759 441.192 356.744L440.724 356.642C440.398 356.578 440.104 356.402 439.892 356.146C439.68 355.89 439.563 355.568 439.562 355.236C439.565 355.027 439.614 354.822 439.706 354.635C439.798 354.448 439.93 354.283 440.093 354.154C440.257 354.024 440.447 353.932 440.65 353.884C440.853 353.837 441.064 353.835 441.268 353.879L442.371 354.117C442.371 354.113 442.371 354.109 442.371 354.105C442.374 354.096 442.377 354.088 442.381 354.079C442.094 353.944 441.86 353.716 441.719 353.431C441.578 353.146 441.538 352.822 441.605 352.511C441.725 351.695 442.705 351.426 443.422 351.581L446.281 352.093L445.316 351.453C445.012 351.242 444.799 350.924 444.72 350.562C444.642 350.2 444.703 349.822 444.893 349.504C444.996 349.343 445.131 349.205 445.29 349.098C445.449 348.991 445.627 348.918 445.815 348.882C446.003 348.847 446.196 348.85 446.383 348.891C446.57 348.933 446.746 349.012 446.901 349.124L458.425 362.312L455.866 361.151C455.072 362.319 453.947 363.223 452.636 363.748C451.324 364.272 449.886 364.393 448.505 364.095L442.256 362.733C441.93 362.668 441.636 362.493 441.424 362.237C441.212 361.98 441.095 361.659 441.093 361.326C441.098 361.026 441.198 360.736 441.38 360.497C441.561 360.258 441.814 360.083 442.102 359.998C442.093 359.977 442.089 359.953 442.092 359.931C442.096 359.909 442.104 359.889 442.118 359.872C442.131 359.855 442.148 359.841 442.168 359.832L441.015 359.583C440.651 359.512 440.328 359.306 440.111 359.006C439.894 358.707 439.799 358.336 439.844 357.968Z" fill="#E98862"/>
<path opacity="0.2" d="M444.459 354.582C444.489 354.576 444.516 354.559 444.535 354.535C444.554 354.511 444.564 354.481 444.563 354.45C444.563 354.419 444.552 354.39 444.532 354.367C444.512 354.343 444.484 354.328 444.454 354.322L442.523 353.996C442.506 353.992 442.488 353.992 442.47 353.995C442.453 353.999 442.436 354.006 442.422 354.016C442.407 354.026 442.394 354.039 442.385 354.054C442.375 354.069 442.369 354.085 442.366 354.103C442.363 354.12 442.363 354.138 442.367 354.156C442.372 354.173 442.379 354.189 442.39 354.204C442.4 354.218 442.414 354.23 442.429 354.239C442.444 354.248 442.461 354.254 442.479 354.256L444.41 354.583C444.426 354.586 444.443 354.586 444.459 354.582Z" fill="#0C0C0C"/>
<path opacity="0.2" d="M443.993 357.312C444.023 357.306 444.05 357.29 444.069 357.266C444.088 357.242 444.098 357.212 444.098 357.181C444.097 357.15 444.086 357.121 444.066 357.097C444.046 357.074 444.019 357.058 443.989 357.053L441.344 356.584C441.327 356.58 441.309 356.579 441.291 356.582C441.273 356.586 441.257 356.592 441.242 356.602C441.227 356.612 441.214 356.625 441.204 356.64C441.194 356.655 441.187 356.672 441.184 356.69C441.181 356.707 441.182 356.725 441.186 356.743C441.19 356.76 441.197 356.777 441.208 356.791C441.219 356.806 441.232 356.818 441.248 356.827C441.263 356.836 441.28 356.842 441.298 356.844L443.943 357.313C443.959 357.316 443.976 357.316 443.993 357.312Z" fill="#0C0C0C"/>
<path opacity="0.2" d="M443.507 360.273C443.537 360.266 443.564 360.25 443.584 360.225C443.603 360.201 443.613 360.171 443.612 360.14C443.611 360.109 443.599 360.079 443.579 360.056C443.558 360.033 443.53 360.017 443.5 360.013L442.245 359.821C442.212 359.817 442.178 359.827 442.151 359.848C442.125 359.869 442.107 359.899 442.102 359.932C442.097 359.966 442.105 360 442.124 360.028C442.143 360.056 442.172 360.075 442.206 360.082L443.46 360.274C443.476 360.277 443.492 360.276 443.507 360.273Z" fill="#0C0C0C"/>
<path d="M508.641 356.338C501.572 366.505 491.411 374.121 479.67 378.056L479.665 378.051C477.057 377.541 452.178 367.718 448.887 367.073L452.488 350.274C461.734 352.114 478.598 359.206 487.897 361.053L481.336 331.309C481.099 329.995 481.124 328.647 481.411 327.343C481.698 326.039 482.242 324.805 483.009 323.713C483.777 322.62 484.754 321.691 485.884 320.979C487.013 320.267 488.273 319.786 489.589 319.565C490.906 319.344 492.254 319.386 493.554 319.689C494.854 319.992 496.081 320.551 497.164 321.332C498.247 322.113 499.164 323.101 499.862 324.239C500.56 325.378 501.025 326.643 501.23 327.963L508.641 356.338Z" fill="#EA394A"/>
<path d="M494.945 363.243C494.978 363.242 495.01 363.229 495.035 363.206C495.059 363.183 495.074 363.152 495.076 363.118C495.079 363.085 495.069 363.051 495.048 363.025C495.028 362.999 494.998 362.981 494.965 362.975L487.973 360.603C487.956 360.6 487.938 360.601 487.921 360.605C487.903 360.609 487.887 360.617 487.873 360.628C487.859 360.638 487.847 360.651 487.838 360.667C487.829 360.682 487.823 360.699 487.82 360.716C487.815 360.752 487.824 360.788 487.845 360.816C487.867 360.845 487.898 360.864 487.933 360.869L494.925 363.241C494.931 363.242 494.938 363.243 494.945 363.243Z" fill="#0C0C0C"/>
<path d="M488.081 360.717C488.085 360.759 488.072 360.801 488.045 360.834C488.029 360.848 488.011 360.859 487.991 360.865C487.97 360.872 487.949 360.873 487.928 360.87L452.712 350.475L449.183 367.009L479.508 378.105C479.414 378.136 479.315 378.167 479.221 378.198C479.154 378.221 479.087 378.243 479.015 378.261L448.986 367.236C448.952 367.226 448.923 367.205 448.904 367.175C448.886 367.144 448.88 367.109 448.887 367.074L452.488 350.275C452.493 350.258 452.5 350.242 452.511 350.228C452.522 350.214 452.535 350.203 452.551 350.195C452.566 350.184 452.583 350.177 452.601 350.174C452.618 350.171 452.637 350.172 452.654 350.177L487.785 360.584L483.808 344.186C483.803 344.151 483.812 344.116 483.833 344.087C483.854 344.059 483.885 344.04 483.92 344.034C483.937 344.031 483.955 344.031 483.973 344.034C483.99 344.038 484.006 344.045 484.021 344.055C484.036 344.065 484.048 344.078 484.058 344.093C484.067 344.107 484.074 344.124 484.077 344.142L488.081 360.717Z" fill="#0C0C0C"/>
<path d="M28.8686 339.289C28.8358 339.289 28.8034 339.283 28.7731 339.27C28.7433 339.258 28.7163 339.239 28.6935 339.216C28.6708 339.193 28.6528 339.166 28.6406 339.136C28.6284 339.106 28.6223 339.074 28.6224 339.042C28.6226 339.01 28.6292 338.978 28.6417 338.948L38.2834 316.03C38.3088 315.97 38.3571 315.923 38.4176 315.898C38.4781 315.873 38.5458 315.874 38.606 315.899C38.6662 315.925 38.7138 315.973 38.7384 316.033C38.763 316.094 38.7625 316.162 38.7371 316.222L29.0954 339.138C29.0767 339.183 29.0452 339.221 29.0048 339.248C28.9645 339.275 28.9171 339.289 28.8686 339.289Z" fill="#0C0C0C"/>
<path d="M85.6039 339.549H85.593C85.5608 339.551 85.5285 339.546 85.4981 339.535C85.4678 339.524 85.4399 339.507 85.416 339.485C85.3922 339.463 85.3728 339.437 85.3591 339.408C85.3454 339.379 85.3376 339.347 85.3362 339.315L84.2615 315.875C84.2607 315.81 84.2844 315.748 84.3279 315.7C84.3713 315.652 84.4313 315.623 84.4957 315.618C84.528 315.616 84.5603 315.621 84.5908 315.632C84.6212 315.643 84.6492 315.66 84.6731 315.682C84.697 315.704 84.7164 315.73 84.7301 315.759C84.7438 315.788 84.7516 315.82 84.7531 315.852L85.8278 339.292C85.8309 339.355 85.8094 339.418 85.7677 339.466C85.7259 339.514 85.6672 339.544 85.6039 339.549Z" fill="#0C0C0C"/>
</svg>
