<svg width="582" height="582" viewBox="0 0 582 582" fill="none" xmlns="http://www.w3.org/2000/svg">
<rect x="3" y="3" width="576" height="576" fill="#BDBDBD" stroke="#7B7B7B" stroke-width="6"/>
<path d="M136.9 443.133V409.1H170.934V443.133H136.9ZM409 443.133V409.1H442.867V443.133H409ZM272.867 273.133V205.066H204.967V273.133H272.867ZM136.9 171.033V137H170.934V171.033H136.9ZM409 171.033V137H442.867V171.033H409ZM272.867 510.867V443.133H204.967V409.1H170.934V375.066H136.9V307H69V273.133H136.9V205.066H170.934V171.033H204.967V137H272.867V69.0996H306.9V137H374.967V171.033H409V205.066H442.867V273.133H510.934V307H442.867V375.066H409V409.1H374.967V443.133H306.9V510.867H272.867Z" fill="#1A1A1A"/>
<path d="M205 205H273V273H205V205Z" fill="white"/>
</svg>
