<svg width="442" height="442" viewBox="0 0 442 442" fill="none" xmlns="http://www.w3.org/2000/svg">
<path d="M67.9004 374.133V340.1H101.934V374.133H67.9004ZM340 374.133V340.1H373.867V374.133H340ZM203.867 204.133V136.066H135.967V204.133H203.867ZM67.9004 102.033V68H101.934V102.033H67.9004ZM340 102.033V68H373.867V102.033H340ZM203.867 441.867V374.133H135.967V340.1H101.934V306.066H67.9004V238H0V204.133H67.9004V136.066H101.934V102.033H135.967V68H203.867V0.0996094H237.9V68H305.967V102.033H340V136.066H373.867V204.133H441.934V238H373.867V306.066H340V340.1H305.967V374.133H237.9V441.867H203.867Z" fill="#1A1A1A"/>
</svg>
