<svg width="582" height="582" viewBox="0 0 582 582" fill="none" xmlns="http://www.w3.org/2000/svg">
<rect x="3" y="3" width="576" height="576" fill="#FF0000" stroke="#7B7B7B" stroke-width="6"/>
<path d="M137.9 443.133V409.1H171.934V443.133H137.9ZM410 443.133V409.1H443.867V443.133H410ZM273.867 273.133V205.066H205.967V273.133H273.867ZM137.9 171.033V137H171.934V171.033H137.9ZM410 171.033V137H443.867V171.033H410ZM273.867 510.867V443.133H205.967V409.1H171.934V375.066H137.9V307H70V273.133H137.9V205.066H171.934V171.033H205.967V137H273.867V69.0996H307.9V137H375.967V171.033H410V205.066H443.867V273.133H511.934V307H443.867V375.066H410V409.1H375.967V443.133H307.9V510.867H273.867Z" fill="#1A1A1A"/>
<path d="M206 205H274V273H206V205Z" fill="white"/>
</svg>
